<svg viewBox="0 0 128 128" xmlns="http://www.w3.org/2000/svg">
<path d="M118.792 82.7939C119.282 79.6853 119.282 76.5109 118.792 73.4024L123.658 70.1175C124.224 69.7427 124.469 68.971 124.28 68.2436C123.016 63.4816 120.848 59.1607 118.019 55.5895C117.585 55.0384 116.887 54.906 116.322 55.2809L111.456 58.5657C109.4 56.5151 107.043 54.9279 104.497 53.8699V47.3002C104.497 46.5505 104.044 45.8893 103.422 45.735C99.2165 44.6327 94.9354 44.6766 90.937 45.735C90.315 45.8893 89.8622 46.5505 89.8622 47.3002V53.8699C87.3161 54.9279 84.9587 56.5151 82.903 58.5657L78.0376 55.2809C77.4905 54.906 76.774 55.0384 76.3403 55.5895C73.5115 59.1607 71.3424 63.4816 70.0789 68.2436C69.8905 68.971 70.1546 69.7427 70.7013 70.1175L75.5672 73.4024C75.0767 76.5109 75.0767 79.6853 75.5672 82.7939L70.7013 86.0787C70.1356 86.4536 69.8905 87.2249 70.0789 87.9527C71.3424 92.7143 73.5115 97.0132 76.3403 100.607C76.774 101.158 77.4718 101.29 78.0376 100.915L82.903 97.6306C84.9587 99.6808 87.3161 101.268 89.8622 102.326V108.896C89.8622 109.645 90.315 110.307 90.937 110.461C95.1428 111.564 99.4238 111.519 103.422 110.461C104.044 110.307 104.497 109.645 104.497 108.896V102.326C107.043 101.268 109.4 99.6808 111.456 97.6306L116.322 100.915C116.868 101.29 117.585 101.158 118.019 100.607C120.848 97.0355 123.016 92.7143 124.28 87.9527C124.469 87.2249 124.205 86.4536 123.658 86.0787L118.792 82.7939ZM97.1984 88.7902C92.1443 88.7902 88.0519 83.9843 88.0519 78.0981C88.0519 72.212 92.1629 67.4057 97.1984 67.4057C102.234 67.4057 106.345 72.212 106.345 78.0981C106.345 83.9843 102.253 88.7902 97.1984 88.7902ZM21.7619 56.9342C28.4192 56.9342 33.8317 50.607 33.8317 42.825C33.8317 35.0428 28.4192 28.7157 21.7619 28.7157C15.1046 28.7157 9.69204 35.0428 9.69204 42.825C9.69204 50.607 15.1046 56.9342 21.7619 56.9342ZM64.0062 63.9889C64.3646 63.9889 64.704 63.8784 65.0624 63.8565C66.6276 59.0726 68.9287 54.5754 71.9082 50.8056C73.3038 49.0418 75.2841 48.0276 77.3588 48.0276C78.66 48.0276 79.9422 48.4244 81.0551 49.1961L82.545 50.2102C82.6957 50.1001 82.8467 50.012 82.9974 49.9016C84.3176 46.6829 85.1098 43.1113 85.1098 39.3196C85.1098 25.6733 75.6612 14.6284 63.9876 14.6284C52.3136 14.6284 42.884 25.6513 42.884 39.2977C42.884 52.9439 52.3326 63.9889 64.0062 63.9889ZM83.8462 106.868C83.4125 106.603 82.9787 106.295 82.5636 106.008C81.0174 107.066 79.6782 108.169 77.3775 108.169C75.3218 108.169 73.3418 107.155 71.9272 105.391C68.476 101.025 65.8355 95.7128 64.346 90.0467C62.3279 82.441 69.0417 79.0903 69.2114 78.9579C69.1928 78.3849 69.1928 77.8114 69.2114 77.2383L67.7215 76.2242C67.0051 75.7393 66.4016 75.1219 65.8735 74.4384C65.2511 74.4827 64.6477 74.5708 64.0252 74.5708C59.3858 74.5708 55.0484 73.248 51.1067 71.0435H49.5415C37.5281 71.0435 27.7968 82.419 27.7968 96.4402V102.789C27.7968 108.632 31.8515 113.371 36.8494 113.371H85.0154C84.3176 112.048 83.8462 110.549 83.8462 108.896V106.868ZM36.3023 68.0893C34.1146 65.5541 31.116 63.9889 27.7968 63.9889H15.727C9.06971 63.9889 3.65714 70.3161 3.65714 78.0981V85.1528C3.65714 89.0549 6.35399 92.2074 9.69204 92.2074H22.1202C23.3084 81.7578 28.7021 72.9613 36.3023 68.0893Z" />
</svg>