<svg viewBox="0 0 128 128" xmlns="http://www.w3.org/2000/svg">
<path fill-rule="evenodd" clip-rule="evenodd" d="M79.4917 18.7429H99.0757C105.563 18.7429 110.826 23.8108 110.826 30.0572V113.028C110.826 119.275 105.563 124.343 99.0757 124.343H28.5733C22.0861 124.343 16.8229 119.275 16.8229 113.028V30.0572C16.8229 23.8108 22.0861 18.7429 28.5733 18.7429H48.1573C48.1573 10.4222 55.183 3.65723 63.8245 3.65723C72.4659 3.65723 79.4917 10.4222 79.4917 18.7429ZM69.6997 18.7429C69.6997 15.6079 67.0804 13.0858 63.8245 13.0858C60.5685 13.0858 57.9493 15.6079 57.9493 18.7429C57.9493 21.878 60.5685 24.4001 63.8245 24.4001C67.0804 24.4001 69.6997 21.878 69.6997 18.7429ZM97.607 113.028C98.4148 113.028 99.0757 112.392 99.0757 111.614V31.4715C99.0757 30.6936 98.4148 30.0572 97.607 30.0572H87.3253V38.5431C87.3253 40.0988 86.0032 41.3715 84.3875 41.3715H43.2615C41.6457 41.3715 40.3237 40.0988 40.3237 38.5431V30.0572H30.0421C29.2342 30.0572 28.5733 30.6936 28.5733 31.4715V111.614C28.5733 112.392 29.2342 113.028 30.0421 113.028H97.607ZM52.9083 75.5727C54.3905 75.0319 55.6398 74.2317 56.6557 73.1729V62.7969H47.6727V66.6296H51.3664V71.2394L50.9001 71.5499C50.2546 71.9529 49.412 72.1544 48.3723 72.1544C46.7467 72.1544 45.5753 71.6362 44.8578 70.6005C44.1531 69.5535 43.8002 67.8843 43.8002 65.5939V61.0363C43.8243 58.8494 44.1589 57.2552 44.8044 56.2539C45.4495 55.2526 46.4838 54.7519 47.906 54.7519C49.0774 54.7519 49.9379 55.0456 50.488 55.6325C51.038 56.2078 51.3847 57.2958 51.5281 58.8954H56.6557C56.4286 56.018 55.5919 53.906 54.1455 52.5594C52.7115 51.2129 50.5776 50.5396 47.7448 50.5396C44.7327 50.5396 42.4375 51.4777 40.8598 53.3534C39.2938 55.2182 38.5108 57.8824 38.5108 61.3468V65.8703C38.5587 69.2887 39.4134 71.8955 41.0749 73.6908C42.7363 75.4747 45.0674 76.3667 48.0673 76.3667C49.8246 76.3667 51.4381 76.1023 52.9083 75.5727ZM62.2764 76.0215H67.5478V50.8848H62.2764V76.0215ZM83.5496 55.1147H90.0041V50.8848H71.9133V55.1147H78.2603V76.0215H83.5496V55.1147ZM41.7924 95.6691C41.7924 95.3085 41.9858 94.9629 42.3304 94.7084C42.6745 94.4535 43.1415 94.3101 43.6286 94.3101H69.3325C69.8193 94.3101 70.2866 94.4535 70.6308 94.7084C70.9753 94.9629 71.1684 95.3085 71.1684 95.6691C71.1684 96.0293 70.9753 96.3749 70.6308 96.6298C70.2866 96.8847 69.8193 97.0277 69.3325 97.0277H43.6286C43.1415 97.0277 42.6745 96.8847 42.3304 96.6298C41.9858 96.3749 41.7924 96.0293 41.7924 95.6691ZM41.7924 87.5162C41.7924 87.1556 41.9858 86.81 42.3304 86.5551C42.6745 86.3002 43.1415 86.1572 43.6286 86.1572H84.0207C84.5074 86.1572 84.9745 86.3002 85.3186 86.5551C85.6631 86.81 85.8566 87.1556 85.8566 87.5162C85.8566 87.8765 85.6631 88.2221 85.3186 88.477C84.9745 88.7319 84.5074 88.8749 84.0207 88.8749H43.6286C43.1415 88.8749 42.6745 88.7319 42.3304 88.477C41.9858 88.2221 41.7924 87.8765 41.7924 87.5162ZM42.1153 103.638C41.9087 103.893 41.7924 104.238 41.7924 104.598C41.7924 104.959 41.9087 105.304 42.1153 105.559C42.3219 105.814 42.6021 105.957 42.8943 105.957H58.3165C58.6087 105.957 58.8888 105.814 59.0954 105.559C59.3021 105.304 59.418 104.959 59.418 104.598C59.418 104.238 59.3021 103.893 59.0954 103.638C58.8888 103.383 58.6087 103.24 58.3165 103.24H42.8943C42.6021 103.24 42.3219 103.383 42.1153 103.638Z" />
</svg>