<svg viewBox="0 0 128 128" xmlns="http://www.w3.org/2000/svg">
<path fill-rule="evenodd" clip-rule="evenodd" d="M79.4917 18.7429H99.0757C105.563 18.7429 110.826 23.8108 110.826 30.0572V113.028C110.826 119.275 105.563 124.343 99.0757 124.343H28.5733C22.0861 124.343 16.8229 119.275 16.8229 113.028V30.0572C16.8229 23.8108 22.0861 18.7429 28.5733 18.7429H48.1573C48.1573 10.4222 55.183 3.65723 63.8245 3.65723C72.4659 3.65723 79.4917 10.4222 79.4917 18.7429ZM69.6997 18.7429C69.6997 15.6079 67.0804 13.0858 63.8245 13.0858C60.5685 13.0858 57.9493 15.6079 57.9493 18.7429C57.9493 21.878 60.5685 24.4001 63.8245 24.4001C67.0804 24.4001 69.6997 21.878 69.6997 18.7429ZM97.607 113.028C98.4148 113.028 99.0757 112.392 99.0757 111.614V31.4715C99.0757 30.6936 98.4148 30.0572 97.607 30.0572H87.3253V38.5431C87.3253 40.0988 86.0032 41.3715 84.3879 41.3715H43.2615C41.6457 41.3715 40.3237 40.0988 40.3237 38.5431V30.0572H30.0421C29.2342 30.0572 28.5733 30.6936 28.5733 31.4715V111.614C28.5733 112.392 29.2342 113.028 30.0421 113.028H97.607ZM46.1349 65.7665H54.3291V61.5542H46.1349V55.1147H55.315V50.8848H40.8638V76.0215H46.1349V65.7665ZM60.2185 76.0215H65.4899V50.8848H60.2185V76.0215ZM81.4918 55.1147H87.9463V50.8848H69.8555V55.1147H76.2024V76.0215H81.4918V55.1147ZM41.7924 95.6691C41.7924 95.3085 41.9858 94.9629 42.3304 94.7084C42.6745 94.4535 43.1415 94.3101 43.6286 94.3101H69.3325C69.8193 94.3101 70.2863 94.4535 70.6308 94.7084C70.9749 94.9629 71.1684 95.3085 71.1684 95.6691C71.1684 96.0293 70.9749 96.3749 70.6308 96.6298C70.2863 96.8847 69.8193 97.0277 69.3325 97.0277H43.6286C43.1415 97.0277 42.6745 96.8847 42.3304 96.6298C41.9858 96.3749 41.7924 96.0293 41.7924 95.6691ZM41.7924 87.5162C41.7924 87.1556 41.9858 86.81 42.3304 86.5551C42.6745 86.3002 43.1415 86.1572 43.6286 86.1572H84.0203C84.5074 86.1572 84.9745 86.3002 85.3186 86.5551C85.6631 86.81 85.8566 87.1556 85.8566 87.5162C85.8566 87.8765 85.6631 88.2221 85.3186 88.477C84.9745 88.7319 84.5074 88.8749 84.0203 88.8749H43.6286C43.1415 88.8749 42.6745 88.7319 42.3304 88.477C41.9858 88.2221 41.7924 87.8765 41.7924 87.5162ZM42.1149 103.638C41.9087 103.892 41.7924 104.238 41.7924 104.598C41.7924 104.959 41.9087 105.304 42.1149 105.559C42.3216 105.814 42.6021 105.957 42.8939 105.957H58.3165C58.6087 105.957 58.8888 105.814 59.0954 105.559C59.3021 105.304 59.418 104.959 59.418 104.598C59.418 104.238 59.3021 103.892 59.0954 103.638C58.8888 103.383 58.6087 103.24 58.3165 103.24H42.8939C42.6021 103.24 42.3216 103.383 42.1149 103.638Z" />
</svg>