<svg viewBox="0 0 128 128" xmlns="http://www.w3.org/2000/svg">
<path fill-rule="evenodd" clip-rule="evenodd" d="M79.4917 18.7429H99.0757C105.563 18.7429 110.826 23.8108 110.826 30.0572V113.028C110.826 119.275 105.563 124.343 99.0757 124.343H28.5733C22.0861 124.343 16.8229 119.275 16.8229 113.028V30.0572C16.8229 23.8108 22.0861 18.7429 28.5733 18.7429H48.1573C48.1573 10.4222 55.183 3.65723 63.8245 3.65723C72.4659 3.65723 79.4917 10.4222 79.4917 18.7429ZM69.6997 18.7429C69.6997 15.6079 67.0804 13.0858 63.8245 13.0858C60.5685 13.0858 57.9493 15.6079 57.9493 18.7429C57.9493 21.878 60.5685 24.4001 63.8245 24.4001C67.0804 24.4001 69.6997 21.878 69.6997 18.7429ZM97.607 113.028C98.4148 113.028 99.0757 112.392 99.0757 111.614V31.4715C99.0757 30.6936 98.4148 30.0572 97.607 30.0572H87.3253V38.5431C87.3253 40.0988 86.0032 41.3715 84.3875 41.3715H43.2615C41.6457 41.3715 40.3237 40.0988 40.3237 38.5431V30.0572H30.0421C29.2342 30.0572 28.5733 30.6936 28.5733 31.4715V111.614C28.5733 112.392 29.2342 113.028 30.0421 113.028H97.607ZM42.3304 86.6937C41.9858 87.0752 41.7924 87.5923 41.7924 88.1314C41.7924 88.6704 41.9858 89.1876 42.3304 89.569C42.6745 89.9501 43.1415 90.1644 43.6286 90.1644H69.3325C69.8193 90.1644 70.2863 89.9501 70.6308 89.569C70.9749 89.1876 71.1684 88.6704 71.1684 88.1314C71.1684 87.5923 70.9749 87.0752 70.6308 86.6937C70.2863 86.3123 69.8193 86.0984 69.3325 86.0984H43.6286C43.1415 86.0984 42.6745 86.3123 42.3304 86.6937ZM42.3304 74.4957C41.9858 74.8768 41.7924 75.3939 41.7924 75.933C41.7924 76.4724 41.9858 76.9895 42.3304 77.3706C42.6745 77.752 43.1415 77.966 43.6286 77.966H84.0203C84.5074 77.966 84.9745 77.752 85.3186 77.3706C85.6631 76.9895 85.8566 76.4724 85.8566 75.933C85.8566 75.3939 85.6631 74.8768 85.3186 74.4957C84.9745 74.1143 84.5074 73.9 84.0203 73.9H43.6286C43.1415 73.9 42.6745 74.1143 42.3304 74.4957ZM41.7924 99.9973C41.7924 99.4524 41.9087 98.9298 42.1153 98.5447C42.3216 98.1593 42.6021 97.9428 42.8939 97.9428H58.3165C58.6087 97.9428 58.8888 98.1593 59.0954 98.5447C59.3021 98.9298 59.418 99.4524 59.418 99.9973C59.418 100.542 59.3021 101.065 59.0954 101.45C58.8888 101.835 58.6087 102.052 58.3165 102.052H42.8939C42.6021 102.052 42.3216 101.835 42.1153 101.45C41.9087 101.065 41.7924 100.542 41.7924 99.9973ZM36.9858 64.0341H41.3682L42.2206 67.9783H45.6518L40.647 48.7077H37.707L32.7349 67.9783H36.1335L36.9858 64.0341ZM40.6576 60.7913H37.6854L39.1717 53.9225L40.6576 60.7913ZM52.3242 51.9502H56.2586V48.7077H45.2319V51.9502H49.1005V67.9783H52.3242V51.9502ZM61.4334 67.9783V61.2016H63.5754C65.2146 61.2016 66.4967 60.6545 67.422 59.5607C68.3473 58.4665 68.8099 56.9754 68.8099 55.0869C68.8099 53.1987 68.3399 51.6634 67.4001 50.4811C66.4675 49.2987 65.2146 48.7077 63.6409 48.7077H58.2206V67.9783H61.4334ZM63.6409 57.9592H61.4334V51.9502H63.6734C64.2491 51.9589 64.7084 52.2504 65.0507 52.8239C65.393 53.3885 65.5642 54.1518 65.5642 55.1136C65.5642 56.0399 65.3967 56.7458 65.0613 57.2311C64.7263 57.7164 64.2527 57.9592 63.6409 57.9592ZM80.3343 66.5487C81.2742 65.4194 81.784 63.7562 81.8644 61.5593H78.6513C78.6077 62.8649 78.4256 63.7693 78.1049 64.2722C77.7842 64.7666 77.2016 65.0135 76.3564 65.0135C75.4966 65.0135 74.8884 64.6562 74.5315 63.9416C74.1815 63.2266 74.0067 61.9119 74.0067 59.9973V56.3578C74.0286 54.6901 74.2181 53.4946 74.575 52.7708C74.9319 52.0387 75.5405 51.6722 76.4003 51.6722C77.2455 51.6722 77.8244 51.9326 78.1378 52.4534C78.4582 52.965 78.633 53.9002 78.6622 55.2591H81.886C81.762 53.0619 81.2486 51.3767 80.3453 50.2031C79.4493 49.0296 78.1341 48.443 76.4003 48.443C74.6372 48.443 73.2603 49.162 72.2695 50.6003C71.2785 52.0295 70.7829 54.068 70.7829 56.7151V59.9575C70.7829 62.6137 71.2602 64.6606 72.2147 66.0989C73.1762 67.5281 74.5571 68.2431 76.3564 68.2431C78.0683 68.2431 79.3944 67.6781 80.3343 66.5487ZM93.6401 66.0989C94.6527 64.6693 95.1589 62.6619 95.1589 60.0767V56.7812C95.1443 54.143 94.6271 52.0957 93.6071 50.6402C92.5872 49.1751 91.192 48.443 89.4215 48.443C87.6222 48.443 86.2161 49.1887 85.2034 50.6797C84.1907 52.1619 83.6842 54.2267 83.6842 56.8738V60.1692C83.6989 62.7193 84.2163 64.7048 85.2363 66.1253C86.2559 67.5369 87.6588 68.2431 89.4435 68.2431C91.2359 68.2431 92.6347 67.5281 93.6401 66.0989ZM91.3229 52.9694C91.731 53.8164 91.9351 55.1092 91.9351 56.8474V60.1959C91.9278 61.8369 91.7201 63.0503 91.3119 63.8355C90.9042 64.6119 90.2813 65.0003 89.4435 65.0003C88.5764 65.0003 87.9357 64.6031 87.5202 63.8092C87.1048 63.0061 86.8974 61.7619 86.8974 60.0767V56.6489C86.9117 54.9812 87.123 53.7414 87.5312 52.9295C87.9389 52.1093 88.5694 51.6989 89.4215 51.6989C90.2813 51.6989 90.9151 52.1224 91.3229 52.9694Z" />
</svg>