<svg viewBox="0 0 128 128" xmlns="http://www.w3.org/2000/svg">
<path fill-rule="evenodd" clip-rule="evenodd" d="M99.0757 18.7429H79.4916C79.4916 10.4222 72.4659 3.65723 63.8244 3.65723C55.183 3.65723 48.1572 10.4222 48.1572 18.7429H28.5732C22.086 18.7429 16.8228 23.8108 16.8228 30.0572V113.029C16.8228 119.275 22.086 124.343 28.5732 124.343H99.0757C105.563 124.343 110.826 119.275 110.826 113.029V30.0572C110.826 23.8108 105.563 18.7429 99.0757 18.7429ZM63.8244 13.0858C67.0803 13.0858 69.6996 15.6079 69.6996 18.7429C69.6996 21.8779 67.0803 24.4001 63.8244 24.4001C60.5686 24.4001 57.9492 21.8779 57.9492 18.7429C57.9492 15.6079 60.5686 13.0858 63.8244 13.0858ZM99.0757 111.614C99.0757 112.392 98.4147 113.029 97.6068 113.029H30.042C29.2342 113.029 28.5732 112.392 28.5732 111.614V31.4715C28.5732 30.6937 29.2342 30.0572 30.042 30.0572H40.3236V38.5429C40.3236 40.0987 41.6456 41.3715 43.2612 41.3715H84.3876C86.0033 41.3715 87.3252 40.0987 87.3252 38.5429V30.0572H97.6068C98.4147 30.0572 99.0757 30.6937 99.0757 31.4715V111.614ZM41.7925 70.9477C41.7925 70.1843 41.9859 69.4522 42.3302 68.9125C42.6746 68.3727 43.1416 68.0695 43.6285 68.0695H69.3325C69.8194 68.0695 70.2864 68.3727 70.6307 68.9125C70.975 69.4522 71.1685 70.1843 71.1685 70.9477C71.1685 71.711 70.975 72.4431 70.6307 72.9829C70.2864 73.5227 69.8194 73.8259 69.3325 73.8259H43.6285C43.1416 73.8259 42.6746 73.5227 42.3302 72.9829C41.9859 72.4431 41.7925 71.711 41.7925 70.9477ZM41.7925 53.6783C41.7925 52.915 41.9859 52.1829 42.3302 51.6431C42.6746 51.1033 43.1416 50.8001 43.6285 50.8001H84.0205C84.5074 50.8001 84.9744 51.1033 85.3187 51.6431C85.663 52.1829 85.8565 52.915 85.8565 53.6783C85.8565 54.4417 85.663 55.1738 85.3187 55.7135C84.9744 56.2533 84.5074 56.5565 84.0205 56.5565H43.6285C43.1416 56.5565 42.6746 56.2533 42.3302 55.7135C41.9859 55.1738 41.7925 54.4417 41.7925 53.6783ZM42.1151 87.8437C41.9086 88.3835 41.7925 89.1156 41.7925 89.879C41.7925 90.6423 41.9086 91.3744 42.1151 91.9142C42.3217 92.454 42.6019 92.7572 42.8941 92.7572H58.3165C58.6087 92.7572 58.8889 92.454 59.0954 91.9142C59.302 91.3744 59.4181 90.6423 59.4181 89.879C59.4181 89.1156 59.302 88.3835 59.0954 87.8437C58.8889 87.304 58.6087 87.0007 58.3165 87.0007H42.8941C42.6019 87.0007 42.3217 87.304 42.1151 87.8437Z" />
</svg>
