<svg viewBox="0 0 128 128" xmlns="http://www.w3.org/2000/svg">
<path fill-rule="evenodd" clip-rule="evenodd" d="M26.4229 3.65723V124.343H116.937V3.65723H26.4229ZM22.6514 11.2001H11.3372V33.8287H22.6514V11.2001ZM11.3372 41.3715H22.6514V64.0001H11.3372V41.3715ZM22.6514 71.5429H11.3372V94.1715H22.6514V71.5429ZM11.3372 101.714H22.6514V124.343H11.3372V101.714ZM80.8229 37.695H92.2514C96.0373 37.695 99.1086 40.6525 99.1086 44.2976V92.7171C99.1086 96.3621 96.0373 99.3197 92.2514 99.3197H51.1086C47.3227 99.3197 44.2514 96.3621 44.2514 92.7171V44.2976C44.2514 40.6525 47.3227 37.695 51.1086 37.695H62.5372C62.5372 32.8393 66.6372 28.8915 71.68 28.8915C76.7228 28.8915 80.8229 32.8393 80.8229 37.695ZM75.1086 37.695C75.1086 35.8655 73.5799 34.3937 71.68 34.3937C69.7801 34.3937 68.2514 35.8655 68.2514 37.695C68.2514 39.5247 69.7801 40.9963 71.68 40.9963C73.5799 40.9963 75.1086 39.5247 75.1086 37.695ZM91.3942 92.7171C91.8656 92.7171 92.2514 92.3455 92.2514 91.8917V45.123C92.2514 44.6692 91.8656 44.2976 91.3942 44.2976H85.3943V49.2497C85.3943 50.1574 84.623 50.9002 83.6798 50.9002H59.6802C58.737 50.9002 57.9657 50.1574 57.9657 49.2497V44.2976H51.9658C51.4944 44.2976 51.1086 44.6692 51.1086 45.123V91.8917C51.1086 92.3455 51.4944 92.7171 51.9658 92.7171H91.3942ZM59.1367 66.9722C58.9356 67.2871 58.823 67.7143 58.823 68.1601C58.823 68.6055 58.9356 69.0327 59.1367 69.3476C59.3375 69.6624 59.61 69.8394 59.8941 69.8394H74.8943C75.1784 69.8394 75.4509 69.6624 75.652 69.3476C75.8528 69.0327 75.9658 68.6055 75.9658 68.1601C75.9658 67.7143 75.8528 67.2871 75.652 66.9722C75.4509 66.6574 75.1784 66.4804 74.8943 66.4804H59.8941C59.61 66.4804 59.3375 66.6574 59.1367 66.9722ZM59.1367 56.8943C58.9356 57.2095 58.823 57.6367 58.823 58.0821C58.823 58.5275 58.9356 58.9547 59.1367 59.2699C59.3375 59.5848 59.61 59.7618 59.8941 59.7618H83.4659C83.7501 59.7618 84.0225 59.5848 84.2233 59.2699C84.4244 58.9547 84.5371 58.5275 84.5371 58.0821C84.5371 57.6367 84.4244 57.2095 84.2233 56.8943C84.0225 56.5794 83.7501 56.4024 83.4659 56.4024H59.8941C59.61 56.4024 59.3375 56.5794 59.1367 56.8943ZM58.823 79.2076C58.823 78.7621 58.8906 78.335 59.0113 78.0201C59.1316 77.7049 59.2951 77.5282 59.4659 77.5282H68.4658C68.6362 77.5282 68.7996 77.7049 68.9203 78.0201C69.041 78.335 69.1087 78.7621 69.1087 79.2076C69.1087 79.653 69.041 80.0805 68.9203 80.3954C68.7996 80.7103 68.6362 80.8873 68.4658 80.8873H59.4659C59.2951 80.8873 59.1316 80.7103 59.0113 80.3954C58.8906 80.0805 58.823 79.653 58.823 79.2076Z" />
</svg>