<svg viewBox="0 0 128 128" xmlns="http://www.w3.org/2000/svg">
<path fill-rule="evenodd" clip-rule="evenodd" d="M116.937 3.65723H26.4229V124.343H116.937V3.65723ZM92.6994 36.6447H50.4594C47.1406 36.6447 44.4252 39.3601 44.4252 42.6789V84.9189C44.4252 88.2378 47.1406 90.9532 50.4594 90.9532H92.6994C96.0183 90.9532 98.7337 88.2378 98.7337 84.9189V42.6789C98.7337 39.3601 96.0183 36.6447 92.6994 36.6447ZM74.6869 48.8943L77.8851 45.6961L82.1394 49.9501L86.3934 45.6961L89.5916 48.8943L85.3376 53.1482L89.5916 57.4026L86.3934 60.6008L82.1394 56.3768L77.8851 60.6308L74.6869 57.4326L78.9413 53.1786L74.6869 48.8943ZM54.2307 50.8856H69.3164V55.4113H54.2307V50.8856ZM70.0709 75.8675H64.0366V81.9018H59.5109V75.8675H53.4766V71.3418H59.5109V65.3075H64.0366V71.3418H70.0709V75.8675ZM74.5966 79.6388V75.113H89.6823V79.6388H74.5966ZM74.5966 72.0959V67.5702H89.6823V72.0959H74.5966ZM11.3372 11.2001H22.6514V33.8287H11.3372V11.2001ZM11.3372 41.3715H22.6514V64.0001H11.3372V41.3715ZM22.6514 71.5429H11.3372V94.1715H22.6514V71.5429ZM11.3372 101.714H22.6514V124.343H11.3372V101.714Z" />
</svg>