<svg viewBox="0 0 128 128" xmlns="http://www.w3.org/2000/svg">
<path fill-rule="evenodd" clip-rule="evenodd" d="M63.9992 9.65723C61.8778 9.65723 59.8434 10.4998 58.3432 11.9995L5.16716 65.1675C4.41607 65.9186 3.99411 66.9373 3.99411 67.9995C3.99411 69.0617 4.41607 70.0804 5.16716 70.8315C5.91826 71.5826 6.93696 72.0046 7.99916 72.0046C9.06137 72.0046 10.0801 71.5826 10.8312 70.8315L63.9992 17.6555L117.167 70.8315C117.918 71.5826 118.937 72.0046 119.999 72.0046C121.061 72.0046 122.08 71.5826 122.831 70.8315C123.582 70.0804 124.004 69.0617 124.004 67.9995C124.004 66.9373 123.582 65.9186 122.831 65.1675L104 46.3392V20C104 18.9391 103.579 17.9217 102.828 17.1715C102.078 16.4214 101.061 16 100 16H92C90.9391 16 89.9217 16.4214 89.1716 17.1715C88.4214 17.9217 88 18.9391 88 20V30.3416L69.6552 11.9995C68.1549 10.4998 66.1205 9.65723 63.9992 9.65723ZM112 74.344L64 26.344L16 74.344V108C16 111.183 17.2643 114.235 19.5147 116.485C21.7652 118.736 24.8174 120 28 120H100C103.183 120 106.235 118.736 108.485 116.485C110.736 114.235 112 111.183 112 108V74.344Z" />
</svg>