<svg viewBox="0 0 128 128" xmlns="http://www.w3.org/2000/svg">
<path fill-rule="evenodd" clip-rule="evenodd" d="M92.2324 81.6696C99.5331 71.7031 102.803 59.3471 101.388 47.073C99.972 34.797 93.9743 23.5082 84.5941 15.4651C75.2135 7.422 63.1427 3.21782 50.7962 3.69362C38.4497 4.16941 26.738 9.29014 18.0043 18.0313C9.27068 26.7725 4.15906 38.4893 3.69215 50.838C3.22526 63.1867 7.4375 75.256 15.4862 84.6322C23.5349 94.008 34.8264 99.9988 47.1018 101.406C59.3751 102.813 71.7268 99.5332 81.687 92.2241C81.9123 92.5247 82.1529 92.81 82.4236 93.0883L111.462 122.131C112.877 123.547 114.795 124.342 116.796 124.343C118.797 124.344 120.716 123.549 122.131 122.135C123.547 120.721 124.342 118.802 124.343 116.8C124.344 114.799 123.549 112.88 122.135 111.464L93.0962 82.4215C92.8274 82.1494 92.5388 81.8981 92.2324 81.6696ZM91.0171 68.5543C93.1017 63.5206 94.1747 58.1252 94.1747 52.6768C94.1747 41.6732 89.804 31.1199 82.0242 23.339C74.2447 15.5582 63.6928 11.1869 52.6906 11.1869C41.6885 11.1869 31.1367 15.5582 23.3569 23.339C15.5771 31.1199 11.2064 41.6732 11.2064 52.6768C11.2064 58.1252 12.2795 63.5206 14.3642 68.5543C16.449 73.5884 19.5047 78.162 23.3569 82.0148C27.209 85.8676 31.7822 88.9235 36.8153 91.0088C41.8483 93.0938 47.2429 94.1668 52.6906 94.1668C58.1383 94.1668 63.533 93.0938 68.5659 91.0088C73.5989 88.9235 78.1721 85.8676 82.0242 82.0148C85.8766 78.162 88.9322 73.5884 91.0171 68.5543ZM43.6659 44.6578C43.6659 47.0792 46.287 48.6211 54.438 50.1253C62.5887 51.6419 71.3143 54.1141 71.3143 61.3274C71.3143 66.5656 65.7305 69.4331 58.7468 70.3891V75.8693H47.9747V70.3379C41.0624 69.2803 35.1917 66.1578 34.7428 60.5755H42.6602C43.0372 63.5707 45.9637 65.9285 53.3606 65.9285C61.3142 65.9285 63.0557 63.1246 63.0557 61.3786C63.0557 58.9825 61.2783 56.7524 52.2836 55.2229C42.2835 53.5151 35.4071 50.5839 35.4071 44.6959C35.4071 39.7638 41.0086 36.5777 47.9747 35.4943V29.9887H58.7468V35.5708C66.2513 36.8835 70.0394 40.8851 70.2731 45.2821H62.3374C62.122 42.096 59.7522 39.9295 53.3606 39.9295C47.2744 39.9295 43.6659 41.8795 43.6659 44.6578Z" />
</svg>