<svg viewBox="0 0 128 128" xmlns="http://www.w3.org/2000/svg">
<path d="M85.8229 39.0088V33.0088C85.8229 32.4588 85.3727 32.0088 84.8231 32.0088H36.8231C36.2729 32.0088 35.8229 32.4588 35.8229 33.0088V39.0088C35.8229 39.5588 36.2729 40.0086 36.8231 40.0086H84.8231C85.3727 40.0086 85.8229 39.5588 85.8229 39.0088ZM36.8231 50.0087C36.2729 50.0087 35.8229 50.4589 35.8229 51.009V57.0089C35.8229 57.5589 36.2729 58.0087 36.8231 58.0087H59.8228C60.3729 58.0087 60.8231 57.5589 60.8231 57.0089V51.009C60.8231 50.4589 60.3729 50.0087 59.8228 50.0087H36.8231ZM54.8228 106.509H25.8229V18.5088H95.823V61.509C95.823 62.0586 96.2728 62.5088 96.8229 62.5088H103.823C104.373 62.5088 104.823 62.0586 104.823 61.509V13.5088C104.823 11.2963 103.035 9.50879 100.823 9.50879H20.8229C18.6104 9.50879 16.8229 11.2963 16.8229 13.5088V111.509C16.8229 113.721 18.6104 115.509 20.8229 115.509H54.8228C55.3728 115.509 55.823 115.059 55.823 114.509V107.509C55.823 106.959 55.3728 106.509 54.8228 106.509ZM110.535 112.946L98.8727 101.284C101.661 97.5962 103.323 92.9962 103.323 88.0086C103.323 75.8589 93.4729 66.0087 81.3228 66.0087C69.173 66.0087 59.3229 75.8589 59.3229 88.0086C59.3229 100.159 69.173 110.009 81.3228 110.009C85.798 110.009 89.9478 108.671 93.4228 106.384L105.26 118.221C105.46 118.421 105.71 118.509 105.96 118.509C106.21 118.509 106.473 118.409 106.66 118.221L110.535 114.346C110.627 114.254 110.701 114.145 110.751 114.025C110.8 113.905 110.826 113.776 110.826 113.646C110.826 113.516 110.8 113.387 110.751 113.267C110.701 113.147 110.627 113.038 110.535 112.946ZM81.3228 102.009C73.5854 102.009 67.3229 95.7464 67.3229 88.0086C67.3229 80.2712 73.5854 74.0087 81.3228 74.0087C89.0602 74.0087 95.3227 80.2712 95.3227 88.0086C95.3227 95.7464 89.0602 102.009 81.3228 102.009Z" />
</svg>