<svg viewBox="0 0 128 128" xmlns="http://www.w3.org/2000/svg">
<path fill-rule="evenodd" clip-rule="evenodd" d="M95.0941 86.0801C110.699 66.0386 109.289 37.0436 90.8654 18.6199C70.9153 -1.33032 38.5697 -1.33032 18.6197 18.6199C-1.33039 38.5701 -1.33039 70.9157 18.6197 90.8655C37.0436 109.289 66.0392 110.7 86.0807 95.0942C86.167 95.1919 86.2563 95.2869 86.3503 95.3802L113.442 122.473C115.936 124.966 119.979 124.966 122.473 122.473C124.966 119.979 124.966 115.936 122.473 113.442L95.3808 86.3496C95.2876 86.2564 95.1918 86.1664 95.0941 86.0801ZM81.8348 81.8349C66.872 96.7977 42.613 96.7977 27.6504 81.8349C12.6879 66.8724 12.6879 42.6131 27.6504 27.6506C42.613 12.688 66.872 12.688 81.8348 27.6506C96.7973 42.6131 96.7973 66.8724 81.8348 81.8349ZM35.5853 61.1285C39.112 61.1285 41.9708 58.2697 41.9708 54.7428C41.9708 51.2162 39.112 48.357 35.5853 48.357C32.0586 48.357 29.1996 51.2162 29.1996 54.7428C29.1996 58.2697 32.0586 61.1285 35.5853 61.1285ZM61.128 54.7428C61.128 58.2697 58.2689 61.1285 54.7423 61.1285C51.2157 61.1285 48.3569 58.2697 48.3569 54.7428C48.3569 51.2162 51.2157 48.357 54.7423 48.357C58.2689 48.357 61.128 51.2162 61.128 54.7428ZM73.8995 61.1285C77.4261 61.1285 80.2853 58.2697 80.2853 54.7428C80.2853 51.2162 77.4261 48.357 73.8995 48.357C70.3733 48.357 67.5138 51.2162 67.5138 54.7428C67.5138 58.2697 70.3733 61.1285 73.8995 61.1285Z" />
</svg>