<svg viewBox="0 0 233 34" xmlns="http://www.w3.org/2000/svg">
<path fill-rule="evenodd" clip-rule="evenodd" d="M49.9615 6H50.0452L50.129 8.98367L50.2102 11.7859C53.5907 11.9487 56.2848 14.9393 56.2848 18.6047C56.2848 19.4185 56.1519 20.1992 55.9083 20.9229L56.2411 20.9141L56.0299 20.9079C56.0299 20.9079 64.7473 20.2081 64.7818 20.2259C64.7876 20.2289 64.7952 20.2308 64.8014 20.2325C64.8078 20.2342 64.8128 20.2355 64.8129 20.2372C64.8133 20.243 64.7566 20.2533 64.5052 20.2988L64.4435 20.31C64.1779 20.3581 62.7963 20.5851 61.6593 20.771L62.4405 20.7503C65.4931 20.6362 66.225 20.591 68.3778 20.4582L68.3832 20.4579L69.0821 20.4148C71.8144 20.247 72.6972 20.0371 72.6972 20.0371L75.8498 19.6594L79.0024 19.1137L84.215 18.0642L89.2594 16.8049C89.2594 16.8049 92.5375 15.9653 94.6396 15.2516C96.741 14.5379 97.246 14.286 97.246 14.286L99.9361 13.0265C99.9361 13.0265 99.978 13.1945 99.0953 13.6983C98.2125 14.2021 97.246 14.6639 97.246 14.6639C97.246 14.6639 96.447 14.9997 95.2284 15.4616C94.9965 15.5493 94.8028 15.6234 94.6339 15.688L94.571 15.7121L94.5638 15.7149C93.8965 15.9707 93.6226 16.0757 92.8323 16.3222C92.4169 16.4518 92.215 16.5291 92.0048 16.6099C91.7033 16.7255 91.3834 16.8481 90.3943 17.1409C88.7125 17.6384 84.4252 18.7361 84.4252 18.7361L83.9185 18.8519C83.921 18.8806 83.9227 18.9099 83.9227 18.9397C83.9227 19.2866 83.698 19.5678 83.4205 19.5678C83.1808 19.5678 82.9804 19.3582 82.9301 19.0776L81.2093 19.4707C81.2093 19.4707 80.3476 19.7016 77.9937 20.2054C77.6194 20.2854 77.2164 20.3677 76.8032 20.4493L76.8035 20.4581L76.8037 20.463L76.8039 20.4687L76.804 20.4891C76.804 20.8591 76.5791 21.1591 76.3015 21.1591C76.0632 21.1591 75.8636 20.9378 75.812 20.6409C73.9347 20.9962 72.1508 21.2967 72.1508 21.2967L71.1354 21.4917C72.4536 22.0781 73.3702 23.3774 73.3702 24.8861C73.3702 26.9445 71.6641 28.6131 69.5595 28.6131C67.4549 28.6131 65.7488 26.9445 65.7488 24.8861C65.7488 23.894 66.1452 22.9924 66.7915 22.3245L66.7474 22.3319L66.5638 22.3628C66.5004 22.6358 66.3095 22.8342 66.0838 22.8342C65.9033 22.8342 65.7449 22.7072 65.6564 22.5166C64.4497 22.7224 62.5673 23.0483 61.1795 23.3116C59.1999 23.687 56.2087 24.3177 55.7566 24.4131C55.3603 25.7849 54.0966 26.7705 52.6188 26.7705H51.3853H50.8348C50.8355 26.7766 50.8361 26.7829 50.8365 26.7891C50.837 26.7968 50.8373 26.8045 50.8373 26.8124C50.8373 26.9281 50.781 27.0218 50.7117 27.0218C50.6423 27.0218 50.586 26.9281 50.586 26.8124C50.586 26.7981 50.5869 26.7841 50.5886 26.7705H49.9569H49.1597C49.1614 26.7841 49.1623 26.7981 49.1623 26.8124C49.1623 26.9281 49.106 27.0218 49.0366 27.0218C48.9673 27.0218 48.911 26.9281 48.911 26.8124C48.911 26.7981 48.9118 26.7841 48.9135 26.7705H48.6215H47.1977C45.6933 26.7705 44.42 25.7527 43.9633 24.3711C43.1974 24.1792 40.5566 23.526 38.74 23.1824C37.4114 22.9312 35.6293 22.6225 34.4215 22.4167C34.3901 22.7466 34.1789 23.0017 33.923 23.0017C33.6455 23.0017 33.4205 22.7017 33.4205 22.3317C33.4205 22.3033 33.4218 22.2753 33.4244 22.2479L33.2276 22.2149L33.0758 22.1895L32.9727 22.1698C33.7123 22.8496 34.1742 23.8151 34.1742 24.8861C34.1742 26.9445 32.4681 28.6131 30.3635 28.6131C28.2589 28.6131 26.5528 26.9445 26.5528 24.8861C26.5528 23.3004 27.5653 21.946 28.9926 21.4076L27.7734 21.1741C27.7734 21.1741 26.0999 20.893 24.2892 20.5534C24.2649 20.8933 24.0503 21.1591 23.789 21.1591C23.5115 21.1591 23.2865 20.8591 23.2865 20.4891C23.2865 20.4461 23.2896 20.404 23.2953 20.3633C22.8223 20.2709 22.3591 20.1772 21.9329 20.0863C19.58 19.5842 18.7186 19.354 18.7186 19.354L17.1667 19.0004C17.1297 19.3218 16.9215 19.5678 16.67 19.5678C16.3926 19.5678 16.1675 19.2678 16.1675 18.8978C16.1675 18.8558 16.1705 18.8146 16.176 18.7747L15.5043 18.6217C15.5043 18.6217 11.2186 17.5274 9.53788 17.0313C8.54903 16.7395 8.22927 16.6172 7.92817 16.502H7.92815H7.92809C7.71752 16.4214 7.51592 16.3443 7.10097 16.2152C6.30836 15.9684 6.03491 15.8639 5.36247 15.6069H5.36245C5.17939 15.5369 4.96675 15.4556 4.70603 15.357C3.48758 14.8967 2.68925 14.5617 2.68925 14.5617C2.68925 14.5617 1.72289 14.1013 0.840591 13.5989C-0.0417101 13.0965 0.000317982 12.929 0.000317982 12.929L2.68932 14.1849C2.68932 14.1849 3.19351 14.436 5.29432 15.1476C7.39514 15.8591 10.6725 16.6961 10.6725 16.6961L15.7145 17.9516L20.9246 18.9977L24.076 19.5415L27.2273 19.9179C27.2273 19.9179 28.1097 20.1271 30.8409 20.2942L31.5393 20.3371L31.5417 20.3372L31.5418 20.3373C33.6961 20.4696 34.4269 20.5145 37.4798 20.6281L38.1294 20.6452C37.0742 20.4721 35.9177 20.2814 35.6782 20.2379L35.6169 20.2267C35.368 20.1815 35.3118 20.1713 35.3123 20.1655C35.3124 20.1638 35.3173 20.1625 35.3237 20.1607H35.3238C35.3299 20.1591 35.3374 20.1571 35.3432 20.1541C35.3726 20.1388 41.7618 20.6453 43.5509 20.7874L43.8897 20.7964C43.6724 20.1085 43.5545 19.3714 43.5545 18.6047C43.5545 14.9081 46.2946 11.8979 49.7155 11.7823L49.8346 8.98367L49.9196 6H49.9615ZM47.6164 16.2375V15.129C47.6164 15.0827 47.579 15.0452 47.5327 15.0452H47.071C47.0452 15.0452 47.021 15.0571 47.005 15.0774L46.0159 16.3436C45.996 16.369 45.9925 16.4037 46.007 16.4326L46.0637 16.546C46.0659 16.5505 46.0685 16.5548 46.0715 16.5588L46.1575 16.6733C46.1786 16.7015 46.2151 16.7134 46.2488 16.7032L47.1558 16.4271L47.5547 16.3183C47.5912 16.3084 47.6164 16.2753 47.6164 16.2375ZM48.2446 14.9615C48.0596 14.9615 47.9096 15.1115 47.9096 15.2965V16.2178C47.9096 16.264 47.9471 16.3015 47.9933 16.3015H49.6684C49.7609 16.3015 49.8359 16.2266 49.8359 16.134V15.6315C49.8359 15.2615 49.536 14.9615 49.1659 14.9615H48.2446ZM52.0134 15.2965C52.0134 15.1115 51.8635 14.9615 51.6784 14.9615H50.7571C50.3871 14.9615 50.0871 15.2615 50.0871 15.6315V16.134C50.0871 16.2266 50.1622 16.3015 50.2546 16.3015H51.9297C51.976 16.3015 52.0134 16.264 52.0134 16.2178V15.2965ZM52.3484 15.129V16.2375C52.3484 16.2753 52.3737 16.3084 52.4102 16.3183L52.8091 16.4271L53.7161 16.7032C53.7498 16.7134 53.7863 16.7015 53.8075 16.6733L53.8933 16.5588L53.8955 16.5558L53.8971 16.5534C53.8986 16.551 53.9 16.5486 53.9013 16.546L53.958 16.4326C53.9724 16.4037 53.9689 16.369 53.949 16.3436L52.9599 15.0774C52.944 15.0571 52.9196 15.0452 52.8939 15.0452H52.4322C52.386 15.0452 52.3484 15.0827 52.3484 15.129ZM111.188 12.7051C111.165 12.7871 111.121 12.9043 111.057 13.0566C110.992 13.2031 110.916 13.3701 110.828 13.5576C110.746 13.7451 110.655 13.9473 110.556 14.1641C110.462 14.375 110.368 14.5889 110.274 14.8057C110.239 14.8877 110.207 14.9492 110.178 14.9902C110.148 15.0254 110.102 15.0518 110.037 15.0693C109.973 15.0869 109.882 15.0986 109.765 15.1045C109.653 15.1045 109.495 15.1074 109.29 15.1133L108.068 15.1396L107.822 17.8291H112.331V18.1719C112.319 18.1836 112.27 18.2627 112.182 18.4092C112.094 18.5498 111.991 18.7197 111.874 18.9189C111.757 19.1182 111.634 19.3203 111.505 19.5254C111.376 19.7246 111.268 19.8857 111.18 20.0088C111.121 20.1143 111.054 20.1963 110.978 20.2549C110.901 20.3193 110.816 20.3662 110.723 20.3955C110.635 20.4248 110.535 20.4424 110.424 20.4482C110.318 20.4541 110.201 20.457 110.072 20.457C109.545 20.457 108.994 20.4453 108.42 20.4219C107.852 20.3984 107.283 20.3691 106.715 20.334C106.146 20.2988 105.59 20.2578 105.045 20.2109C104.506 20.1699 104.005 20.126 103.542 20.0791C103.501 20.0732 103.463 20.0498 103.428 20.0088C103.398 19.9678 103.384 19.9209 103.384 19.8682C103.36 19.8682 103.375 19.8184 103.428 19.7188C103.486 19.6191 103.565 19.4902 103.665 19.332C103.765 19.1738 103.873 18.9951 103.99 18.7959C104.113 18.5908 104.23 18.3857 104.342 18.1807L104.482 16.2031C104.506 15.8691 104.523 15.6201 104.535 15.4561C104.553 15.292 104.562 15.2041 104.562 15.1924C104.21 15.1865 103.946 15.1689 103.771 15.1396C103.601 15.1104 103.516 15.0459 103.516 14.9463C103.516 14.8994 103.557 14.8115 103.639 14.6826C103.727 14.5537 103.832 14.4072 103.955 14.2432C104.078 14.0732 104.207 13.8975 104.342 13.7158C104.482 13.5342 104.605 13.3672 104.711 13.2148L104.931 10.2266H104.904C104.775 10.2324 104.658 10.2383 104.553 10.2441H104.263C103.981 10.2441 103.779 10.2295 103.656 10.2002C103.539 10.165 103.48 10.1035 103.48 10.0156C103.48 9.97461 103.516 9.88965 103.586 9.76074C103.656 9.63184 103.744 9.48535 103.85 9.32129C103.955 9.15137 104.066 8.97559 104.184 8.79395C104.301 8.60645 104.406 8.43359 104.5 8.27539L105.027 7.37891H108.701L113.034 7.0625C113.04 7.0625 113.055 7.06543 113.078 7.07129C113.107 7.07129 113.137 7.08008 113.166 7.09766C113.195 7.10938 113.222 7.13281 113.245 7.16797C113.274 7.20312 113.289 7.25293 113.289 7.31738L113.157 7.77441C113.116 7.90332 113.066 8.04102 113.008 8.1875C112.949 8.32812 112.885 8.47461 112.814 8.62695L112.428 9.64648C112.387 9.74609 112.34 9.82227 112.287 9.875C112.234 9.92773 112.123 9.95703 111.953 9.96289C111.508 9.97461 111.01 9.99512 110.459 10.0244C109.914 10.0479 109.287 10.0713 108.578 10.0947C108.555 10.1768 108.543 10.2441 108.543 10.2969C108.543 10.3438 108.537 10.4375 108.525 10.5781L108.481 10.9824C108.47 11.1699 108.452 11.3721 108.429 11.5889C108.405 11.8057 108.376 12.0723 108.341 12.3887C108.64 12.377 108.93 12.3652 109.211 12.3535C109.498 12.3418 109.759 12.333 109.993 12.3271C110.228 12.3154 110.43 12.3066 110.6 12.3008C110.775 12.2949 110.898 12.292 110.969 12.292C111.016 12.292 111.068 12.3096 111.127 12.3447C111.186 12.3799 111.215 12.4473 111.215 12.5469C111.215 12.5938 111.206 12.6465 111.188 12.7051ZM121.176 19.2266C121.147 19.3027 121.118 19.376 121.088 19.4463C121.065 19.5166 121.033 19.5811 120.992 19.6396C120.951 19.6982 120.898 19.751 120.834 19.7979C120.775 19.8447 120.699 19.8828 120.605 19.9121C120.236 20.0293 119.87 20.1289 119.506 20.2109C119.143 20.2988 118.777 20.4043 118.408 20.5273C118.338 20.5508 118.276 20.5684 118.223 20.5801C118.171 20.5918 118.121 20.5977 118.074 20.5977C117.968 20.5977 117.892 20.5713 117.845 20.5186C117.798 20.4658 117.763 20.3984 117.74 20.3164L114.734 8.36328C114.687 8.21094 114.664 8.08496 114.664 7.98535C114.664 7.85645 114.705 7.75098 114.787 7.66895C114.869 7.58105 115.001 7.51074 115.182 7.45801C115.37 7.39941 115.607 7.34668 115.894 7.2998C116.187 7.25293 116.545 7.2002 116.966 7.1416C117.171 7.1123 117.344 7.0918 117.485 7.08008C117.626 7.0625 117.746 7.05371 117.845 7.05371C118.015 7.05371 118.127 7.08301 118.179 7.1416C118.238 7.19434 118.291 7.2793 118.338 7.39648L120.016 14.6562L122.38 7.98535C122.416 7.8916 122.445 7.81543 122.468 7.75684C122.498 7.69824 122.547 7.64844 122.618 7.60742C122.694 7.56055 122.805 7.5166 122.952 7.47559C123.104 7.42871 123.321 7.37598 123.602 7.31738C124.042 7.22363 124.405 7.15625 124.692 7.11523C124.979 7.07422 125.211 7.05371 125.386 7.05371C125.609 7.05371 125.753 7.08008 125.817 7.13281C125.887 7.18555 125.922 7.26172 125.922 7.36133C125.928 7.40234 125.92 7.44629 125.896 7.49316C125.879 7.53418 125.858 7.58691 125.835 7.65137L121.176 19.2266ZM125.557 19.3584C125.633 19.2061 125.712 19.0361 125.794 18.8486C125.876 18.6553 125.952 18.4473 126.023 18.2246L126.26 17.6445C126.154 17.4863 126.046 17.3164 125.935 17.1348C125.829 16.9473 125.733 16.7568 125.645 16.5635C125.557 16.3701 125.484 16.1768 125.425 15.9834C125.372 15.79 125.346 15.6025 125.346 15.4209C125.346 15.4092 125.39 15.4004 125.478 15.3945C125.571 15.3828 125.686 15.374 125.821 15.3682C125.961 15.3623 126.111 15.3594 126.269 15.3594C126.433 15.3535 126.582 15.3506 126.717 15.3506C126.858 15.3447 126.972 15.3418 127.06 15.3418L127.2 15.333C127.335 14.9814 127.467 14.6475 127.596 14.3311C127.725 14.0146 127.854 13.6953 127.983 13.373C128.112 13.0508 128.24 12.7227 128.369 12.3887C128.498 12.0488 128.627 11.6855 128.756 11.2988C129.002 10.5723 129.242 9.93359 129.477 9.38281C129.711 8.83203 129.931 8.31934 130.136 7.84473C130.159 7.78613 130.197 7.7334 130.25 7.68652C130.309 7.63379 130.37 7.58984 130.435 7.55469C130.499 7.51953 130.561 7.49023 130.619 7.4668C130.684 7.44336 130.734 7.42578 130.769 7.41406C130.792 7.4082 130.88 7.38184 131.032 7.33496C131.191 7.28809 131.369 7.23828 131.569 7.18555C131.768 7.13281 131.964 7.08594 132.157 7.04492C132.357 7.00391 132.515 6.9834 132.632 6.9834H132.79C132.884 6.9834 132.972 7.00684 133.054 7.05371C133.142 7.09473 133.2 7.17969 133.23 7.30859C133.511 8.0293 133.81 8.81738 134.126 9.67285C134.448 10.5225 134.762 11.46 135.067 12.4854C135.231 13.0361 135.392 13.5576 135.55 14.0498C135.708 14.542 135.866 15.0225 136.025 15.4912L136.499 16.8975C136.663 17.3662 136.83 17.8496 137 18.3477C137.053 18.5586 137.106 18.7256 137.158 18.8486C137.217 18.9717 137.27 19.0684 137.317 19.1387C137.363 19.209 137.402 19.2617 137.431 19.2969C137.46 19.3262 137.475 19.3584 137.475 19.3936C137.475 19.4287 137.419 19.4639 137.308 19.499L135.418 20.1143C135.278 20.167 135.134 20.2197 134.988 20.2725C134.841 20.3252 134.703 20.3721 134.574 20.4131C134.446 20.4541 134.331 20.4863 134.232 20.5098C134.138 20.5391 134.071 20.5537 134.029 20.5537H133.977C133.895 20.5537 133.836 20.5273 133.801 20.4746C133.766 20.4277 133.742 20.3809 133.731 20.334C133.672 20.1406 133.613 19.9678 133.555 19.8154C133.496 19.6572 133.438 19.502 133.379 19.3496L133.212 18.8486C133.159 18.6729 133.107 18.4648 133.054 18.2246C133.042 18.1953 133.01 18.1719 132.957 18.1543C132.904 18.1309 132.84 18.1133 132.764 18.1016C132.694 18.0898 132.617 18.084 132.535 18.084C132.453 18.0781 132.377 18.0752 132.307 18.0752C132.084 18.0752 131.903 18.0781 131.762 18.084C131.627 18.084 131.507 18.0869 131.402 18.0928C131.296 18.0928 131.194 18.0957 131.094 18.1016H130.742H130.215C130.039 18.0957 129.878 18.0898 129.732 18.084L129.231 18.0664C129.078 18.4883 128.926 18.8838 128.774 19.2529C128.621 19.6221 128.457 20.0029 128.281 20.3955C128.27 20.4424 128.24 20.4805 128.194 20.5098C128.153 20.5391 128.109 20.5537 128.062 20.5537C128.027 20.5537 128.006 20.5508 128 20.5449C127.432 20.3398 126.954 20.1377 126.568 19.9385C126.181 19.7393 125.844 19.5459 125.557 19.3584ZM131.481 11.457C131.34 11.9785 131.199 12.4531 131.059 12.8809C130.924 13.3027 130.798 13.6777 130.681 14.0059C130.57 14.334 130.473 14.6123 130.391 14.8408C130.309 15.0635 130.25 15.2363 130.215 15.3594V15.4385C130.215 15.4736 130.212 15.4971 130.206 15.5088H132.316C132.251 15.2217 132.181 14.9316 132.105 14.6387C132.034 14.3457 131.964 14.0381 131.894 13.7158C131.823 13.3936 131.753 13.0479 131.683 12.6787C131.613 12.3096 131.545 11.9023 131.481 11.457ZM143.406 19.3584C143.482 19.2061 143.561 19.0361 143.643 18.8486C143.725 18.6553 143.801 18.4473 143.871 18.2246L144.109 17.6445C144.003 17.4863 143.895 17.3164 143.784 17.1348C143.678 16.9473 143.581 16.7568 143.494 16.5635C143.406 16.3701 143.332 16.1768 143.274 15.9834C143.221 15.79 143.195 15.6025 143.195 15.4209C143.195 15.4092 143.239 15.4004 143.327 15.3945C143.42 15.3828 143.535 15.374 143.669 15.3682C143.81 15.3623 143.959 15.3594 144.118 15.3594C144.282 15.3535 144.431 15.3506 144.566 15.3506C144.706 15.3447 144.821 15.3418 144.909 15.3418L145.049 15.333C145.184 14.9814 145.316 14.6475 145.445 14.3311C145.574 14.0146 145.703 13.6953 145.831 13.373C145.96 13.0508 146.089 12.7227 146.218 12.3887C146.347 12.0488 146.476 11.6855 146.605 11.2988C146.851 10.5723 147.091 9.93359 147.326 9.38281C147.56 8.83203 147.78 8.31934 147.985 7.84473C148.008 7.78613 148.046 7.7334 148.099 7.68652C148.158 7.63379 148.219 7.58984 148.284 7.55469C148.348 7.51953 148.41 7.49023 148.468 7.4668C148.533 7.44336 148.582 7.42578 148.618 7.41406C148.641 7.4082 148.729 7.38184 148.881 7.33496C149.039 7.28809 149.218 7.23828 149.417 7.18555C149.617 7.13281 149.813 7.08594 150.006 7.04492C150.205 7.00391 150.364 6.9834 150.481 6.9834H150.639C150.733 6.9834 150.821 7.00684 150.903 7.05371C150.991 7.09473 151.049 7.17969 151.079 7.30859C151.36 8.0293 151.659 8.81738 151.975 9.67285C152.297 10.5225 152.611 11.46 152.915 12.4854C153.079 13.0361 153.241 13.5576 153.399 14.0498C153.557 14.542 153.715 15.0225 153.873 15.4912L154.348 16.8975C154.512 17.3662 154.679 17.8496 154.849 18.3477C154.902 18.5586 154.954 18.7256 155.007 18.8486C155.066 18.9717 155.119 19.0684 155.165 19.1387C155.212 19.209 155.25 19.2617 155.28 19.2969C155.309 19.3262 155.324 19.3584 155.324 19.3936C155.324 19.4287 155.268 19.4639 155.157 19.499L153.267 20.1143C153.126 20.167 152.983 20.2197 152.836 20.2725C152.69 20.3252 152.552 20.3721 152.423 20.4131C152.294 20.4541 152.18 20.4863 152.08 20.5098C151.987 20.5391 151.919 20.5537 151.878 20.5537H151.826C151.744 20.5537 151.685 20.5273 151.65 20.4746C151.615 20.4277 151.591 20.3809 151.579 20.334C151.521 20.1406 151.462 19.9678 151.404 19.8154C151.345 19.6572 151.287 19.502 151.228 19.3496L151.061 18.8486C151.008 18.6729 150.955 18.4648 150.903 18.2246C150.891 18.1953 150.859 18.1719 150.806 18.1543C150.753 18.1309 150.689 18.1133 150.613 18.1016C150.542 18.0898 150.466 18.084 150.384 18.084C150.302 18.0781 150.226 18.0752 150.156 18.0752C149.933 18.0752 149.751 18.0781 149.611 18.084C149.476 18.084 149.356 18.0869 149.25 18.0928C149.145 18.0928 149.042 18.0957 148.943 18.1016H148.591H148.064C147.888 18.0957 147.727 18.0898 147.58 18.084L147.079 18.0664C146.927 18.4883 146.775 18.8838 146.622 19.2529C146.47 19.6221 146.306 20.0029 146.13 20.3955C146.119 20.4424 146.089 20.4805 146.042 20.5098C146.001 20.5391 145.957 20.5537 145.911 20.5537C145.875 20.5537 145.855 20.5508 145.849 20.5449C145.281 20.3398 144.803 20.1377 144.416 19.9385C144.03 19.7393 143.693 19.5459 143.406 19.3584ZM149.329 11.457C149.189 11.9785 149.048 12.4531 148.908 12.8809C148.773 13.3027 148.647 13.6777 148.53 14.0059C148.418 14.334 148.322 14.6123 148.24 14.8408C148.158 15.0635 148.099 15.2363 148.064 15.3594V15.4385C148.064 15.4736 148.061 15.4971 148.055 15.5088H150.164C150.1 15.2217 150.03 14.9316 149.954 14.6387C149.883 14.3457 149.813 14.0381 149.743 13.7158C149.672 13.3936 149.602 13.0479 149.532 12.6787C149.461 12.3096 149.394 11.9023 149.329 11.457ZM157.12 20.2812L157.56 14.2695C157.706 12.2539 157.814 10.7744 157.885 9.83105C157.955 8.8877 157.99 8.41895 157.99 8.4248C157.996 8.31934 158.002 8.23145 158.008 8.16113C158.014 8.09082 158.025 8.03223 158.043 7.98535C158.061 7.93848 158.084 7.90332 158.113 7.87988C158.143 7.85645 158.187 7.83887 158.245 7.82715L161.286 7.09766C161.362 7.07422 161.441 7.0625 161.523 7.0625C161.605 7.0625 161.661 7.08887 161.69 7.1416C161.72 7.18848 161.734 7.28809 161.734 7.44043C161.693 7.80371 161.661 8.14355 161.638 8.45996C161.614 8.77637 161.594 9.07812 161.576 9.36523C161.564 9.65234 161.553 9.93066 161.541 10.2002C161.529 10.4639 161.515 10.7275 161.497 10.9912C161.462 11.2783 161.43 11.5654 161.4 11.8525C161.377 12.1396 161.354 12.4385 161.33 12.749C161.307 13.0537 161.28 13.3789 161.251 13.7246C161.228 14.0645 161.198 14.4365 161.163 14.8408L160.776 19.4727C160.771 19.5254 160.759 19.5781 160.741 19.6309C160.729 19.6777 160.691 19.7158 160.627 19.7451C160.621 19.7451 160.586 19.7568 160.521 19.7803C160.457 19.8037 160.372 19.8359 160.267 19.877C160.161 19.9121 160.038 19.9502 159.897 19.9912C159.757 20.0322 159.607 20.0703 159.449 20.1055C159.186 20.1641 158.954 20.2227 158.755 20.2812C158.562 20.3398 158.389 20.3926 158.236 20.4395C158.084 20.4922 157.943 20.5332 157.814 20.5625C157.686 20.5918 157.557 20.6064 157.428 20.6064C157.34 20.6064 157.267 20.583 157.208 20.5361C157.149 20.4893 157.12 20.4043 157.12 20.2812ZM168.453 19.2969C168.447 19.3496 168.435 19.4023 168.418 19.4551C168.406 19.502 168.368 19.54 168.303 19.5693C168.28 19.5811 168.163 19.625 167.952 19.7012C167.747 19.7715 167.506 19.8564 167.231 19.9561L166.422 20.2373C166.159 20.3369 165.957 20.4131 165.816 20.4658C165.746 20.4951 165.658 20.5244 165.552 20.5537C165.453 20.5889 165.353 20.6064 165.254 20.6064C165.171 20.6064 165.098 20.5859 165.034 20.5449C164.975 20.5039 164.946 20.4277 164.946 20.3164C164.946 20.0586 164.952 19.8242 164.963 19.6133C164.981 19.3965 165.002 19.1709 165.025 18.9365C165.048 18.7021 165.072 18.4443 165.095 18.1631C165.125 17.876 165.151 17.5361 165.174 17.1436C165.204 16.6279 165.236 16.1328 165.271 15.6582C165.306 15.1777 165.341 14.6797 165.377 14.1641L165.5 12.6611C165.517 12.415 165.535 12.166 165.552 11.9141C165.57 11.6562 165.587 11.3926 165.605 11.123L165.702 10.0508C165.702 10.0391 165.684 10.0332 165.649 10.0332C165.602 10.0332 165.523 10.0449 165.412 10.0684C165.3 10.0859 165.169 10.1094 165.016 10.1387C164.864 10.168 164.694 10.2002 164.506 10.2354C164.325 10.2646 164.137 10.2939 163.944 10.3232C163.897 10.3232 163.85 10.3145 163.803 10.2969C163.762 10.2734 163.742 10.2471 163.742 10.2178C163.742 10.1943 163.748 10.1768 163.759 10.165L165.183 7.67773C165.505 7.60742 165.851 7.53711 166.22 7.4668C166.595 7.39062 166.997 7.32324 167.424 7.26465C167.852 7.20605 168.306 7.15918 168.787 7.12402C169.267 7.08301 169.777 7.0625 170.316 7.0625C170.925 7.07422 171.517 7.13574 172.091 7.24707C172.671 7.35254 173.184 7.53418 173.629 7.79199C174.081 8.04395 174.441 8.38965 174.711 8.8291C174.986 9.2627 175.124 9.81348 175.124 10.4814C175.124 10.8506 175.059 11.1904 174.93 11.501C174.807 11.8115 174.646 12.0928 174.447 12.3447C174.254 12.5908 174.04 12.8105 173.805 13.0039C173.571 13.1914 173.345 13.3525 173.129 13.4873C172.918 13.6221 172.73 13.7305 172.566 13.8125C172.402 13.8887 172.291 13.9385 172.232 13.9619C172.232 13.9736 172.235 13.9883 172.241 14.0059C172.253 14.0234 172.273 14.0586 172.302 14.1113C172.332 14.1582 172.373 14.2285 172.425 14.3223C172.484 14.4102 172.557 14.5332 172.645 14.6914C172.739 14.832 172.85 15.0195 172.979 15.2539C173.108 15.4883 173.26 15.7666 173.436 16.0889C173.618 16.4053 173.826 16.7598 174.06 17.1523C174.295 17.5449 174.564 17.9668 174.869 18.418C174.968 18.5059 175.083 18.5615 175.212 18.585C175.34 18.6025 175.461 18.6143 175.572 18.6201C175.683 18.6201 175.777 18.626 175.853 18.6377C175.929 18.6436 175.967 18.6787 175.967 18.7432C175.967 18.79 175.918 18.8457 175.818 18.9102C175.724 18.9688 175.613 19.0303 175.484 19.0947C175.355 19.1592 175.223 19.2207 175.088 19.2793C174.96 19.3379 174.86 19.3848 174.79 19.4199C174.649 19.4902 174.503 19.5576 174.35 19.6221C174.198 19.6865 174.034 19.7598 173.858 19.8418C173.682 19.918 173.486 20.0088 173.269 20.1143C173.058 20.2197 172.818 20.3457 172.548 20.4922C172.478 20.5332 172.411 20.5596 172.346 20.5713C172.288 20.5889 172.232 20.5977 172.179 20.5977C172.074 20.5977 171.983 20.5713 171.907 20.5186C171.831 20.4717 171.766 20.4131 171.713 20.3428C171.661 20.2725 171.617 20.1992 171.582 20.123C171.552 20.0527 171.526 19.9941 171.503 19.9473L168.883 14.4277L168.453 19.2969ZM168.989 13.3467C169.288 13.3467 169.598 13.2705 169.921 13.1182C170.243 12.9658 170.536 12.7695 170.799 12.5293C171.063 12.2891 171.28 12.0166 171.45 11.7119C171.62 11.4072 171.705 11.0996 171.705 10.7891C171.705 9.93945 171.195 9.51465 170.175 9.51465C169.982 9.51465 169.821 9.5293 169.692 9.55859C169.563 9.58203 169.446 9.59961 169.34 9.61133L168.989 13.3467ZM186.289 12.7754C186.266 12.8633 186.222 12.9893 186.157 13.1533C186.093 13.3174 186.02 13.5049 185.938 13.7158C185.856 13.9209 185.765 14.1406 185.665 14.375C185.566 14.6035 185.469 14.8291 185.375 15.0518C185.334 15.1514 185.284 15.2246 185.226 15.2715C185.173 15.3184 185.062 15.3447 184.892 15.3506L182.325 15.3945L182.009 19.2969C182.003 19.3496 181.988 19.4023 181.965 19.4551C181.942 19.502 181.906 19.54 181.86 19.5693C181.842 19.5811 181.772 19.6162 181.649 19.6748C181.531 19.7275 181.382 19.792 181.2 19.8682C181.019 19.9443 180.82 20.0264 180.603 20.1143C180.386 20.2021 180.172 20.2812 179.961 20.3516C179.75 20.4277 179.557 20.4893 179.381 20.5361C179.205 20.5889 179.068 20.6152 178.968 20.6152C178.851 20.6152 178.742 20.5918 178.643 20.5449C178.549 20.5039 178.502 20.416 178.502 20.2812C178.496 19.9883 178.502 19.666 178.52 19.3145C178.543 18.957 178.57 18.5967 178.599 18.2334C178.628 17.8643 178.66 17.5039 178.696 17.1523C178.731 16.7949 178.76 16.4697 178.783 16.1768L178.845 15.4385C178.353 15.4385 178.001 15.4268 177.79 15.4033C177.579 15.374 177.474 15.3037 177.474 15.1924C177.474 15.1162 177.518 15.0166 177.606 14.8936C177.729 14.7236 177.866 14.5186 178.019 14.2783C178.177 14.0381 178.326 13.8037 178.467 13.5752C178.613 13.3467 178.739 13.1445 178.845 12.9688C178.956 12.793 179.027 12.6846 179.056 12.6436L179.223 10.2266C179.112 10.2266 179.015 10.2295 178.933 10.2354C178.851 10.2354 178.775 10.2383 178.704 10.2441C178.64 10.2441 178.578 10.2471 178.52 10.2529H178.335C178.054 10.2529 177.852 10.2383 177.729 10.209C177.612 10.1738 177.553 10.1123 177.553 10.0244C177.553 9.9834 177.588 9.89844 177.658 9.76953C177.729 9.64062 177.814 9.49414 177.913 9.33008C178.019 9.16016 178.13 8.98438 178.247 8.80273C178.37 8.61523 178.479 8.44238 178.572 8.28418L179.1 7.3877L183.099 7.24707C183.614 7.22949 184.127 7.21191 184.637 7.19434C185.147 7.1709 185.615 7.15039 186.043 7.13281C186.477 7.11523 186.849 7.10059 187.159 7.08887C187.47 7.07129 187.687 7.05957 187.81 7.05371C187.816 7.05371 187.83 7.05664 187.854 7.0625C187.883 7.0625 187.912 7.07129 187.942 7.08887C187.971 7.10059 187.997 7.12402 188.021 7.15918C188.05 7.19434 188.065 7.24414 188.065 7.30859C188.065 7.34375 188.024 7.46094 187.942 7.66016C187.86 7.85938 187.742 8.15527 187.59 8.54785L187.203 9.56738C187.162 9.66699 187.115 9.74316 187.063 9.7959C187.01 9.84863 186.899 9.87793 186.729 9.88379C186.529 9.88965 186.327 9.89844 186.122 9.91016C185.917 9.92188 185.706 9.93359 185.489 9.94531L182.818 10.0771C182.782 10.3057 182.756 10.4756 182.738 10.5869C182.727 10.6982 182.718 10.792 182.712 10.8682V11.0879C182.712 11.1582 182.709 11.2725 182.703 11.4307C182.697 11.542 182.689 11.6357 182.677 11.7119C182.671 11.7881 182.662 11.8643 182.651 11.9404C182.645 12.0107 182.636 12.0869 182.624 12.1689C182.618 12.251 182.613 12.3535 182.607 12.4766C182.993 12.4648 183.371 12.4531 183.74 12.4414C184.115 12.4297 184.458 12.418 184.769 12.4062C185.085 12.3945 185.358 12.3857 185.586 12.3799C185.815 12.3682 185.976 12.3623 186.07 12.3623C186.116 12.3623 186.169 12.3799 186.228 12.415C186.286 12.4502 186.316 12.5176 186.316 12.6172C186.316 12.6641 186.307 12.7168 186.289 12.7754ZM187.646 19.3584C187.722 19.2061 187.802 19.0361 187.884 18.8486C187.966 18.6553 188.042 18.4473 188.112 18.2246L188.349 17.6445C188.244 17.4863 188.136 17.3164 188.024 17.1348C187.919 16.9473 187.822 16.7568 187.734 16.5635C187.646 16.3701 187.573 16.1768 187.514 15.9834C187.462 15.79 187.435 15.6025 187.435 15.4209C187.435 15.4092 187.479 15.4004 187.567 15.3945C187.661 15.3828 187.775 15.374 187.91 15.3682C188.051 15.3623 188.2 15.3594 188.358 15.3594C188.522 15.3535 188.672 15.3506 188.806 15.3506C188.947 15.3447 189.061 15.3418 189.149 15.3418L189.29 15.333C189.425 14.9814 189.556 14.6475 189.685 14.3311C189.814 14.0146 189.943 13.6953 190.072 13.373C190.201 13.0508 190.33 12.7227 190.459 12.3887C190.588 12.0488 190.717 11.6855 190.846 11.2988C191.092 10.5723 191.332 9.93359 191.566 9.38281C191.801 8.83203 192.02 8.31934 192.225 7.84473C192.249 7.78613 192.287 7.7334 192.34 7.68652C192.398 7.63379 192.46 7.58984 192.524 7.55469C192.589 7.51953 192.65 7.49023 192.709 7.4668C192.773 7.44336 192.823 7.42578 192.858 7.41406C192.882 7.4082 192.97 7.38184 193.122 7.33496C193.28 7.28809 193.459 7.23828 193.658 7.18555C193.857 7.13281 194.054 7.08594 194.247 7.04492C194.446 7.00391 194.604 6.9834 194.721 6.9834H194.88C194.973 6.9834 195.061 7.00684 195.143 7.05371C195.231 7.09473 195.29 7.17969 195.319 7.30859C195.6 8.0293 195.899 8.81738 196.216 9.67285C196.538 10.5225 196.851 11.46 197.156 12.4854C197.32 13.0361 197.481 13.5576 197.639 14.0498C197.798 14.542 197.956 15.0225 198.114 15.4912L198.589 16.8975C198.753 17.3662 198.92 17.8496 199.09 18.3477C199.142 18.5586 199.195 18.7256 199.248 18.8486C199.306 18.9717 199.359 19.0684 199.406 19.1387C199.453 19.209 199.491 19.2617 199.52 19.2969C199.55 19.3262 199.564 19.3584 199.564 19.3936C199.564 19.4287 199.509 19.4639 199.397 19.499L197.508 20.1143C197.367 20.167 197.223 20.2197 197.077 20.2725C196.93 20.3252 196.793 20.3721 196.664 20.4131C196.535 20.4541 196.421 20.4863 196.321 20.5098C196.227 20.5391 196.16 20.5537 196.119 20.5537H196.066C195.984 20.5537 195.926 20.5273 195.89 20.4746C195.855 20.4277 195.832 20.3809 195.82 20.334C195.762 20.1406 195.703 19.9678 195.644 19.8154C195.586 19.6572 195.527 19.502 195.469 19.3496L195.302 18.8486C195.249 18.6729 195.196 18.4648 195.143 18.2246C195.132 18.1953 195.099 18.1719 195.047 18.1543C194.994 18.1309 194.929 18.1133 194.853 18.1016C194.783 18.0898 194.707 18.084 194.625 18.084C194.543 18.0781 194.467 18.0752 194.396 18.0752C194.174 18.0752 193.992 18.0781 193.851 18.084C193.717 18.084 193.596 18.0869 193.491 18.0928C193.386 18.0928 193.283 18.0957 193.183 18.1016H192.832H192.304C192.129 18.0957 191.968 18.0898 191.821 18.084L191.32 18.0664C191.168 18.4883 191.015 18.8838 190.863 19.2529C190.711 19.6221 190.547 20.0029 190.371 20.3955C190.359 20.4424 190.33 20.4805 190.283 20.5098C190.242 20.5391 190.198 20.5537 190.151 20.5537C190.116 20.5537 190.096 20.5508 190.09 20.5449C189.521 20.3398 189.044 20.1377 188.657 19.9385C188.27 19.7393 187.933 19.5459 187.646 19.3584ZM193.57 11.457C193.429 11.9785 193.289 12.4531 193.148 12.8809C193.013 13.3027 192.887 13.6777 192.77 14.0059C192.659 14.334 192.562 14.6123 192.48 14.8408C192.398 15.0635 192.34 15.2363 192.304 15.3594V15.4385C192.304 15.4736 192.302 15.4971 192.296 15.5088H194.405C194.341 15.2217 194.27 14.9316 194.194 14.6387C194.124 14.3457 194.054 14.0381 193.983 13.7158C193.913 13.3936 193.843 13.0479 193.772 12.6787C193.702 12.3096 193.635 11.9023 193.57 11.457ZM205.377 19.2969C205.371 19.3496 205.36 19.4023 205.342 19.4551C205.33 19.502 205.292 19.54 205.228 19.5693C205.204 19.5811 205.087 19.625 204.876 19.7012C204.671 19.7715 204.431 19.8564 204.156 19.9561L203.347 20.2373C203.083 20.3369 202.881 20.4131 202.741 20.4658C202.67 20.4951 202.582 20.5244 202.477 20.5537C202.377 20.5889 202.278 20.6064 202.178 20.6064C202.096 20.6064 202.023 20.5859 201.958 20.5449C201.9 20.5039 201.871 20.4277 201.871 20.3164C201.871 20.0586 201.876 19.8242 201.888 19.6133C201.906 19.3965 201.926 19.1709 201.95 18.9365C201.973 18.7021 201.996 18.4443 202.02 18.1631C202.049 17.876 202.076 17.5361 202.099 17.1436C202.128 16.6279 202.161 16.1328 202.196 15.6582C202.231 15.1777 202.266 14.6797 202.301 14.1641L202.424 12.6611C202.442 12.415 202.459 12.166 202.477 11.9141C202.495 11.6562 202.512 11.3926 202.53 11.123L202.626 10.0508C202.626 10.0391 202.609 10.0332 202.574 10.0332C202.527 10.0332 202.448 10.0449 202.336 10.0684C202.225 10.0859 202.093 10.1094 201.941 10.1387C201.788 10.168 201.619 10.2002 201.431 10.2354C201.249 10.2646 201.062 10.2939 200.869 10.3232C200.822 10.3232 200.775 10.3145 200.728 10.2969C200.687 10.2734 200.666 10.2471 200.666 10.2178C200.666 10.1943 200.672 10.1768 200.684 10.165L202.108 7.67773C202.43 7.60742 202.776 7.53711 203.145 7.4668C203.52 7.39062 203.921 7.32324 204.349 7.26465C204.777 7.20605 205.231 7.15918 205.711 7.12402C206.192 7.08301 206.702 7.0625 207.241 7.0625C207.85 7.07422 208.442 7.13574 209.016 7.24707C209.596 7.35254 210.109 7.53418 210.554 7.79199C211.005 8.04395 211.366 8.38965 211.635 8.8291C211.911 9.2627 212.048 9.81348 212.048 10.4814C212.048 10.8506 211.984 11.1904 211.855 11.501C211.732 11.8115 211.571 12.0928 211.371 12.3447C211.178 12.5908 210.964 12.8105 210.73 13.0039C210.496 13.1914 210.27 13.3525 210.053 13.4873C209.842 13.6221 209.655 13.7305 209.491 13.8125C209.327 13.8887 209.215 13.9385 209.157 13.9619C209.157 13.9736 209.16 13.9883 209.165 14.0059C209.177 14.0234 209.198 14.0586 209.227 14.1113C209.256 14.1582 209.297 14.2285 209.35 14.3223C209.409 14.4102 209.482 14.5332 209.57 14.6914C209.663 14.832 209.775 15.0195 209.904 15.2539C210.033 15.4883 210.185 15.7666 210.361 16.0889C210.542 16.4053 210.75 16.7598 210.985 17.1523C211.219 17.5449 211.489 17.9668 211.793 18.418C211.893 18.5059 212.007 18.5615 212.136 18.585C212.265 18.6025 212.385 18.6143 212.496 18.6201C212.608 18.6201 212.702 18.626 212.778 18.6377C212.854 18.6436 212.892 18.6787 212.892 18.7432C212.892 18.79 212.842 18.8457 212.743 18.9102C212.649 18.9688 212.538 19.0303 212.409 19.0947C212.28 19.1592 212.148 19.2207 212.013 19.2793C211.884 19.3379 211.785 19.3848 211.714 19.4199C211.574 19.4902 211.427 19.5576 211.275 19.6221C211.122 19.6865 210.958 19.7598 210.783 19.8418C210.607 19.918 210.411 20.0088 210.194 20.1143C209.983 20.2197 209.743 20.3457 209.473 20.4922C209.403 20.5332 209.335 20.5596 209.271 20.5713C209.212 20.5889 209.157 20.5977 209.104 20.5977C208.998 20.5977 208.908 20.5713 208.831 20.5186C208.755 20.4717 208.691 20.4131 208.638 20.3428C208.585 20.2725 208.541 20.1992 208.506 20.123C208.477 20.0527 208.451 19.9941 208.427 19.9473L205.808 14.4277L205.377 19.2969ZM205.913 13.3467C206.212 13.3467 206.523 13.2705 206.845 13.1182C207.167 12.9658 207.46 12.7695 207.724 12.5293C207.988 12.2891 208.204 12.0166 208.374 11.7119C208.544 11.4072 208.629 11.0996 208.629 10.7891C208.629 9.93945 208.12 9.51465 207.1 9.51465C206.907 9.51465 206.746 9.5293 206.617 9.55859C206.488 9.58203 206.371 9.59961 206.265 9.61133L205.913 13.3467ZM222.44 12.7051C222.417 12.7871 222.373 12.9043 222.309 13.0566C222.244 13.2031 222.168 13.3701 222.08 13.5576C221.998 13.7451 221.907 13.9473 221.808 14.1641C221.714 14.375 221.62 14.5889 221.526 14.8057C221.491 14.8877 221.459 14.9492 221.43 14.9902C221.4 15.0254 221.354 15.0518 221.289 15.0693C221.225 15.0869 221.134 15.0986 221.017 15.1045C220.905 15.1045 220.747 15.1074 220.542 15.1133L219.32 15.1396L219.074 17.8291H223.583V18.1719C223.571 18.1836 223.521 18.2627 223.434 18.4092C223.346 18.5498 223.243 18.7197 223.126 18.9189C223.009 19.1182 222.886 19.3203 222.757 19.5254C222.628 19.7246 222.52 19.8857 222.432 20.0088C222.373 20.1143 222.306 20.1963 222.229 20.2549C222.153 20.3193 222.068 20.3662 221.975 20.3955C221.887 20.4248 221.787 20.4424 221.676 20.4482C221.57 20.4541 221.453 20.457 221.324 20.457C220.797 20.457 220.246 20.4453 219.672 20.4219C219.104 20.3984 218.535 20.3691 217.967 20.334C217.398 20.2988 216.842 20.2578 216.297 20.2109C215.758 20.1699 215.257 20.126 214.794 20.0791C214.753 20.0732 214.715 20.0498 214.68 20.0088C214.65 19.9678 214.636 19.9209 214.636 19.8682C214.612 19.8682 214.627 19.8184 214.68 19.7188C214.738 19.6191 214.817 19.4902 214.917 19.332C215.017 19.1738 215.125 18.9951 215.242 18.7959C215.365 18.5908 215.482 18.3857 215.594 18.1807L215.734 16.2031C215.758 15.8691 215.775 15.6201 215.787 15.4561C215.805 15.292 215.813 15.2041 215.813 15.1924C215.462 15.1865 215.198 15.1689 215.022 15.1396C214.853 15.1104 214.768 15.0459 214.768 14.9463C214.768 14.8994 214.809 14.8115 214.891 14.6826C214.979 14.5537 215.084 14.4072 215.207 14.2432C215.33 14.0732 215.459 13.8975 215.594 13.7158C215.734 13.5342 215.857 13.3672 215.963 13.2148L216.183 10.2266H216.156C216.027 10.2324 215.91 10.2383 215.805 10.2441H215.515C215.233 10.2441 215.031 10.2295 214.908 10.2002C214.791 10.165 214.732 10.1035 214.732 10.0156C214.732 9.97461 214.768 9.88965 214.838 9.76074C214.908 9.63184 214.996 9.48535 215.102 9.32129C215.207 9.15137 215.318 8.97559 215.436 8.79395C215.553 8.60645 215.658 8.43359 215.752 8.27539L216.279 7.37891H219.953L224.286 7.0625C224.292 7.0625 224.307 7.06543 224.33 7.07129C224.359 7.07129 224.389 7.08008 224.418 7.09766C224.447 7.10938 224.474 7.13281 224.497 7.16797C224.526 7.20312 224.541 7.25293 224.541 7.31738L224.409 7.77441C224.368 7.90332 224.318 8.04102 224.26 8.1875C224.201 8.32812 224.137 8.47461 224.066 8.62695L223.68 9.64648C223.639 9.74609 223.592 9.82227 223.539 9.875C223.486 9.92773 223.375 9.95703 223.205 9.96289C222.76 9.97461 222.262 9.99512 221.711 10.0244C221.166 10.0479 220.539 10.0713 219.83 10.0947C219.807 10.1768 219.795 10.2441 219.795 10.2969C219.795 10.3438 219.789 10.4375 219.777 10.5781L219.733 10.9824C219.722 11.1699 219.704 11.3721 219.681 11.5889C219.657 11.8057 219.628 12.0723 219.593 12.3887C219.892 12.377 220.182 12.3652 220.463 12.3535C220.75 12.3418 221.011 12.333 221.245 12.3271C221.479 12.3154 221.682 12.3066 221.852 12.3008C222.027 12.2949 222.15 12.292 222.221 12.292C222.268 12.292 222.32 12.3096 222.379 12.3447C222.438 12.3799 222.467 12.4473 222.467 12.5469C222.467 12.5938 222.458 12.6465 222.44 12.7051ZM131.12 24.664L131.03 24.655C130.898 24.655 130.781 24.676 130.679 24.718C130.577 24.76 130.523 24.817 130.517 24.889C130.517 24.955 130.496 25.105 130.454 25.339C130.412 25.567 130.379 25.798 130.355 26.032C130.331 26.26 130.256 26.893 130.13 27.931C130.004 28.963 129.926 29.632 129.896 29.938C129.872 30.238 129.848 30.451 129.824 30.577C129.806 30.703 129.797 30.799 129.797 30.865C129.803 30.931 129.821 30.973 129.851 30.991C129.881 31.009 129.971 31.015 130.121 31.009C130.271 31.003 130.373 30.976 130.427 30.928C130.487 30.874 130.526 30.733 130.544 30.505L130.67 29.065C130.7 28.723 130.757 28.138 130.841 27.31C130.931 26.476 130.976 26.044 130.976 26.014C131.006 26.08 131.186 26.434 131.516 27.076C131.846 27.718 132.155 28.33 132.443 28.912C132.737 29.488 132.908 29.833 132.956 29.947C133.004 30.061 133.07 30.187 133.154 30.325C133.244 30.457 133.313 30.523 133.361 30.523C133.409 30.523 133.493 30.436 133.613 30.262C133.733 30.082 133.88 29.845 134.054 29.551C134.228 29.251 134.369 29.014 134.477 28.84C134.591 28.666 134.849 28.228 135.251 27.526C135.659 26.818 135.914 26.38 136.016 26.212C136.034 26.368 136.091 27.079 136.187 28.345C136.289 29.611 136.34 30.283 136.34 30.361C136.352 30.799 136.448 31.018 136.628 31.018C136.958 31.012 137.147 30.991 137.195 30.955C137.243 30.919 137.267 30.835 137.267 30.703C137.267 30.565 137.186 29.704 137.024 28.12C136.892 26.872 136.82 26.203 136.808 26.113C136.802 26.017 136.787 25.801 136.763 25.465C136.739 25.129 136.706 24.889 136.664 24.745C136.628 24.703 136.541 24.685 136.403 24.691C136.265 24.691 136.169 24.709 136.115 24.745L135.845 25.24C135.647 25.576 135.332 26.125 134.9 26.887C134.474 27.643 134.198 28.126 134.072 28.336C133.946 28.546 133.868 28.678 133.838 28.732C133.808 28.786 133.781 28.834 133.757 28.876C133.733 28.912 133.703 28.954 133.667 29.002C133.637 29.044 133.607 29.08 133.577 29.11C133.553 29.134 133.529 29.146 133.505 29.146C133.481 29.146 133.43 29.071 133.352 28.921C133.274 28.771 133.184 28.591 133.082 28.381C132.98 28.171 132.875 27.952 132.767 27.724C132.659 27.49 132.506 27.199 132.308 26.851C131.72 25.717 131.366 25.042 131.246 24.826C131.234 24.802 131.225 24.787 131.219 24.781C131.219 24.769 131.213 24.754 131.201 24.736C131.189 24.718 131.18 24.709 131.174 24.709L131.147 24.682C131.135 24.67 131.126 24.664 131.12 24.664ZM143.75 27.913C143.702 27.949 143.678 28.057 143.678 28.237L143.669 29.515L143.66 30.1C143.66 30.196 143.507 30.292 143.201 30.388C142.901 30.484 142.58 30.532 142.238 30.532C141.458 30.532 140.801 30.28 140.267 29.776C139.739 29.272 139.475 28.654 139.475 27.922C139.475 27.52 139.538 27.157 139.664 26.833C139.796 26.509 139.964 26.248 140.168 26.05C140.378 25.852 140.573 25.699 140.753 25.591C140.933 25.483 141.125 25.396 141.329 25.33C141.539 25.258 141.83 25.222 142.202 25.222C142.574 25.222 142.925 25.267 143.255 25.357L143.39 25.402C143.474 25.426 143.543 25.438 143.597 25.438C143.651 25.438 143.693 25.396 143.723 25.312C143.753 25.222 143.768 25.147 143.768 25.087V24.97C143.738 24.868 143.537 24.781 143.165 24.709C142.799 24.631 142.469 24.592 142.175 24.592C141.503 24.592 140.891 24.718 140.339 24.97C139.787 25.216 139.337 25.606 138.989 26.14C138.641 26.668 138.467 27.277 138.467 27.967C138.467 28.651 138.632 29.233 138.962 29.713C139.292 30.193 139.712 30.547 140.222 30.775C140.738 31.003 141.305 31.117 141.923 31.117C142.247 31.117 142.577 31.072 142.913 30.982C143.255 30.886 143.525 30.781 143.723 30.667C143.891 30.757 144.062 30.802 144.236 30.802C144.41 30.802 144.512 30.793 144.542 30.775C144.572 30.751 144.587 30.271 144.587 29.335C144.587 28.393 144.572 27.91 144.542 27.886C144.518 27.862 144.392 27.85 144.164 27.85C143.936 27.85 143.798 27.871 143.75 27.913ZM147.239 24.664L147.149 24.655C147.017 24.655 146.9 24.676 146.798 24.718C146.696 24.76 146.642 24.817 146.636 24.889C146.636 24.955 146.615 25.105 146.573 25.339C146.531 25.567 146.498 25.798 146.474 26.032C146.45 26.26 146.375 26.893 146.249 27.931C146.123 28.963 146.045 29.632 146.015 29.938C145.991 30.238 145.967 30.451 145.943 30.577C145.925 30.703 145.916 30.799 145.916 30.865C145.922 30.931 145.94 30.973 145.97 30.991C146 31.009 146.09 31.015 146.24 31.009C146.39 31.003 146.492 30.976 146.546 30.928C146.606 30.874 146.645 30.733 146.663 30.505L146.789 29.065C146.819 28.723 146.876 28.138 146.96 27.31C147.05 26.476 147.095 26.044 147.095 26.014C147.125 26.08 147.305 26.434 147.635 27.076C147.965 27.718 148.274 28.33 148.562 28.912C148.856 29.488 149.027 29.833 149.075 29.947C149.123 30.061 149.189 30.187 149.273 30.325C149.363 30.457 149.432 30.523 149.48 30.523C149.528 30.523 149.612 30.436 149.732 30.262C149.852 30.082 149.999 29.845 150.173 29.551C150.347 29.251 150.488 29.014 150.596 28.84C150.71 28.666 150.968 28.228 151.37 27.526C151.778 26.818 152.033 26.38 152.135 26.212C152.153 26.368 152.21 27.079 152.306 28.345C152.408 29.611 152.459 30.283 152.459 30.361C152.471 30.799 152.567 31.018 152.747 31.018C153.077 31.012 153.266 30.991 153.314 30.955C153.362 30.919 153.386 30.835 153.386 30.703C153.386 30.565 153.305 29.704 153.143 28.12C153.011 26.872 152.939 26.203 152.927 26.113C152.921 26.017 152.906 25.801 152.882 25.465C152.858 25.129 152.825 24.889 152.783 24.745C152.747 24.703 152.66 24.685 152.522 24.691C152.384 24.691 152.288 24.709 152.234 24.745L151.964 25.24C151.766 25.576 151.451 26.125 151.019 26.887C150.593 27.643 150.317 28.126 150.191 28.336C150.065 28.546 149.987 28.678 149.957 28.732C149.927 28.786 149.9 28.834 149.876 28.876C149.852 28.912 149.822 28.954 149.786 29.002C149.756 29.044 149.726 29.08 149.696 29.11C149.672 29.134 149.648 29.146 149.624 29.146C149.6 29.146 149.549 29.071 149.471 28.921C149.393 28.771 149.303 28.591 149.201 28.381C149.099 28.171 148.994 27.952 148.886 27.724C148.778 27.49 148.625 27.199 148.427 26.851C147.839 25.717 147.485 25.042 147.365 24.826C147.353 24.802 147.344 24.787 147.338 24.781C147.338 24.769 147.332 24.754 147.32 24.736C147.308 24.718 147.299 24.709 147.293 24.709L147.266 24.682C147.254 24.67 147.245 24.664 147.239 24.664ZM156.447 27.031L156.429 28.561L156.42 29.497V29.839C156.426 29.953 156.429 30.112 156.429 30.316C156.435 30.514 156.444 30.667 156.456 30.775C156.474 30.877 156.498 30.94 156.528 30.964C156.558 30.988 156.624 31 156.726 31C156.828 31 156.906 30.997 156.96 30.991C157.014 30.985 157.059 30.982 157.095 30.982C157.137 30.976 157.17 30.964 157.194 30.946C157.218 30.922 157.236 30.907 157.248 30.901C157.266 30.889 157.278 30.862 157.284 30.82C157.296 30.778 157.302 30.751 157.302 30.739C157.308 30.721 157.311 30.679 157.311 30.613C157.317 30.541 157.326 30.388 157.338 30.154C157.356 29.914 157.365 29.392 157.365 28.588V27.274L157.374 25.645C157.374 25.543 157.383 25.477 157.401 25.447C157.419 25.411 157.473 25.393 157.563 25.393C158.031 25.393 158.373 25.387 158.589 25.375C158.811 25.357 159.063 25.348 159.345 25.348H159.768C160.026 25.348 160.176 25.327 160.218 25.285C160.278 25.237 160.308 25.108 160.308 24.898C160.308 24.856 160.305 24.823 160.299 24.799C160.269 24.727 160.197 24.691 160.083 24.691H159.948L159.57 24.7L157.869 24.709L156.06 24.7C155.328 24.7 154.881 24.706 154.719 24.718C154.563 24.73 154.443 24.736 154.359 24.736C154.281 24.73 154.212 24.73 154.152 24.736C154.098 24.742 154.053 24.76 154.017 24.79C153.987 24.82 153.963 24.868 153.945 24.934C153.927 24.994 153.918 25.081 153.918 25.195C153.918 25.303 153.975 25.366 154.089 25.384C154.137 25.396 154.182 25.405 154.224 25.411C154.272 25.411 154.329 25.408 154.395 25.402C154.461 25.396 154.503 25.393 154.521 25.393L155.781 25.384C156.219 25.378 156.45 25.393 156.474 25.429C156.486 25.477 156.483 25.606 156.465 25.816C156.453 26.026 156.447 26.209 156.447 26.365V27.031ZM165.271 25.222C165.553 25.222 165.793 25.255 165.991 25.321C166.057 25.291 166.108 25.225 166.144 25.123C166.18 25.015 166.198 24.934 166.198 24.88C166.198 24.826 166.189 24.778 166.171 24.736C166.159 24.694 166.051 24.661 165.847 24.637C165.649 24.607 165.49 24.592 165.37 24.592C164.818 24.592 164.335 24.745 163.921 25.051C163.513 25.357 163.309 25.747 163.309 26.221C163.309 26.533 163.387 26.821 163.543 27.085C163.699 27.343 163.885 27.559 164.101 27.733C164.323 27.907 164.545 28.075 164.767 28.237C165.295 28.627 165.559 29.008 165.559 29.38C165.559 30.094 164.935 30.451 163.687 30.451C163.429 30.451 163.177 30.412 162.931 30.334C162.817 30.406 162.76 30.601 162.76 30.919C162.76 30.967 162.832 31.003 162.976 31.027C163.042 31.039 163.105 31.048 163.165 31.054C163.225 31.06 163.309 31.069 163.417 31.081C163.531 31.099 163.66 31.108 163.804 31.108C164.842 31.108 165.586 30.838 166.036 30.298C166.312 29.962 166.45 29.629 166.45 29.299C166.45 28.969 166.372 28.672 166.216 28.408C166.06 28.144 165.871 27.925 165.649 27.751C165.433 27.571 165.214 27.403 164.992 27.247C164.77 27.085 164.581 26.908 164.425 26.716C164.269 26.524 164.191 26.299 164.191 26.041C164.191 25.777 164.302 25.576 164.524 25.438C164.746 25.294 164.995 25.222 165.271 25.222ZM169.638 27.895L169.62 28.822L169.602 30.226L169.575 30.784C169.575 30.856 169.596 30.91 169.638 30.946C169.686 30.976 169.734 30.994 169.782 31H170.097C170.259 31 170.37 30.97 170.43 30.91C170.472 30.868 170.502 30.82 170.52 30.766C170.544 30.712 170.556 30.565 170.556 30.325L170.538 29.533V27.85C170.538 27.748 171 27.214 171.924 26.248C172.374 25.768 172.668 25.444 172.806 25.276C172.854 25.216 172.899 25.165 172.941 25.123C172.989 25.075 173.025 25.036 173.049 25.006C173.073 24.97 173.082 24.937 173.076 24.907C173.076 24.877 173.025 24.817 172.923 24.727C172.821 24.637 172.743 24.592 172.689 24.592C172.641 24.592 172.476 24.748 172.194 25.06C171.912 25.366 171.699 25.606 171.555 25.78C171.417 25.954 171.174 26.23 170.826 26.608C170.478 26.986 170.286 27.175 170.25 27.175C170.214 27.175 170.142 27.109 170.034 26.977C169.98 26.911 169.935 26.86 169.899 26.824C169.869 26.788 169.56 26.473 168.972 25.879C168.39 25.279 168.075 24.952 168.027 24.898C167.859 24.694 167.73 24.592 167.64 24.592C167.562 24.604 167.445 24.676 167.289 24.808C167.133 24.934 167.055 25.021 167.055 25.069C167.055 25.075 167.058 25.081 167.064 25.087C167.064 25.159 167.172 25.306 167.388 25.528C167.49 25.642 167.583 25.741 167.667 25.825C167.751 25.903 167.862 26.008 168 26.14C168.138 26.272 168.225 26.359 168.261 26.401C168.297 26.437 168.489 26.62 168.837 26.95C169.185 27.28 169.377 27.46 169.413 27.49C169.425 27.496 169.44 27.511 169.458 27.535C169.482 27.553 169.497 27.568 169.503 27.58C169.515 27.592 169.527 27.607 169.539 27.625C169.557 27.643 169.569 27.658 169.575 27.67C169.581 27.682 169.593 27.703 169.611 27.733C169.629 27.763 169.638 27.817 169.638 27.895ZM175.527 25.222C175.809 25.222 176.049 25.255 176.247 25.321C176.313 25.291 176.364 25.225 176.4 25.123C176.436 25.015 176.454 24.934 176.454 24.88C176.454 24.826 176.445 24.778 176.427 24.736C176.415 24.694 176.307 24.661 176.103 24.637C175.905 24.607 175.746 24.592 175.626 24.592C175.074 24.592 174.591 24.745 174.177 25.051C173.769 25.357 173.565 25.747 173.565 26.221C173.565 26.533 173.643 26.821 173.799 27.085C173.955 27.343 174.141 27.559 174.357 27.733C174.579 27.907 174.801 28.075 175.023 28.237C175.551 28.627 175.815 29.008 175.815 29.38C175.815 30.094 175.191 30.451 173.943 30.451C173.685 30.451 173.433 30.412 173.187 30.334C173.073 30.406 173.016 30.601 173.016 30.919C173.016 30.967 173.088 31.003 173.232 31.027C173.298 31.039 173.361 31.048 173.421 31.054C173.481 31.06 173.565 31.069 173.673 31.081C173.787 31.099 173.916 31.108 174.06 31.108C175.098 31.108 175.842 30.838 176.292 30.298C176.568 29.962 176.706 29.629 176.706 29.299C176.706 28.969 176.628 28.672 176.472 28.408C176.316 28.144 176.127 27.925 175.905 27.751C175.689 27.571 175.47 27.403 175.248 27.247C175.026 27.085 174.837 26.908 174.681 26.716C174.525 26.524 174.447 26.299 174.447 26.041C174.447 25.777 174.558 25.576 174.78 25.438C175.002 25.294 175.251 25.222 175.527 25.222ZM179.931 27.031L179.913 28.561L179.904 29.497V29.839C179.91 29.953 179.913 30.112 179.913 30.316C179.919 30.514 179.928 30.667 179.94 30.775C179.958 30.877 179.982 30.94 180.012 30.964C180.042 30.988 180.108 31 180.21 31C180.312 31 180.39 30.997 180.444 30.991C180.498 30.985 180.543 30.982 180.579 30.982C180.621 30.976 180.654 30.964 180.678 30.946C180.702 30.922 180.72 30.907 180.732 30.901C180.75 30.889 180.762 30.862 180.768 30.82C180.78 30.778 180.786 30.751 180.786 30.739C180.792 30.721 180.795 30.679 180.795 30.613C180.801 30.541 180.81 30.388 180.822 30.154C180.84 29.914 180.849 29.392 180.849 28.588V27.274L180.858 25.645C180.858 25.543 180.867 25.477 180.885 25.447C180.903 25.411 180.957 25.393 181.047 25.393C181.515 25.393 181.857 25.387 182.073 25.375C182.295 25.357 182.547 25.348 182.829 25.348H183.252C183.51 25.348 183.66 25.327 183.702 25.285C183.762 25.237 183.792 25.108 183.792 24.898C183.792 24.856 183.789 24.823 183.783 24.799C183.753 24.727 183.681 24.691 183.567 24.691H183.432L183.054 24.7L181.353 24.709L179.544 24.7C178.812 24.7 178.365 24.706 178.203 24.718C178.047 24.73 177.927 24.736 177.843 24.736C177.765 24.73 177.696 24.73 177.636 24.736C177.582 24.742 177.537 24.76 177.501 24.79C177.471 24.82 177.447 24.868 177.429 24.934C177.411 24.994 177.402 25.081 177.402 25.195C177.402 25.303 177.459 25.366 177.573 25.384C177.621 25.396 177.666 25.405 177.708 25.411C177.756 25.411 177.813 25.408 177.879 25.402C177.945 25.396 177.987 25.393 178.005 25.393L179.265 25.384C179.703 25.378 179.934 25.393 179.958 25.429C179.97 25.477 179.967 25.606 179.949 25.816C179.937 26.026 179.931 26.209 179.931 26.365V27.031ZM186.91 25.348L188.017 25.366C188.119 25.366 188.179 25.348 188.197 25.312C188.209 25.294 188.215 25.276 188.215 25.258C188.221 25.24 188.224 25.213 188.224 25.177C188.224 25.135 188.227 25.099 188.233 25.069L188.269 24.853C188.269 24.823 188.254 24.793 188.224 24.763C188.194 24.727 188.038 24.709 187.756 24.709L186.568 24.7L185.299 24.718C184.999 24.718 184.825 24.745 184.777 24.799C184.741 24.835 184.723 24.955 184.723 25.159L184.732 25.834L184.723 26.563L184.696 29.776C184.696 30.502 184.72 30.889 184.768 30.937C184.822 30.979 185.011 31 185.335 31H186.982C187.876 31 188.356 30.982 188.422 30.946C188.446 30.928 188.488 30.817 188.548 30.613C188.602 30.487 188.629 30.397 188.629 30.343C188.629 30.283 188.584 30.253 188.494 30.253L188.116 30.325C187.954 30.343 187.687 30.352 187.315 30.352C186.235 30.352 185.677 30.316 185.641 30.244C185.623 30.208 185.614 29.992 185.614 29.596V29.092L185.623 28.363C185.623 28.261 185.626 28.123 185.632 27.949L187.621 27.958C187.795 27.958 187.909 27.949 187.963 27.931C188.017 27.913 188.065 27.85 188.107 27.742C188.149 27.628 188.17 27.526 188.17 27.436C188.17 27.34 187.882 27.292 187.306 27.292H187.153L185.614 27.301C185.614 26.449 185.62 25.819 185.632 25.411C185.872 25.369 186.298 25.348 186.91 25.348ZM191.044 24.664L190.954 24.655C190.822 24.655 190.705 24.676 190.603 24.718C190.501 24.76 190.447 24.817 190.441 24.889C190.441 24.955 190.42 25.105 190.378 25.339C190.336 25.567 190.303 25.798 190.279 26.032C190.255 26.26 190.18 26.893 190.054 27.931C189.928 28.963 189.85 29.632 189.82 29.938C189.796 30.238 189.772 30.451 189.748 30.577C189.73 30.703 189.721 30.799 189.721 30.865C189.727 30.931 189.745 30.973 189.775 30.991C189.805 31.009 189.895 31.015 190.045 31.009C190.195 31.003 190.297 30.976 190.351 30.928C190.411 30.874 190.45 30.733 190.468 30.505L190.594 29.065C190.624 28.723 190.681 28.138 190.765 27.31C190.855 26.476 190.9 26.044 190.9 26.014C190.93 26.08 191.11 26.434 191.44 27.076C191.77 27.718 192.079 28.33 192.367 28.912C192.661 29.488 192.832 29.833 192.88 29.947C192.928 30.061 192.994 30.187 193.078 30.325C193.168 30.457 193.237 30.523 193.285 30.523C193.333 30.523 193.417 30.436 193.537 30.262C193.657 30.082 193.804 29.845 193.978 29.551C194.152 29.251 194.293 29.014 194.401 28.84C194.515 28.666 194.773 28.228 195.175 27.526C195.583 26.818 195.838 26.38 195.94 26.212C195.958 26.368 196.015 27.079 196.111 28.345C196.213 29.611 196.264 30.283 196.264 30.361C196.276 30.799 196.372 31.018 196.552 31.018C196.882 31.012 197.071 30.991 197.119 30.955C197.167 30.919 197.191 30.835 197.191 30.703C197.191 30.565 197.11 29.704 196.948 28.12C196.816 26.872 196.744 26.203 196.732 26.113C196.726 26.017 196.711 25.801 196.687 25.465C196.663 25.129 196.63 24.889 196.588 24.745C196.552 24.703 196.465 24.685 196.327 24.691C196.189 24.691 196.093 24.709 196.039 24.745L195.769 25.24C195.571 25.576 195.256 26.125 194.824 26.887C194.398 27.643 194.122 28.126 193.996 28.336C193.87 28.546 193.792 28.678 193.762 28.732C193.752 28.7501 193.742 28.7674 193.733 28.7841C193.714 28.8174 193.697 28.848 193.681 28.876C193.657 28.912 193.627 28.954 193.591 29.002C193.561 29.044 193.531 29.08 193.501 29.11C193.477 29.134 193.453 29.146 193.429 29.146C193.405 29.146 193.354 29.071 193.276 28.921C193.198 28.771 193.108 28.591 193.006 28.381C192.904 28.171 192.799 27.952 192.691 27.724C192.583 27.49 192.43 27.199 192.232 26.851C191.644 25.717 191.29 25.042 191.17 24.826C191.158 24.802 191.149 24.787 191.143 24.781C191.143 24.769 191.137 24.754 191.125 24.736C191.113 24.718 191.104 24.709 191.098 24.709L191.071 24.682C191.059 24.67 191.05 24.664 191.044 24.664Z" fill="#50566C" fill-opacity="0.99"/>
<path fill-rule="evenodd" clip-rule="evenodd" d="M60.8953 21.4172C60.8953 21.4172 72.6242 20.2933 72.6591 20.3099C72.6649 20.3127 72.672 20.3143 72.6773 20.3156C72.6823 20.3168 72.6858 20.3176 72.6859 20.3187C72.6862 20.3217 72.6625 20.3265 72.5771 20.3442C72.5196 20.3561 72.4341 20.3737 72.3091 20.4005C71.8499 20.4988 65.0792 21.1435 65.0792 21.1435L60.8953 21.4172ZM58.3752 20.9079C58.3752 20.9079 67.4698 20.551 67.5041 20.5688C67.5073 20.5704 67.5109 20.5717 67.5143 20.5728C67.5171 20.5737 67.5198 20.5744 67.5222 20.575C67.5271 20.5764 67.5306 20.5773 67.5307 20.5784C67.5308 20.5814 67.507 20.5855 67.4209 20.6006H67.4207C67.3628 20.6107 67.277 20.6256 67.1515 20.6484C66.6895 20.7323 58.8358 21.5779 58.8358 21.5779L58.3752 20.9079ZM32.2131 20.4436C32.2477 20.4265 41.3356 20.9275 41.3356 20.9275L40.8644 21.5901C40.8644 21.5901 39.6885 21.4446 38.2207 21.261L34.5064 21.0753C34.5064 21.0753 27.7267 20.5344 27.266 20.4432C26.9542 20.3815 26.8877 20.3721 26.888 20.3672C26.8882 20.3648 26.9035 20.3635 26.9147 20.358C26.9439 20.3435 35.264 21.0095 37.9017 21.2211C35.6286 20.9364 32.834 20.5823 32.5645 20.5289C32.4388 20.504 32.3529 20.4876 32.2953 20.4766C32.2099 20.4604 32.1863 20.4559 32.1865 20.4529C32.1865 20.4518 32.1901 20.4509 32.195 20.4497C32.2003 20.4483 32.2073 20.4465 32.2131 20.4436Z" fill="#EBEBEB" fill-opacity="0.8"/>
<path d="M58.3752 20.9079H55.8627L55.9464 21.9966L58.8359 21.5779L58.3752 20.9079Z" fill="#395A61" fill-opacity="0.7"/>
<path d="M58.3752 20.9079H55.8627L55.9464 21.9966L58.8359 21.5779L58.3752 20.9079Z" fill="url(#paint0_linear)" fill-opacity="0.7"/>
<path d="M41.3355 20.9275L43.8446 20.9497C43.8446 20.9497 43.8112 21.281 43.8027 21.494C43.7936 21.7229 43.8027 22.0803 43.8027 22.0803L40.8643 21.5901L41.3355 20.9275Z" fill="#395A61" fill-opacity="0.7"/>
<path d="M41.3355 20.9275L43.8446 20.9497C43.8446 20.9497 43.8112 21.281 43.8027 21.494C43.7936 21.7229 43.8027 22.0803 43.8027 22.0803L40.8643 21.5901L41.3355 20.9275Z" fill="url(#paint1_linear)" fill-opacity="0.7"/>
<path fill-rule="evenodd" clip-rule="evenodd" d="M51.8687 21.6867C50.7831 22.7266 49.06 22.6896 48.0201 21.604C46.9802 20.5184 47.0173 18.7954 48.1028 17.7555C49.1884 16.7156 50.9115 16.7526 51.9513 17.8382C52.9913 18.9238 52.9543 20.6468 51.8687 21.6867ZM51.661 21.3621C50.6646 22.3166 49.0959 22.2958 48.1571 21.3157C47.2183 20.3357 47.265 18.7675 48.2613 17.8131C49.2577 16.8586 50.8264 16.8794 51.7652 17.8595C52.704 18.8395 52.6574 20.4077 51.661 21.3621ZM33.1658 24.8442C33.1658 26.5094 31.7972 27.8593 30.1089 27.8593C28.4206 27.8593 27.0519 26.5094 27.0519 24.8442C27.0519 23.179 28.4206 21.8291 30.1089 21.8291C31.7972 21.8291 33.1658 23.179 33.1658 24.8442ZM32.8308 24.7186C32.8308 26.2218 31.5747 27.4405 30.0251 27.4405C28.4756 27.4405 27.2194 26.2218 27.2194 24.7186C27.2194 23.2153 28.4756 21.9966 30.0251 21.9966C31.5747 21.9966 32.8308 23.2153 32.8308 24.7186ZM66.6965 25.6596C67.1293 27.2676 68.8018 28.2153 70.4321 27.7766C72.0623 27.3378 73.0331 25.6786 72.6003 24.0706C72.1675 22.4627 70.4951 21.5148 68.8648 21.9536C67.2345 22.3925 66.2637 24.0517 66.6965 25.6596ZM66.9874 25.4513C67.3781 26.9029 68.9078 27.7532 70.4041 27.3504C71.9003 26.9477 72.7967 25.4445 72.406 23.9928C72.0152 22.5412 70.4855 21.6909 68.9892 22.0936C67.4929 22.4963 66.5966 23.9996 66.9874 25.4513ZM49.8024 19.9816C49.8261 19.9751 49.8473 19.9638 49.865 19.9491C49.8551 20.0121 49.8094 20.0666 49.7439 20.0846C49.6547 20.1091 49.5625 20.0567 49.5379 19.9675C49.5199 19.902 49.5435 19.8348 49.5926 19.7941C49.589 19.8169 49.59 19.8408 49.5965 19.8645C49.621 19.9537 49.7132 20.0061 49.8024 19.9816Z" fill="#E8E6E6"/>
<path fill-rule="evenodd" clip-rule="evenodd" d="M49.9704 23.8161C51.9068 23.7393 54.7203 22.9675 55.5154 21.7924C55.3929 22.082 55.2107 22.3963 54.9652 22.7102C55.0264 22.7151 55.1958 22.7332 55.3601 22.7923C55.5666 22.8665 55.9045 23.0854 55.9045 23.0854V23.4204C55.9045 23.7554 55.8375 24.0486 55.7454 24.4254C55.6616 24.8023 55.5695 25.0117 55.402 25.263C55.2345 25.5142 54.8576 25.8911 54.4389 26.2261C54.0201 26.5611 53.057 26.7705 52.8895 26.7705H49.7488H47.0268C46.7612 26.7705 46.2169 26.684 45.7287 26.4355C45.2028 26.1678 44.7352 25.7282 44.5561 25.4723C44.2164 24.9871 43.8879 24.3904 43.8442 23.7973C43.8159 23.4124 43.8442 23.0017 43.8442 23.0017C43.8442 23.0017 44.0955 22.8342 44.3049 22.7504C44.4975 22.6734 44.7609 22.6247 44.8019 22.6174C44.5874 22.363 44.4258 22.111 44.3281 21.8755C45.1601 22.9367 48.0953 23.8161 49.9704 23.8161ZM45.6904 23.4485C46.2235 23.8765 47.1745 24.6088 47.5293 24.8023C47.7189 24.9058 48.2014 25.1625 48.7019 25.3467C48.7274 25.3561 48.752 25.3652 48.7758 25.374C49.2719 25.557 49.3931 25.6017 49.8325 25.598C50.3342 25.5938 51.0469 25.263 51.0469 25.263C51.0469 25.263 51.7454 24.9766 52.1776 24.7605L52.2012 24.7487C52.7962 24.4511 53.1421 24.2781 53.6851 23.8811C53.7251 23.8518 53.7635 23.8234 53.8005 23.7956C52.8527 24.4462 51.5311 24.9257 49.7905 24.9042C48.2379 24.9042 46.7408 24.2487 45.6904 23.4485Z" fill="#395A61"/>
<path fill-rule="evenodd" clip-rule="evenodd" d="M50.0419 6H49.9581H49.9163L49.8744 7.46566L49.8325 8.93132H50.1257L50.0838 7.46566L50.0419 6ZM43.9459 20.9161C43.9459 20.9161 43.8742 20.6606 43.8383 21.0012C43.8033 21.3327 43.803 21.5838 43.8024 21.9499V21.95V21.9801C43.8018 22.3794 43.8383 23.0017 43.8383 23.0017C43.8383 23.0017 44.1412 22.8288 44.3294 22.7463C44.5249 22.6606 44.8074 22.6186 44.8074 22.6186C44.8074 22.6186 44.5202 22.2316 44.3049 21.8486C44.117 21.5145 43.9459 20.9161 43.9459 20.9161ZM55.8029 20.9998C55.8029 20.9998 55.8747 20.7444 55.9105 21.0849C55.9455 21.4165 55.9459 21.6677 55.9464 22.034V22.0639C55.947 22.4632 55.9105 23.0854 55.9105 23.0854C55.9105 23.0854 55.6077 22.9126 55.4194 22.8301C55.2239 22.7444 54.9414 22.7024 54.9414 22.7024C54.9414 22.7024 55.2286 22.3154 55.4439 21.9323C55.6318 21.5982 55.8029 20.9998 55.8029 20.9998ZM55.5185 21.7825C54.3017 22.4372 51.8655 22.8342 49.9391 22.8342C47.9532 22.8342 45.4908 22.4893 44.3067 21.8396C45.2348 23.1147 48.1163 23.7369 49.9595 23.8392C52.4764 23.8392 54.7453 22.9682 55.5185 21.7825Z" fill="#83A689"/>
<path opacity="0.8" fill-rule="evenodd" clip-rule="evenodd" d="M16.5248 18.8438L16.9201 18.9343C16.9207 18.9426 16.9209 18.9508 16.9209 18.9591C16.9192 19.0979 16.8241 19.2093 16.7085 19.208C16.5929 19.2066 16.5005 19.0931 16.5021 18.9543C16.5025 18.9145 16.5106 18.8771 16.5248 18.8438ZM83.2563 19.01C83.2529 19.0285 83.2512 19.0477 83.2515 19.0674C83.2531 19.2062 83.3481 19.3176 83.4638 19.3163C83.5794 19.3149 83.6718 19.2013 83.6702 19.0626C83.6696 19.0106 83.6559 18.9626 83.633 18.9228L83.2563 19.01ZM23.8625 20.2414C23.8517 20.2392 23.8406 20.238 23.8293 20.2379L23.8625 20.2414ZM23.6263 20.4193L24.0368 20.4969C24.0333 20.6321 23.941 20.7404 23.8275 20.7404C23.7118 20.7404 23.6181 20.6279 23.6181 20.4891C23.6181 20.4649 23.621 20.4415 23.6263 20.4193ZM76.4982 20.4919L76.1458 20.5629C76.136 20.5919 76.1307 20.6235 76.1307 20.6566C76.1307 20.7954 76.2244 20.9079 76.3401 20.9079C76.4557 20.9079 76.5495 20.7954 76.5495 20.6566C76.5495 20.5936 76.5301 20.536 76.4982 20.4919ZM65.9214 22.4837L66.3316 22.4182C66.3292 22.5544 66.2364 22.6639 66.1223 22.6639C66.0272 22.6639 65.9469 22.5879 65.9214 22.4837ZM33.671 22.2842C33.8046 22.3064 33.9442 22.3294 34.0869 22.3526C34.0826 22.5355 33.9906 22.6817 33.8777 22.6817C33.7621 22.6817 33.6683 22.5283 33.6683 22.3391C33.6683 22.3204 33.6693 22.3021 33.671 22.2842Z" fill="#E8E8E8"/>
<path fill-rule="evenodd" clip-rule="evenodd" d="M37.1441 20.2797C37.1441 20.2797 35.3777 20.1363 35.3434 20.1541C35.3315 20.1602 35.3128 20.1621 35.3126 20.1654C35.3121 20.1717 35.3773 20.1831 35.6784 20.2378C36.139 20.3216 36.9766 20.4556 36.9766 20.4556L37.1441 20.2797ZM62.3953 20.4053C62.3953 20.4053 64.7474 20.2081 64.782 20.2259C64.794 20.232 64.8128 20.2338 64.8131 20.2372C64.8136 20.2434 64.7477 20.2549 64.4436 20.3099C63.9785 20.3943 62.6047 20.6147 62.6047 20.6147L62.3953 20.4053Z" fill="#83A689"/>
<defs>
<linearGradient id="paint0_linear" x1="58.7673" y1="21.0675" x2="55.8738" y2="21.4564" gradientUnits="userSpaceOnUse">
<stop offset="0.0989583" stop-color="#EBEBEB" stop-opacity="0.7"/>
<stop offset="0.78125" stop-color="#395A61" stop-opacity="0.7"/>
</linearGradient>
<linearGradient id="paint1_linear" x1="40.941" y1="21.0808" x2="43.828" y2="21.5156" gradientUnits="userSpaceOnUse">
<stop offset="0.0989583" stop-color="#EBEBEB" stop-opacity="0.7"/>
<stop offset="0.78125" stop-color="#395A61" stop-opacity="0.7"/>
</linearGradient>
</defs>
</svg>
