<svg viewBox="0 0 200 75" xmlns="http://www.w3.org/2000/svg">
<g clip-path="url(#clip0)">
<path fill-rule="evenodd" clip-rule="evenodd" d="M100.09 0H99.923H99.8392L99.6692 5.96734L99.431 11.5647C92.5892 11.7958 87.1089 17.8162 87.1089 25.2094C87.1089 26.7427 87.3448 28.2169 87.7794 29.5928L87.1017 29.5749C83.5237 29.2906 70.7453 28.2776 70.6863 28.3082C70.6748 28.3142 70.6598 28.3183 70.6476 28.3214L70.6459 28.3219C70.6338 28.3252 70.6248 28.3277 70.6247 28.331C70.6237 28.3425 70.7361 28.363 71.2339 28.4534L71.3563 28.4757C71.8354 28.5628 74.1485 28.9442 76.2588 29.2905L74.9597 29.2563C68.8543 29.0291 67.3925 28.9393 63.0845 28.6746L63.0786 28.6742C62.6444 28.6474 62.1815 28.6189 61.6818 28.5884C56.2195 28.2543 54.4546 27.8358 54.4546 27.8358L48.152 27.0831L41.8493 25.9953L31.429 23.9032L21.3449 21.3923C21.3449 21.3923 14.7903 19.7183 10.5886 18.2951C6.38701 16.872 5.37864 16.3697 5.37864 16.3697L0.000635968 13.858C0.000635968 13.858 -0.0834203 14.193 1.68118 15.1978C3.44579 16.2025 5.3785 17.1235 5.3785 17.1235C5.3785 17.1235 6.97515 17.7933 9.41207 18.7141C9.93351 18.9112 10.3588 19.0737 10.7249 19.2137L10.7265 19.2143C12.0702 19.728 12.6173 19.9371 14.2019 20.4303C15.0306 20.6882 15.4339 20.8425 15.8544 21.0033L15.8562 21.004L15.8565 21.0041C16.4586 21.2344 17.0983 21.479 19.0758 22.0626C22.4372 23.0548 31.0086 25.2434 31.0086 25.2434L32.352 25.5494C32.3409 25.6291 32.3351 25.7116 32.3351 25.7956C32.3351 26.5357 32.7851 27.1357 33.3401 27.1357C33.8429 27.1357 34.2593 26.6436 34.3334 26.0008L37.4372 26.708C37.4372 26.708 39.16 27.1683 43.8659 28.1725C44.7181 28.3544 45.6446 28.5417 46.5907 28.7266C46.5791 28.808 46.5729 28.8923 46.5729 28.9782C46.5729 29.7183 47.023 30.3183 47.5779 30.3183C48.1005 30.3183 48.5299 29.7866 48.5784 29.1069C52.1997 29.7861 55.5468 30.3482 55.5468 30.3482L57.9851 30.8152C55.1307 31.892 53.1056 34.6008 53.1056 37.7722C53.1056 41.8889 56.5178 45.2261 60.727 45.2261C64.9362 45.2261 68.3484 41.8889 68.3484 37.7722C68.3484 35.6302 67.4247 33.6992 65.9454 32.3395L66.1516 32.3791C66.1516 32.3791 66.4061 32.4214 66.8488 32.4958C66.8436 32.5506 66.8409 32.6065 66.8409 32.6633C66.8409 33.4034 67.291 34.0033 67.8459 34.0033C68.3578 34.0033 68.7803 33.4931 68.8431 32.8333C71.2587 33.2451 74.8228 33.8623 77.4799 34.3648C81.1133 35.0519 86.3948 36.3585 87.9267 36.7422C88.8401 39.5054 91.3867 41.541 94.3954 41.541H97.2429H97.827C97.8237 41.5682 97.822 41.5961 97.822 41.6248C97.822 41.8561 97.9345 42.0436 98.0732 42.0436C98.2119 42.0436 98.3245 41.8561 98.3245 41.6248C98.3245 41.5961 98.3228 41.5682 98.3195 41.541H99.9138H101.177C101.174 41.5682 101.172 41.5961 101.172 41.6248C101.172 41.8561 101.285 42.0436 101.423 42.0436C101.562 42.0436 101.675 41.8561 101.675 41.6248C101.675 41.5961 101.673 41.5682 101.67 41.541H102.771H105.238C108.193 41.541 110.721 39.5698 111.513 36.8263C112.417 36.6353 118.4 35.374 122.359 34.6231C125.135 34.0966 128.899 33.4447 131.313 33.0332C131.49 33.4144 131.807 33.6683 132.168 33.6683C132.619 33.6683 133.001 33.2717 133.128 32.7256L133.495 32.6638L133.583 32.6491C132.29 33.9848 131.498 35.7879 131.498 37.7722C131.498 41.8889 134.91 45.2261 139.119 45.2261C143.328 45.2261 146.74 41.8889 146.74 37.7722C146.74 34.7548 144.907 32.1561 142.271 30.9834L144.302 30.5935C144.302 30.5935 147.869 29.9925 151.624 29.2817C151.727 29.8755 152.126 30.3183 152.603 30.3183C153.158 30.3183 153.608 29.7183 153.608 28.9782V28.9374L153.607 28.926V28.9163V28.916C153.607 28.9102 153.607 28.9044 153.606 28.8987C154.433 28.7353 155.239 28.5709 155.987 28.4107C160.695 27.4032 162.419 26.9414 162.419 26.9414L165.86 26.1553C165.961 26.7164 166.362 27.1357 166.841 27.1357C167.396 27.1357 167.845 26.5732 167.845 25.8794C167.845 25.8198 167.842 25.7611 167.837 25.7039L168.85 25.4722C168.85 25.4722 177.425 23.2769 180.789 22.2817C182.767 21.6961 183.407 21.4509 184.01 21.2198C184.43 21.0581 184.834 20.9035 185.665 20.6444C187.246 20.1513 187.793 19.9413 189.128 19.4296L189.142 19.4243L189.308 19.361C189.636 19.2353 190.011 19.0918 190.457 18.9231C192.894 17.9995 194.492 17.3278 194.492 17.3278C194.492 17.3278 196.425 16.4042 198.191 15.3966C199.956 14.3889 199.872 14.053 199.872 14.053L194.492 16.572C194.492 16.572 193.482 17.0759 189.279 18.5032C185.075 19.9307 178.519 21.6097 178.519 21.6097L168.43 24.1285L158.005 26.2275L151.7 27.3188L145.394 28.0742C145.394 28.0742 143.629 28.494 138.164 28.8297C137.768 28.8539 137.396 28.8769 137.042 28.8987L136.766 28.9157L136.753 28.9165C132.449 29.1821 130.985 29.2724 124.881 29.5007L123.319 29.542C125.593 29.1702 128.356 28.7162 128.887 28.6199L129.01 28.5977L129.019 28.5961C129.514 28.5063 129.627 28.4858 129.626 28.4744C129.626 28.471 129.616 28.4683 129.603 28.465C129.598 28.4636 129.592 28.4621 129.586 28.4605C129.578 28.4581 129.57 28.4553 129.564 28.4518C129.495 28.4162 112.06 29.8157 112.06 29.8157L112.482 29.8281L111.817 29.8457C112.304 28.3983 112.57 26.837 112.57 25.2094C112.57 17.8786 107.181 11.8974 100.42 11.5718L100.258 5.96734L100.09 0ZM95.2329 18.258V20.475C95.2329 20.5506 95.1825 20.6167 95.1094 20.6367L94.3116 20.8543L92.4977 21.4064C92.4302 21.4268 92.3572 21.403 92.3149 21.3466L92.1431 21.1176C92.1371 21.1095 92.1319 21.101 92.1273 21.092L92.0139 20.8652C91.985 20.8074 91.992 20.738 92.0317 20.6871L94.0101 18.1548C94.0419 18.1142 94.0905 18.0905 94.1421 18.0905H95.0654C95.158 18.0905 95.2329 18.1655 95.2329 18.258ZM95.8191 18.593C95.8191 18.2229 96.1191 17.9229 96.4892 17.9229H98.3317C99.0719 17.9229 99.6717 18.5229 99.6717 19.263V20.268C99.6717 20.4531 99.5218 20.603 99.3367 20.603H95.9866C95.8942 20.603 95.8191 20.528 95.8191 20.4355V18.593ZM103.357 17.9229C103.727 17.9229 104.027 18.2229 104.027 18.593V20.4355C104.027 20.528 103.952 20.603 103.859 20.603H100.509C100.324 20.603 100.174 20.4531 100.174 20.268V19.263C100.174 18.5229 100.774 17.9229 101.514 17.9229H103.357ZM104.697 20.475V18.258C104.697 18.1655 104.772 18.0905 104.864 18.0905H105.788C105.839 18.0905 105.888 18.1142 105.92 18.1548L107.898 20.6871C107.938 20.738 107.945 20.8074 107.916 20.8652L107.803 21.092C107.8 21.0972 107.797 21.102 107.794 21.1067L107.791 21.1116C107.79 21.1136 107.788 21.1156 107.787 21.1176L107.615 21.3466C107.573 21.403 107.5 21.4268 107.432 21.4064L105.618 20.8543L104.82 20.6367C104.747 20.6167 104.697 20.5506 104.697 20.475ZM48.1885 53.7051C48.165 53.7871 48.1211 53.9043 48.0566 54.0566C47.9922 54.2031 47.916 54.3701 47.8281 54.5576C47.7461 54.7451 47.6553 54.9473 47.5557 55.1641C47.4619 55.375 47.3682 55.5889 47.2744 55.8057C47.2393 55.8877 47.207 55.9492 47.1777 55.9902C47.1484 56.0254 47.1016 56.0518 47.0371 56.0693C46.9727 56.0869 46.8818 56.0986 46.7646 56.1045C46.6533 56.1045 46.4951 56.1074 46.29 56.1133L45.0684 56.1396L44.8223 58.8291H49.3311V59.1719C49.3193 59.1836 49.2695 59.2627 49.1816 59.4092C49.0938 59.5498 48.9912 59.7197 48.874 59.9189C48.7568 60.1182 48.6338 60.3203 48.5049 60.5254C48.376 60.7246 48.2676 60.8857 48.1797 61.0088C48.1211 61.1143 48.0537 61.1963 47.9775 61.2549C47.9014 61.3193 47.8164 61.3662 47.7227 61.3955C47.6348 61.4248 47.5352 61.4424 47.4238 61.4482C47.3184 61.4541 47.2012 61.457 47.0723 61.457C46.5449 61.457 45.9941 61.4453 45.4199 61.4219C44.8516 61.3984 44.2832 61.3691 43.7148 61.334C43.1465 61.2988 42.5898 61.2578 42.0449 61.2109C41.5059 61.1699 41.0049 61.126 40.542 61.0791C40.501 61.0732 40.4629 61.0498 40.4277 61.0088C40.3984 60.9678 40.3838 60.9209 40.3838 60.8682C40.3604 60.8682 40.375 60.8184 40.4277 60.7188C40.4863 60.6191 40.5654 60.4902 40.665 60.332C40.7646 60.1738 40.873 59.9951 40.9902 59.7959C41.1133 59.5908 41.2305 59.3857 41.3418 59.1807L41.4824 57.2031L41.4877 57.1275C41.5085 56.8313 41.5243 56.6075 41.5352 56.4561C41.5527 56.292 41.5615 56.2041 41.5615 56.1924C41.21 56.1865 40.9463 56.1689 40.7705 56.1396C40.6006 56.1104 40.5156 56.0459 40.5156 55.9463C40.5156 55.8994 40.5566 55.8115 40.6387 55.6826C40.7266 55.5537 40.832 55.4072 40.9551 55.2432C41.0781 55.0732 41.207 54.8975 41.3418 54.7158C41.4824 54.5342 41.6055 54.3672 41.7109 54.2148L41.9307 51.2266H41.9043C41.7754 51.2324 41.6582 51.2383 41.5527 51.2441H41.2627C40.9814 51.2441 40.7793 51.2295 40.6562 51.2002C40.5391 51.165 40.4805 51.1035 40.4805 51.0156C40.4805 50.9746 40.5156 50.8896 40.5859 50.7607C40.6562 50.6318 40.7441 50.4854 40.8496 50.3213C40.9551 50.1514 41.0664 49.9756 41.1836 49.7939C41.3008 49.6064 41.4062 49.4336 41.5 49.2754L42.0273 48.3789H45.7012L50.0342 48.0625C50.0363 48.0625 50.0395 48.0629 50.044 48.0636C50.0518 48.065 50.0631 48.0675 50.0781 48.0713C50.1074 48.0713 50.1367 48.0801 50.166 48.0977C50.1953 48.1094 50.2217 48.1328 50.2451 48.168C50.2744 48.2031 50.2891 48.2529 50.2891 48.3174L50.1572 48.7744C50.1162 48.9033 50.0664 49.041 50.0078 49.1875C49.9492 49.3281 49.8848 49.4746 49.8145 49.627L49.4277 50.6465C49.3867 50.7461 49.3398 50.8223 49.2871 50.875C49.2344 50.9277 49.123 50.957 48.9531 50.9629C48.5078 50.9746 48.0098 50.9951 47.459 51.0244C46.9141 51.0479 46.2871 51.0713 45.5781 51.0947C45.5547 51.1768 45.543 51.2441 45.543 51.2969C45.543 51.3438 45.5371 51.4375 45.5254 51.5781L45.4814 51.9824C45.4697 52.1699 45.4521 52.3721 45.4287 52.5889C45.4053 52.8057 45.376 53.0723 45.3408 53.3887C45.6396 53.377 45.9297 53.3652 46.2109 53.3535C46.498 53.3418 46.7588 53.333 46.9932 53.3271C47.2275 53.3154 47.4297 53.3066 47.5996 53.3008C47.7754 53.2949 47.8984 53.292 47.9688 53.292C48.0156 53.292 48.0684 53.3096 48.127 53.3447C48.1855 53.3799 48.2148 53.4473 48.2148 53.5469C48.2148 53.5938 48.2061 53.6465 48.1885 53.7051ZM58.1764 60.2266C58.1471 60.3027 58.1178 60.376 58.0885 60.4463C58.065 60.5166 58.0328 60.5811 57.9918 60.6396C57.9508 60.6982 57.898 60.751 57.8336 60.7979C57.775 60.8447 57.6988 60.8828 57.6051 60.9121C57.2359 61.0293 56.8697 61.1289 56.5064 61.2109C56.1432 61.2988 55.777 61.4043 55.4078 61.5273C55.3375 61.5508 55.276 61.5684 55.2232 61.5801C55.1705 61.5918 55.1207 61.5977 55.0738 61.5977C54.9684 61.5977 54.8922 61.5713 54.8453 61.5186C54.7984 61.4658 54.7633 61.3984 54.7398 61.3164L51.734 49.3633C51.6871 49.2109 51.6637 49.085 51.6637 48.9854C51.6637 48.8564 51.7047 48.751 51.7867 48.6689C51.8687 48.5811 52.0006 48.5107 52.1822 48.458C52.3697 48.3994 52.607 48.3467 52.8941 48.2998C53.1871 48.2529 53.5445 48.2002 53.9664 48.1416C54.1715 48.1123 54.3443 48.0918 54.485 48.0801C54.6256 48.0625 54.7457 48.0537 54.8453 48.0537C55.0152 48.0537 55.1266 48.083 55.1793 48.1416C55.2379 48.1943 55.2906 48.2793 55.3375 48.3965L57.0162 55.6562L59.3805 48.9854C59.4156 48.8916 59.4449 48.8154 59.4684 48.7568C59.4977 48.6982 59.5475 48.6484 59.6178 48.6074C59.6939 48.5605 59.8053 48.5166 59.9518 48.4756C60.1041 48.4287 60.3209 48.376 60.6021 48.3174C61.0416 48.2236 61.4049 48.1562 61.692 48.1152C61.9791 48.0742 62.2105 48.0537 62.3863 48.0537C62.609 48.0537 62.7525 48.0801 62.817 48.1328C62.8873 48.1855 62.9225 48.2617 62.9225 48.3613C62.9283 48.4023 62.9195 48.4463 62.8961 48.4932C62.8785 48.5342 62.858 48.5869 62.8346 48.6514L58.1764 60.2266ZM62.5568 60.3584C62.633 60.2061 62.7121 60.0361 62.7941 59.8486C62.8762 59.6553 62.9523 59.4473 63.0227 59.2246L63.26 58.6445C63.1545 58.4863 63.0461 58.3164 62.9348 58.1348C62.8293 57.9473 62.7326 57.7568 62.6447 57.5635C62.5568 57.3701 62.4836 57.1768 62.425 56.9834C62.3723 56.79 62.3459 56.6025 62.3459 56.4209C62.3459 56.4092 62.3898 56.4004 62.4777 56.3945C62.5715 56.3828 62.6857 56.374 62.8205 56.3682C62.9611 56.3623 63.1105 56.3594 63.2687 56.3594C63.4328 56.3535 63.5822 56.3506 63.717 56.3506C63.8576 56.3447 63.9719 56.3418 64.0598 56.3418L64.2004 56.333C64.3352 55.9814 64.467 55.6475 64.5959 55.3311C64.7248 55.0146 64.8537 54.6953 64.9826 54.373C65.1115 54.0508 65.2404 53.7227 65.3693 53.3887C65.4982 53.0488 65.6271 52.6855 65.7561 52.2988C66.0021 51.5723 66.2424 50.9336 66.4768 50.3828C66.7111 49.832 66.9309 49.3193 67.1359 48.8447C67.1594 48.7861 67.1975 48.7334 67.2502 48.6865C67.3088 48.6338 67.3703 48.5898 67.4348 48.5547C67.4992 48.5195 67.5607 48.4902 67.6193 48.4668C67.6838 48.4434 67.7336 48.4258 67.7687 48.4141C67.7922 48.4082 67.8801 48.3818 68.0324 48.335C68.1906 48.2881 68.3693 48.2383 68.5686 48.1855C68.7678 48.1328 68.9641 48.0859 69.1574 48.0449C69.3566 48.0039 69.5148 47.9834 69.632 47.9834H69.7902C69.884 47.9834 69.9719 48.0068 70.0539 48.0537C70.1418 48.0947 70.2004 48.1797 70.2297 48.3086C70.5109 49.0293 70.8098 49.8174 71.1262 50.6729C71.4484 51.5225 71.7619 52.46 72.0666 53.4854C72.2307 54.0361 72.3918 54.5576 72.55 55.0498C72.7082 55.542 72.8664 56.0225 73.0246 56.4912L73.4992 57.8975C73.6633 58.3662 73.8303 58.8496 74.0002 59.3477C74.0529 59.5586 74.1057 59.7256 74.1584 59.8486C74.217 59.9717 74.2697 60.0684 74.3166 60.1387C74.3635 60.209 74.4016 60.2617 74.4309 60.2969C74.4602 60.3262 74.4748 60.3584 74.4748 60.3936C74.4748 60.4287 74.4191 60.4639 74.3078 60.499L72.4182 61.1143C72.2775 61.167 72.134 61.2197 71.9875 61.2725C71.841 61.3252 71.7033 61.3721 71.5744 61.4131C71.4455 61.4541 71.3312 61.4863 71.2316 61.5098C71.1379 61.5391 71.0705 61.5537 71.0295 61.5537H70.9768C70.8947 61.5537 70.8361 61.5273 70.801 61.4746C70.7658 61.4277 70.7424 61.3809 70.7307 61.334C70.6721 61.1406 70.6135 60.9678 70.5549 60.8154C70.4963 60.6572 70.4377 60.502 70.3791 60.3496L70.2121 59.8486C70.1594 59.6729 70.1066 59.4648 70.0539 59.2246C70.0422 59.1953 70.01 59.1719 69.9572 59.1543C69.9045 59.1309 69.84 59.1133 69.7639 59.1016C69.6936 59.0898 69.6174 59.084 69.5354 59.084C69.4533 59.0781 69.3771 59.0752 69.3068 59.0752C69.0842 59.0752 68.9025 59.0781 68.7619 59.084C68.6271 59.084 68.507 59.0869 68.4016 59.0928C68.2961 59.0928 68.1936 59.0957 68.0939 59.1016H67.7424H67.215C67.0393 59.0957 66.8781 59.0898 66.7316 59.084L66.2307 59.0664C66.0783 59.4883 65.926 59.8838 65.7736 60.2529C65.6213 60.6221 65.4572 61.0029 65.2814 61.3955C65.2697 61.4424 65.2404 61.4805 65.1936 61.5098C65.1525 61.5391 65.1086 61.5537 65.0617 61.5537C65.0266 61.5537 65.0061 61.5508 65.0002 61.5449C64.4318 61.3398 63.9543 61.1377 63.5676 60.9385C63.1809 60.7393 62.8439 60.5459 62.5568 60.3584ZM68.4807 52.457C68.34 52.9785 68.1994 53.4531 68.0588 53.8809C67.924 54.3027 67.798 54.6777 67.6809 55.0059C67.5695 55.334 67.4729 55.6123 67.3908 55.8408C67.3088 56.0635 67.2502 56.2363 67.215 56.3594V56.4385C67.215 56.4736 67.2121 56.4971 67.2062 56.5088H69.3156C69.2512 56.2217 69.1809 55.9316 69.1047 55.6387C69.0344 55.3457 68.9641 55.0381 68.8937 54.7158C68.8234 54.3936 68.7531 54.0479 68.6828 53.6787C68.6125 53.3096 68.5451 52.9023 68.4807 52.457ZM80.4057 60.3584C80.4818 60.2061 80.5609 60.0361 80.643 59.8486C80.725 59.6553 80.8012 59.4473 80.8715 59.2246L81.1088 58.6445C81.0033 58.4863 80.8949 58.3164 80.7836 58.1348C80.6781 57.9473 80.5814 57.7568 80.4936 57.5635C80.4057 57.3701 80.3324 57.1768 80.2738 56.9834C80.2211 56.79 80.1947 56.6025 80.1947 56.4209C80.1947 56.4092 80.2387 56.4004 80.3266 56.3945C80.4203 56.3828 80.5346 56.374 80.6693 56.3682C80.81 56.3623 80.9594 56.3594 81.1176 56.3594C81.2816 56.3535 81.4311 56.3506 81.5658 56.3506C81.7064 56.3447 81.8207 56.3418 81.9086 56.3418L82.0492 56.333C82.184 55.9814 82.3158 55.6475 82.4447 55.3311C82.5736 55.0146 82.7025 54.6953 82.8314 54.373C82.9604 54.0508 83.0893 53.7227 83.2182 53.3887C83.3471 53.0488 83.476 52.6855 83.6049 52.2988C83.851 51.5723 84.0912 50.9336 84.3256 50.3828C84.56 49.832 84.7797 49.3193 84.9848 48.8447C85.0082 48.7861 85.0463 48.7334 85.099 48.6865C85.1576 48.6338 85.2191 48.5898 85.2836 48.5547C85.348 48.5195 85.4096 48.4902 85.4682 48.4668C85.5326 48.4434 85.5824 48.4258 85.6176 48.4141C85.641 48.4082 85.7289 48.3818 85.8812 48.335C86.0395 48.2881 86.2182 48.2383 86.4174 48.1855C86.6166 48.1328 86.8129 48.0859 87.0062 48.0449C87.2055 48.0039 87.3637 47.9834 87.4809 47.9834H87.6391C87.7328 47.9834 87.8207 48.0068 87.9027 48.0537C87.9906 48.0947 88.0492 48.1797 88.0785 48.3086C88.3598 49.0293 88.6586 49.8174 88.975 50.6729C89.2973 51.5225 89.6107 52.46 89.9154 53.4854C90.0795 54.0361 90.2406 54.5576 90.3988 55.0498C90.557 55.542 90.7152 56.0225 90.8734 56.4912L91.348 57.8975C91.5121 58.3662 91.6791 58.8496 91.849 59.3477C91.9018 59.5586 91.9545 59.7256 92.0072 59.8486C92.0658 59.9717 92.1186 60.0684 92.1654 60.1387C92.2123 60.209 92.2504 60.2617 92.2797 60.2969C92.309 60.3262 92.3236 60.3584 92.3236 60.3936C92.3236 60.4287 92.268 60.4639 92.1566 60.499L90.267 61.1143C90.1264 61.167 89.9828 61.2197 89.8363 61.2725C89.6898 61.3252 89.5521 61.3721 89.4232 61.4131C89.2943 61.4541 89.1801 61.4863 89.0805 61.5098C88.9867 61.5391 88.9193 61.5537 88.8783 61.5537H88.8256C88.7436 61.5537 88.685 61.5273 88.6498 61.4746C88.6146 61.4277 88.5912 61.3809 88.5795 61.334C88.5209 61.1406 88.4623 60.9678 88.4037 60.8154C88.3451 60.6572 88.2865 60.502 88.2279 60.3496L88.0609 59.8486C88.0082 59.6729 87.9555 59.4648 87.9027 59.2246C87.891 59.1953 87.8588 59.1719 87.8061 59.1543C87.7533 59.1309 87.6889 59.1133 87.6127 59.1016C87.5424 59.0898 87.4662 59.084 87.3842 59.084C87.3021 59.0781 87.226 59.0752 87.1557 59.0752C86.933 59.0752 86.7514 59.0781 86.6107 59.084C86.476 59.084 86.3559 59.0869 86.2504 59.0928C86.1449 59.0928 86.0424 59.0957 85.9428 59.1016H85.5912H85.0639C84.8881 59.0957 84.727 59.0898 84.5805 59.084L84.0795 59.0664C83.9271 59.4883 83.7748 59.8838 83.6225 60.2529C83.4701 60.6221 83.3061 61.0029 83.1303 61.3955C83.1186 61.4424 83.0893 61.4805 83.0424 61.5098C83.0014 61.5391 82.9574 61.5537 82.9105 61.5537C82.8754 61.5537 82.8549 61.5508 82.849 61.5449C82.2807 61.3398 81.8031 61.1377 81.4164 60.9385C81.0297 60.7393 80.6928 60.5459 80.4057 60.3584ZM86.3295 52.457C86.1889 52.9785 86.0482 53.4531 85.9076 53.8809C85.7729 54.3027 85.6469 54.6777 85.5297 55.0059C85.4184 55.334 85.3217 55.6123 85.2396 55.8408C85.1576 56.0635 85.099 56.2363 85.0639 56.3594V56.4385C85.0639 56.4736 85.0609 56.4971 85.0551 56.5088H87.1645C87.1 56.2217 87.0297 55.9316 86.9535 55.6387C86.8832 55.3457 86.8129 55.0381 86.7426 54.7158C86.6723 54.3936 86.602 54.0479 86.5316 53.6787C86.4613 53.3096 86.3939 52.9023 86.3295 52.457ZM94.1201 61.2812L94.5596 55.2695C94.7061 53.2539 94.8145 51.7744 94.8848 50.8311C94.9551 49.8877 94.9902 49.4189 94.9902 49.4248C94.9961 49.3193 95.002 49.2314 95.0078 49.1611C95.0137 49.0908 95.0254 49.0322 95.043 48.9854C95.0605 48.9385 95.084 48.9033 95.1133 48.8799C95.1426 48.8564 95.1865 48.8389 95.2451 48.8271L98.2861 48.0977C98.3623 48.0742 98.4414 48.0625 98.5234 48.0625C98.6055 48.0625 98.6611 48.0889 98.6904 48.1416C98.7197 48.1885 98.7344 48.2881 98.7344 48.4404C98.6934 48.8037 98.6611 49.1436 98.6377 49.46C98.6143 49.7764 98.5938 50.0781 98.5762 50.3652C98.5645 50.6523 98.5527 50.9307 98.541 51.2002C98.5293 51.4639 98.5146 51.7275 98.4971 51.9912C98.4619 52.2783 98.4297 52.5654 98.4004 52.8525C98.377 53.1396 98.3535 53.4385 98.3301 53.749C98.3066 54.0537 98.2803 54.3789 98.251 54.7246C98.2275 55.0645 98.1982 55.4365 98.1631 55.8408L97.7764 60.4727C97.7705 60.5254 97.7588 60.5781 97.7412 60.6309C97.7295 60.6777 97.6914 60.7158 97.627 60.7451C97.625 60.7451 97.6197 60.7464 97.611 60.7491C97.594 60.7544 97.5641 60.7647 97.5215 60.7803C97.457 60.8037 97.3721 60.8359 97.2666 60.877C97.1611 60.9121 97.0381 60.9502 96.8975 60.9912C96.7568 61.0322 96.6074 61.0703 96.4492 61.1055C96.1855 61.1641 95.9541 61.2227 95.7549 61.2812C95.5615 61.3398 95.3887 61.3926 95.2363 61.4395C95.084 61.4922 94.9434 61.5332 94.8145 61.5625C94.6855 61.5918 94.5566 61.6064 94.4277 61.6064C94.3398 61.6064 94.2666 61.583 94.208 61.5361C94.1494 61.4893 94.1201 61.4043 94.1201 61.2812ZM105.453 60.2969C105.447 60.3496 105.435 60.4023 105.418 60.4551C105.406 60.502 105.368 60.54 105.303 60.5693C105.28 60.5811 105.163 60.625 104.952 60.7012C104.747 60.7715 104.506 60.8564 104.231 60.9561C103.962 61.0498 103.692 61.1436 103.422 61.2373C103.159 61.3369 102.957 61.4131 102.816 61.4658C102.746 61.4951 102.658 61.5244 102.552 61.5537C102.453 61.5889 102.353 61.6064 102.254 61.6064C102.171 61.6064 102.098 61.5859 102.034 61.5449C101.975 61.5039 101.946 61.4277 101.946 61.3164C101.946 61.0586 101.952 60.8242 101.963 60.6133C101.981 60.3965 102.002 60.1709 102.025 59.9365C102.048 59.7021 102.072 59.4443 102.095 59.1631C102.125 58.876 102.151 58.5361 102.174 58.1436C102.204 57.6279 102.236 57.1328 102.271 56.6582C102.306 56.1777 102.341 55.6797 102.377 55.1641L102.5 53.6611C102.514 53.4595 102.529 53.2559 102.543 53.0504C102.546 53.005 102.549 52.9596 102.552 52.9141C102.57 52.6562 102.588 52.3926 102.605 52.123L102.702 51.0508C102.702 51.0391 102.684 51.0332 102.649 51.0332C102.602 51.0332 102.523 51.0449 102.412 51.0684C102.3 51.0859 102.169 51.1094 102.016 51.1387C101.864 51.168 101.694 51.2002 101.506 51.2354C101.325 51.2646 101.137 51.2939 100.944 51.3232C100.897 51.3232 100.85 51.3145 100.803 51.2969C100.762 51.2734 100.742 51.2471 100.742 51.2178C100.742 51.1943 100.748 51.1768 100.759 51.165L102.183 48.6777C102.505 48.6074 102.851 48.5371 103.22 48.4668C103.595 48.3906 103.997 48.3232 104.424 48.2646C104.852 48.2061 105.306 48.1592 105.787 48.124C106.267 48.083 106.777 48.0625 107.316 48.0625C107.925 48.0742 108.517 48.1357 109.091 48.2471C109.671 48.3525 110.184 48.5342 110.629 48.792C111.081 49.0439 111.441 49.3896 111.711 49.8291C111.986 50.2627 112.124 50.8135 112.124 51.4814C112.124 51.8506 112.059 52.1904 111.93 52.501C111.807 52.8115 111.646 53.0928 111.447 53.3447C111.254 53.5908 111.04 53.8105 110.805 54.0039C110.571 54.1914 110.345 54.3525 110.129 54.4873C109.918 54.6221 109.73 54.7305 109.566 54.8125C109.402 54.8887 109.291 54.9385 109.232 54.9619C109.232 54.9695 109.233 54.9783 109.236 54.9883C109.237 54.9938 109.239 54.9997 109.241 55.0059C109.247 55.0146 109.255 55.0276 109.265 55.045C109.275 55.0626 109.287 55.0847 109.302 55.1113C109.332 55.1582 109.373 55.2285 109.425 55.3223C109.484 55.4102 109.557 55.5332 109.645 55.6914C109.739 55.832 109.85 56.0195 109.979 56.2539C110.108 56.4883 110.26 56.7666 110.436 57.0889C110.618 57.4053 110.826 57.7598 111.06 58.1523C111.295 58.5449 111.564 58.9668 111.869 59.418C111.968 59.5059 112.083 59.5615 112.212 59.585C112.34 59.6025 112.461 59.6143 112.572 59.6201C112.683 59.6201 112.777 59.626 112.853 59.6377C112.929 59.6436 112.967 59.6787 112.967 59.7432C112.967 59.79 112.918 59.8457 112.818 59.9102C112.724 59.9688 112.613 60.0303 112.484 60.0947C112.355 60.1592 112.223 60.2207 112.088 60.2793C111.96 60.3379 111.86 60.3848 111.79 60.4199C111.649 60.4902 111.503 60.5576 111.35 60.6221C111.198 60.6865 111.034 60.7598 110.858 60.8418C110.682 60.918 110.486 61.0088 110.269 61.1143C110.058 61.2197 109.818 61.3457 109.548 61.4922C109.478 61.5332 109.411 61.5596 109.346 61.5713C109.288 61.5889 109.232 61.5977 109.179 61.5977C109.074 61.5977 108.983 61.5713 108.907 61.5186C108.831 61.4717 108.766 61.4131 108.713 61.3428C108.661 61.2725 108.617 61.1992 108.582 61.123C108.552 61.0527 108.526 60.9941 108.503 60.9473L105.883 55.4277L105.453 60.2969ZM105.989 54.3467C106.288 54.3467 106.598 54.2705 106.921 54.1182C107.243 53.9658 107.536 53.7695 107.799 53.5293C108.063 53.2891 108.28 53.0166 108.45 52.7119C108.62 52.4072 108.705 52.0996 108.705 51.7891C108.705 50.9395 108.195 50.5146 107.175 50.5146C106.982 50.5146 106.821 50.5293 106.692 50.5586C106.563 50.582 106.446 50.5996 106.34 50.6113L105.989 54.3467ZM123.289 53.7754C123.266 53.8633 123.222 53.9893 123.157 54.1533C123.121 54.2463 123.082 54.3467 123.04 54.4547C123.007 54.5373 122.974 54.6244 122.938 54.7158C122.856 54.9209 122.765 55.1406 122.665 55.375C122.566 55.6035 122.469 55.8291 122.375 56.0518C122.334 56.1514 122.284 56.2246 122.226 56.2715C122.173 56.3184 122.062 56.3447 121.892 56.3506L119.325 56.3945L119.009 60.2969C119.003 60.3496 118.988 60.4023 118.965 60.4551C118.942 60.502 118.906 60.54 118.86 60.5693C118.842 60.5811 118.772 60.6162 118.649 60.6748C118.531 60.7275 118.382 60.792 118.2 60.8682C118.019 60.9443 117.82 61.0264 117.603 61.1143C117.386 61.2021 117.172 61.2812 116.961 61.3516C116.75 61.4277 116.557 61.4893 116.381 61.5361C116.205 61.5889 116.068 61.6152 115.968 61.6152C115.851 61.6152 115.742 61.5918 115.643 61.5449C115.549 61.5039 115.502 61.416 115.502 61.2812C115.496 60.9883 115.502 60.666 115.52 60.3145C115.543 59.957 115.57 59.5967 115.599 59.2334C115.628 58.8643 115.66 58.5039 115.696 58.1523C115.731 57.7949 115.76 57.4697 115.783 57.1768L115.845 56.4385C115.353 56.4385 115.001 56.4268 114.79 56.4033C114.579 56.374 114.474 56.3037 114.474 56.1924C114.474 56.1162 114.518 56.0166 114.606 55.8936C114.729 55.7236 114.866 55.5186 115.019 55.2783C115.177 55.0381 115.326 54.8037 115.467 54.5752C115.613 54.3467 115.739 54.1445 115.845 53.9688C115.956 53.793 116.027 53.6846 116.056 53.6436L116.223 51.2266C116.112 51.2266 116.015 51.2295 115.933 51.2354C115.851 51.2354 115.775 51.2383 115.704 51.2441C115.64 51.2441 115.578 51.2471 115.52 51.2529H115.335C115.054 51.2529 114.852 51.2383 114.729 51.209C114.612 51.1738 114.553 51.1123 114.553 51.0244C114.553 50.9834 114.588 50.8984 114.658 50.7695C114.729 50.6406 114.814 50.4941 114.913 50.3301C115.019 50.1602 115.13 49.9844 115.247 49.8027C115.37 49.6152 115.479 49.4424 115.572 49.2842L116.1 48.3877L120.099 48.2471L121.637 48.1943C122.147 48.1709 122.615 48.1504 123.043 48.1328C123.477 48.1152 123.849 48.1006 124.159 48.0889C124.47 48.0713 124.687 48.0596 124.81 48.0537C124.816 48.0537 124.83 48.0566 124.854 48.0625C124.883 48.0625 124.912 48.0713 124.942 48.0889C124.971 48.1006 124.997 48.124 125.021 48.1592C125.05 48.1943 125.065 48.2441 125.065 48.3086C125.065 48.3438 125.024 48.4609 124.942 48.6602C124.86 48.8594 124.742 49.1553 124.59 49.5479L124.203 50.5674C124.162 50.667 124.115 50.7432 124.063 50.7959C124.01 50.8486 123.899 50.8779 123.729 50.8838C123.529 50.8896 123.327 50.8984 123.122 50.9102C122.917 50.9219 122.706 50.9336 122.489 50.9453L119.818 51.0771L119.777 51.339C119.761 51.4407 119.748 51.5234 119.738 51.5869C119.727 51.6982 119.718 51.792 119.712 51.8682V52.0879C119.712 52.1582 119.709 52.2725 119.703 52.4307C119.697 52.542 119.689 52.6357 119.677 52.7119C119.671 52.7881 119.662 52.8643 119.651 52.9404C119.645 53.0107 119.636 53.0869 119.624 53.1689C119.618 53.251 119.613 53.3535 119.607 53.4766C119.993 53.4648 120.371 53.4531 120.74 53.4414C121.115 53.4297 121.458 53.418 121.769 53.4062C122.085 53.3945 122.358 53.3857 122.586 53.3799C122.815 53.3682 122.976 53.3623 123.07 53.3623C123.116 53.3623 123.169 53.3799 123.228 53.415C123.286 53.4502 123.316 53.5176 123.316 53.6172C123.316 53.6641 123.307 53.7168 123.289 53.7754ZM124.646 60.3584C124.722 60.2061 124.802 60.0361 124.884 59.8486C124.966 59.6553 125.042 59.4473 125.112 59.2246L125.349 58.6445C125.244 58.4863 125.136 58.3164 125.024 58.1348C124.919 57.9473 124.822 57.7568 124.734 57.5635C124.646 57.3701 124.573 57.1768 124.514 56.9834C124.462 56.79 124.435 56.6025 124.435 56.4209C124.435 56.4092 124.479 56.4004 124.567 56.3945C124.661 56.3828 124.775 56.374 124.91 56.3682C125.051 56.3623 125.2 56.3594 125.358 56.3594C125.522 56.3535 125.672 56.3506 125.806 56.3506C125.947 56.3447 126.061 56.3418 126.149 56.3418L126.29 56.333C126.425 55.9814 126.556 55.6475 126.685 55.3311C126.814 55.0146 126.943 54.6953 127.072 54.373C127.201 54.0508 127.33 53.7227 127.459 53.3887C127.588 53.0488 127.717 52.6855 127.846 52.2988C128.092 51.5723 128.332 50.9336 128.566 50.3828C128.801 49.832 129.02 49.3193 129.225 48.8447C129.249 48.7861 129.287 48.7334 129.34 48.6865C129.398 48.6338 129.46 48.5898 129.524 48.5547C129.589 48.5195 129.65 48.4902 129.709 48.4668C129.773 48.4434 129.823 48.4258 129.858 48.4141C129.882 48.4082 129.97 48.3818 130.122 48.335C130.28 48.2881 130.459 48.2383 130.658 48.1855C130.857 48.1328 131.054 48.0859 131.247 48.0449C131.446 48.0039 131.604 47.9834 131.721 47.9834H131.88C131.973 47.9834 132.061 48.0068 132.143 48.0537C132.231 48.0947 132.29 48.1797 132.319 48.3086C132.6 49.0293 132.899 49.8174 133.216 50.6729C133.538 51.5225 133.851 52.46 134.156 53.4854C134.32 54.0361 134.481 54.5576 134.639 55.0498C134.798 55.542 134.956 56.0225 135.114 56.4912C135.272 56.96 135.43 57.4287 135.589 57.8975C135.753 58.3662 135.92 58.8496 136.09 59.3477C136.142 59.5586 136.195 59.7256 136.248 59.8486C136.306 59.9717 136.359 60.0684 136.406 60.1387C136.453 60.209 136.491 60.2617 136.52 60.2969C136.55 60.3262 136.564 60.3584 136.564 60.3936C136.564 60.4287 136.509 60.4639 136.397 60.499L134.508 61.1143C134.367 61.167 134.223 61.2197 134.077 61.2725C133.93 61.3252 133.793 61.3721 133.664 61.4131C133.535 61.4541 133.421 61.4863 133.321 61.5098C133.227 61.5391 133.16 61.5537 133.119 61.5537H133.066C132.984 61.5537 132.926 61.5273 132.89 61.4746C132.855 61.4277 132.832 61.3809 132.82 61.334C132.762 61.1406 132.703 60.9678 132.644 60.8154C132.586 60.6572 132.527 60.502 132.469 60.3496L132.465 60.3371C132.413 60.1826 132.358 60.0198 132.302 59.8486C132.249 59.6729 132.196 59.4648 132.143 59.2246C132.132 59.1953 132.099 59.1719 132.047 59.1543C131.994 59.1309 131.929 59.1133 131.853 59.1016C131.783 59.0898 131.707 59.084 131.625 59.084C131.543 59.0781 131.467 59.0752 131.396 59.0752C131.174 59.0752 130.992 59.0781 130.851 59.084C130.717 59.084 130.596 59.0869 130.491 59.0928C130.386 59.0928 130.283 59.0957 130.183 59.1016H129.832H129.304C129.129 59.0957 128.968 59.0898 128.821 59.084L128.32 59.0664C128.168 59.4883 128.015 59.8838 127.863 60.2529C127.711 60.6221 127.547 61.0029 127.371 61.3955C127.359 61.4424 127.33 61.4805 127.283 61.5098C127.242 61.5391 127.198 61.5537 127.151 61.5537C127.116 61.5537 127.096 61.5508 127.09 61.5449C126.521 61.3398 126.044 61.1377 125.657 60.9385C125.27 60.7393 124.933 60.5459 124.646 60.3584ZM130.57 52.457C130.429 52.9785 130.289 53.4531 130.148 53.8809C130.013 54.3027 129.887 54.6777 129.77 55.0059C129.659 55.334 129.562 55.6123 129.48 55.8408C129.398 56.0635 129.34 56.2363 129.304 56.3594V56.4385C129.304 56.4736 129.302 56.4971 129.296 56.5088H131.405C131.341 56.2217 131.27 55.9316 131.194 55.6387C131.124 55.3457 131.054 55.0381 130.983 54.7158C130.913 54.3936 130.843 54.0479 130.772 53.6787C130.702 53.3096 130.635 52.9023 130.57 52.457ZM142.377 60.2969C142.371 60.3496 142.36 60.4023 142.342 60.4551C142.33 60.502 142.292 60.54 142.228 60.5693C142.204 60.5811 142.087 60.625 141.876 60.7012C141.671 60.7715 141.431 60.8564 141.156 60.9561C140.886 61.0498 140.617 61.1436 140.347 61.2373L139.741 61.4658C139.67 61.4951 139.582 61.5244 139.477 61.5537C139.377 61.5889 139.278 61.6064 139.178 61.6064C139.096 61.6064 139.023 61.5859 138.958 61.5449C138.9 61.5039 138.871 61.4277 138.871 61.3164C138.871 61.0586 138.876 60.8242 138.888 60.6133C138.906 60.3965 138.926 60.1709 138.95 59.9365C138.973 59.7021 138.996 59.4443 139.02 59.1631C139.049 58.876 139.076 58.5361 139.099 58.1436C139.128 57.6279 139.161 57.1328 139.196 56.6582C139.231 56.1777 139.266 55.6797 139.301 55.1641L139.424 53.6611C139.435 53.5116 139.445 53.3611 139.456 53.2095L139.477 52.9141C139.489 52.7351 139.501 52.5535 139.514 52.3689C139.519 52.2875 139.524 52.2055 139.53 52.123L139.626 51.0508C139.626 51.0391 139.609 51.0332 139.574 51.0332C139.527 51.0332 139.448 51.0449 139.336 51.0684C139.225 51.0859 139.093 51.1094 138.941 51.1387C138.788 51.168 138.619 51.2002 138.431 51.2354C138.249 51.2646 138.062 51.2939 137.869 51.3232C137.822 51.3232 137.775 51.3145 137.728 51.2969C137.687 51.2734 137.666 51.2471 137.666 51.2178C137.666 51.1943 137.672 51.1768 137.684 51.165L139.108 48.6777C139.43 48.6074 139.776 48.5371 140.145 48.4668C140.52 48.3906 140.921 48.3232 141.349 48.2646C141.777 48.2061 142.231 48.1592 142.711 48.124C143.192 48.083 143.702 48.0625 144.241 48.0625C144.85 48.0742 145.442 48.1357 146.016 48.2471C146.596 48.3525 147.109 48.5342 147.554 48.792C148.005 49.0439 148.366 49.3896 148.635 49.8291C148.911 50.2627 149.048 50.8135 149.048 51.4814C149.048 51.8506 148.984 52.1904 148.855 52.501C148.732 52.8115 148.571 53.0928 148.371 53.3447C148.178 53.5908 147.964 53.8105 147.73 54.0039C147.496 54.1914 147.27 54.3525 147.053 54.4873C146.842 54.6221 146.655 54.7305 146.491 54.8125C146.327 54.8887 146.215 54.9385 146.157 54.9619C146.157 54.9736 146.16 54.9883 146.165 55.0059C146.177 55.0234 146.198 55.0586 146.227 55.1113C146.256 55.1582 146.297 55.2285 146.35 55.3223C146.409 55.4102 146.482 55.5332 146.57 55.6914C146.663 55.832 146.775 56.0195 146.904 56.2539C146.974 56.3808 147.05 56.5206 147.134 56.6733C147.204 56.8013 147.279 56.9384 147.359 57.0845L147.361 57.0889C147.542 57.4053 147.75 57.7598 147.985 58.1523C148.219 58.5449 148.489 58.9668 148.793 59.418C148.893 59.5059 149.007 59.5615 149.136 59.585C149.265 59.6025 149.385 59.6143 149.496 59.6201C149.608 59.6201 149.702 59.626 149.778 59.6377C149.854 59.6436 149.892 59.6787 149.892 59.7432C149.892 59.79 149.842 59.8457 149.743 59.9102C149.649 59.9688 149.537 60.0303 149.409 60.0947C149.28 60.1592 149.148 60.2207 149.013 60.2793C148.884 60.3379 148.785 60.3848 148.714 60.4199C148.574 60.4902 148.427 60.5576 148.275 60.6221C148.122 60.6865 147.958 60.7598 147.783 60.8418C147.607 60.918 147.411 61.0088 147.194 61.1143C146.983 61.2197 146.743 61.3457 146.473 61.4922C146.403 61.5332 146.335 61.5596 146.271 61.5713C146.212 61.5889 146.157 61.5977 146.104 61.5977C145.998 61.5977 145.908 61.5713 145.831 61.5186C145.755 61.4717 145.691 61.4131 145.638 61.3428C145.585 61.2725 145.541 61.1992 145.506 61.123C145.477 61.0527 145.451 60.9941 145.427 60.9473L142.808 55.4277L142.377 60.2969ZM142.913 54.3467C143.212 54.3467 143.523 54.2705 143.845 54.1182C144.167 53.9658 144.46 53.7695 144.724 53.5293C144.988 53.2891 145.204 53.0166 145.374 52.7119C145.544 52.4072 145.629 52.0996 145.629 51.7891C145.629 50.9395 145.12 50.5146 144.1 50.5146C143.907 50.5146 143.746 50.5293 143.617 50.5586C143.488 50.582 143.371 50.5996 143.265 50.6113L142.913 54.3467ZM159.44 53.7051C159.417 53.7871 159.373 53.9043 159.309 54.0566C159.244 54.2031 159.168 54.3701 159.08 54.5576C158.998 54.7451 158.907 54.9473 158.808 55.1641C158.714 55.375 158.62 55.5889 158.526 55.8057C158.491 55.8877 158.459 55.9492 158.43 55.9902C158.4 56.0254 158.354 56.0518 158.289 56.0693C158.225 56.0869 158.134 56.0986 158.017 56.1045C157.905 56.1045 157.747 56.1074 157.542 56.1133L156.32 56.1396L156.074 58.8291H160.583V59.1719C160.571 59.1836 160.521 59.2627 160.434 59.4092C160.346 59.5498 160.243 59.7197 160.126 59.9189C160.009 60.1182 159.886 60.3203 159.757 60.5254C159.628 60.7246 159.52 60.8857 159.432 61.0088C159.373 61.1143 159.306 61.1963 159.229 61.2549C159.153 61.3193 159.068 61.3662 158.975 61.3955C158.887 61.4248 158.787 61.4424 158.676 61.4482C158.57 61.4541 158.453 61.457 158.324 61.457C157.797 61.457 157.246 61.4453 156.672 61.4219C156.104 61.3984 155.535 61.3691 154.967 61.334C154.398 61.2988 153.842 61.2578 153.297 61.2109C152.758 61.1699 152.257 61.126 151.794 61.0791C151.753 61.0732 151.715 61.0498 151.68 61.0088C151.65 60.9678 151.636 60.9209 151.636 60.8682C151.612 60.8682 151.627 60.8184 151.68 60.7188C151.738 60.6191 151.817 60.4902 151.917 60.332C152.017 60.1738 152.125 59.9951 152.242 59.7959C152.365 59.5908 152.482 59.3857 152.594 59.1807L152.734 57.2031C152.742 57.0887 152.75 56.9842 152.756 56.8898L152.766 56.755C152.772 56.664 152.778 56.5846 152.783 56.5167L152.787 56.4561C152.805 56.292 152.813 56.2041 152.813 56.1924C152.462 56.1865 152.198 56.1689 152.022 56.1396C151.853 56.1104 151.768 56.0459 151.768 55.9463C151.768 55.8994 151.809 55.8115 151.891 55.6826C151.979 55.5537 152.084 55.4072 152.207 55.2432C152.33 55.0732 152.459 54.8975 152.594 54.7158C152.734 54.5342 152.857 54.3672 152.963 54.2148L153.183 51.2266H153.156C153.027 51.2324 152.91 51.2383 152.805 51.2441H152.515C152.233 51.2441 152.031 51.2295 151.908 51.2002C151.791 51.165 151.732 51.1035 151.732 51.0156C151.732 50.9746 151.768 50.8896 151.838 50.7607C151.908 50.6318 151.996 50.4854 152.102 50.3213C152.207 50.1514 152.318 49.9756 152.436 49.7939C152.553 49.6064 152.658 49.4336 152.752 49.2754L153.279 48.3789H156.953L161.286 48.0625C161.291 48.0625 161.302 48.0644 161.318 48.0684C161.322 48.0693 161.326 48.0702 161.33 48.0713C161.359 48.0713 161.389 48.0801 161.418 48.0977C161.447 48.1094 161.474 48.1328 161.497 48.168C161.526 48.2031 161.541 48.2529 161.541 48.3174L161.409 48.7744C161.368 48.9033 161.318 49.041 161.26 49.1875C161.201 49.3281 161.137 49.4746 161.066 49.627L160.68 50.6465C160.639 50.7461 160.592 50.8223 160.539 50.875C160.486 50.9277 160.375 50.957 160.205 50.9629C159.76 50.9746 159.262 50.9951 158.711 51.0244C158.166 51.0479 157.539 51.0713 156.83 51.0947C156.807 51.1768 156.795 51.2441 156.795 51.2969C156.795 51.3438 156.789 51.4375 156.777 51.5781L156.733 51.9824C156.722 52.1699 156.704 52.3721 156.681 52.5889L156.657 52.8061L156.644 52.924C156.629 53.0647 156.612 53.2196 156.593 53.3887C156.892 53.377 157.182 53.3652 157.463 53.3535C157.75 53.3418 158.011 53.333 158.245 53.3271C158.479 53.3154 158.682 53.3066 158.852 53.3008C159.027 53.2949 159.15 53.292 159.221 53.292C159.268 53.292 159.32 53.3096 159.379 53.3447C159.438 53.3799 159.467 53.4473 159.467 53.5469C159.467 53.5938 159.458 53.6465 159.44 53.7051ZM68.03 65.655L68.12 65.664C68.126 65.664 68.135 65.67 68.147 65.682L68.174 65.709C68.18 65.709 68.189 65.718 68.201 65.736C68.213 65.754 68.219 65.769 68.219 65.781C68.2205 65.7825 68.2222 65.7846 68.2241 65.7873C68.2297 65.7951 68.237 65.808 68.246 65.826C68.366 66.042 68.72 66.717 69.308 67.851C69.506 68.199 69.659 68.49 69.767 68.724C69.875 68.952 69.98 69.171 70.082 69.381C70.184 69.591 70.274 69.771 70.352 69.921C70.43 70.071 70.481 70.146 70.505 70.146C70.529 70.146 70.553 70.134 70.577 70.11C70.607 70.08 70.637 70.044 70.667 70.002C70.703 69.954 70.733 69.912 70.757 69.876C70.781 69.834 70.808 69.786 70.838 69.732C70.868 69.678 70.946 69.546 71.072 69.336C71.198 69.126 71.474 68.643 71.9 67.887C72.332 67.125 72.647 66.576 72.845 66.24L73.115 65.745C73.169 65.709 73.265 65.691 73.403 65.691C73.541 65.685 73.628 65.703 73.664 65.745C73.706 65.889 73.739 66.129 73.763 66.465C73.787 66.801 73.802 67.017 73.808 67.113C73.82 67.203 73.892 67.872 74.024 69.12C74.186 70.704 74.267 71.565 74.267 71.703C74.267 71.835 74.243 71.919 74.195 71.955C74.147 71.991 73.958 72.012 73.628 72.018C73.448 72.018 73.352 71.799 73.34 71.361C73.34 71.283 73.289 70.611 73.187 69.345C73.091 68.079 73.034 67.368 73.016 67.212C72.914 67.38 72.659 67.818 72.251 68.526C71.849 69.228 71.591 69.666 71.477 69.84C71.369 70.014 71.228 70.251 71.054 70.551C70.88 70.845 70.733 71.082 70.613 71.262C70.493 71.436 70.409 71.523 70.361 71.523C70.313 71.523 70.244 71.457 70.154 71.325C70.07 71.187 70.004 71.061 69.956 70.947C69.908 70.833 69.737 70.488 69.443 69.912C69.155 69.33 68.846 68.718 68.516 68.076C68.186 67.434 68.006 67.08 67.976 67.014C67.976 67.044 67.931 67.476 67.841 68.31C67.757 69.138 67.7 69.723 67.67 70.065L67.544 71.505C67.526 71.733 67.487 71.874 67.427 71.928C67.373 71.976 67.271 72.003 67.121 72.009C66.971 72.015 66.881 72.009 66.851 71.991C66.821 71.973 66.803 71.931 66.797 71.865C66.797 71.799 66.806 71.703 66.824 71.577C66.848 71.451 66.872 71.238 66.896 70.938C66.926 70.632 67.004 69.963 67.13 68.931C67.256 67.893 67.331 67.26 67.355 67.032C67.379 66.798 67.412 66.567 67.454 66.339C67.496 66.105 67.517 65.955 67.517 65.889C67.523 65.817 67.577 65.76 67.679 65.718C67.781 65.676 67.898 65.655 68.03 65.655ZM80.6782 69.237C80.6782 69.057 80.7022 68.949 80.7502 68.913C80.7982 68.871 80.9362 68.85 81.1642 68.85C81.3922 68.85 81.5182 68.862 81.5422 68.886C81.5722 68.91 81.5872 69.393 81.5872 70.335C81.5872 71.271 81.5722 71.751 81.5422 71.775C81.5122 71.793 81.4102 71.802 81.2362 71.802C81.0622 71.802 80.8912 71.757 80.7232 71.667C80.5252 71.781 80.2552 71.886 79.9132 71.982C79.5772 72.072 79.2472 72.117 78.9232 72.117C78.3052 72.117 77.7382 72.003 77.2222 71.775C76.7122 71.547 76.2922 71.193 75.9622 70.713C75.6322 70.233 75.4672 69.651 75.4672 68.967C75.4672 68.277 75.6412 67.668 75.9892 67.14C76.3372 66.606 76.7872 66.216 77.3392 65.97C77.8912 65.718 78.5032 65.592 79.1752 65.592C79.4692 65.592 79.7992 65.631 80.1652 65.709C80.5372 65.781 80.7382 65.868 80.7682 65.97V66.087C80.7682 66.147 80.7532 66.222 80.7232 66.312C80.6932 66.396 80.6512 66.438 80.5972 66.438C80.5432 66.438 80.4742 66.426 80.3902 66.402L80.2552 66.357C79.9252 66.267 79.5742 66.222 79.2022 66.222C78.8302 66.222 78.5392 66.258 78.3292 66.33C78.1252 66.396 77.9332 66.483 77.7532 66.591C77.5732 66.699 77.3782 66.852 77.1682 67.05C76.9642 67.248 76.7962 67.509 76.6642 67.833C76.5382 68.157 76.4752 68.52 76.4752 68.922C76.4752 69.654 76.7392 70.272 77.2672 70.776C77.8012 71.28 78.4582 71.532 79.2382 71.532C79.5802 71.532 79.9012 71.484 80.2012 71.388C80.5072 71.292 80.6602 71.196 80.6602 71.1L80.6692 70.515L80.6782 69.237ZM84.1491 65.655L84.2391 65.664C84.2451 65.664 84.2541 65.67 84.2661 65.682L84.2931 65.709C84.2991 65.709 84.3081 65.718 84.3201 65.736C84.3321 65.754 84.3381 65.769 84.3381 65.781C84.3441 65.787 84.3531 65.802 84.3651 65.826C84.4851 66.042 84.8391 66.717 85.4271 67.851C85.6251 68.199 85.7781 68.49 85.8861 68.724C85.9941 68.952 86.0991 69.171 86.2011 69.381C86.3031 69.591 86.3931 69.771 86.4711 69.921C86.5491 70.071 86.6001 70.146 86.6241 70.146C86.6481 70.146 86.6721 70.134 86.6961 70.11C86.7261 70.08 86.7561 70.044 86.7861 70.002C86.8025 69.9801 86.8176 69.9595 86.8316 69.9402C86.8482 69.917 86.863 69.8956 86.8761 69.876L86.9111 69.8142L86.9571 69.732C86.9871 69.678 87.0651 69.546 87.1911 69.336C87.3171 69.126 87.5931 68.643 88.0191 67.887C88.4511 67.125 88.7661 66.576 88.9641 66.24L89.2341 65.745C89.2881 65.709 89.3841 65.691 89.5221 65.691C89.6601 65.685 89.7471 65.703 89.7831 65.745C89.8251 65.889 89.8581 66.129 89.8821 66.465C89.9061 66.801 89.9211 67.017 89.9271 67.113C89.9391 67.203 90.0111 67.872 90.1431 69.12C90.3051 70.704 90.3861 71.565 90.3861 71.703C90.3861 71.835 90.3621 71.919 90.3141 71.955C90.2661 71.991 90.0771 72.012 89.7471 72.018C89.5671 72.018 89.4711 71.799 89.4591 71.361C89.4591 71.283 89.4081 70.611 89.3061 69.345C89.2101 68.079 89.1531 67.368 89.1351 67.212C89.0331 67.38 88.7781 67.818 88.3701 68.526C87.9681 69.228 87.7101 69.666 87.5961 69.84C87.4881 70.014 87.3471 70.251 87.1731 70.551C86.9991 70.845 86.8521 71.082 86.7321 71.262C86.6121 71.436 86.5281 71.523 86.4801 71.523C86.4321 71.523 86.3631 71.457 86.2731 71.325C86.1891 71.187 86.1231 71.061 86.0751 70.947C86.0271 70.833 85.8561 70.488 85.5621 69.912C85.2741 69.33 84.9651 68.718 84.6351 68.076C84.3051 67.434 84.1251 67.08 84.0951 67.014C84.0951 67.044 84.0501 67.476 83.9601 68.31C83.8761 69.138 83.8191 69.723 83.7891 70.065L83.6631 71.505C83.6451 71.733 83.6061 71.874 83.5461 71.928C83.4921 71.976 83.3901 72.003 83.2401 72.009C83.0901 72.015 83.0001 72.009 82.9701 71.991C82.9401 71.973 82.9221 71.931 82.9161 71.865C82.9161 71.799 82.9251 71.703 82.9431 71.577C82.9671 71.451 82.9911 71.238 83.0151 70.938C83.0451 70.632 83.1231 69.963 83.2491 68.931C83.3751 67.893 83.4501 67.26 83.4741 67.032C83.4981 66.798 83.5311 66.567 83.5731 66.339C83.6151 66.105 83.6361 65.955 83.6361 65.889C83.6421 65.817 83.6961 65.76 83.7981 65.718C83.9001 65.676 84.0171 65.655 84.1491 65.655ZM93.4288 69.561L93.4468 68.031V67.365C93.4468 67.209 93.4528 67.026 93.4648 66.816C93.4828 66.606 93.4858 66.477 93.4738 66.429C93.4498 66.393 93.2188 66.378 92.7808 66.384L91.5208 66.393C91.5028 66.393 91.4608 66.396 91.3948 66.402C91.3288 66.408 91.2718 66.411 91.2238 66.411C91.1818 66.405 91.1368 66.396 91.0888 66.384C90.9748 66.366 90.9178 66.303 90.9178 66.195C90.9178 66.081 90.9268 65.994 90.9448 65.934C90.9628 65.868 90.9868 65.82 91.0168 65.79C91.0528 65.76 91.0978 65.742 91.1518 65.736C91.2118 65.73 91.2808 65.73 91.3588 65.736C91.4428 65.736 91.5628 65.73 91.7188 65.718C91.8808 65.706 92.3278 65.7 93.0598 65.7L94.8688 65.709L96.5698 65.7L96.9478 65.691H97.0828C97.1968 65.691 97.2688 65.727 97.2988 65.799C97.3048 65.823 97.3078 65.856 97.3078 65.898C97.3078 66.108 97.2778 66.237 97.2178 66.285C97.1758 66.327 97.0258 66.348 96.7678 66.348H96.3448C96.0628 66.348 95.8108 66.357 95.5888 66.375C95.3728 66.387 95.0308 66.393 94.5628 66.393C94.4728 66.393 94.4188 66.411 94.4008 66.447C94.3828 66.477 94.3738 66.543 94.3738 66.645L94.3648 68.274V69.588C94.3648 70.392 94.3558 70.914 94.3378 71.154C94.3258 71.388 94.3168 71.541 94.3108 71.613C94.3108 71.679 94.3078 71.721 94.3018 71.739C94.3018 71.751 94.2958 71.778 94.2838 71.82C94.2778 71.862 94.2658 71.889 94.2478 71.901C94.2358 71.907 94.2178 71.922 94.1938 71.946C94.1698 71.964 94.1368 71.976 94.0948 71.982C94.0588 71.982 94.0138 71.985 93.9598 71.991C93.9058 71.997 93.8278 72 93.7258 72C93.6238 72 93.5578 71.988 93.5278 71.964C93.4978 71.94 93.4738 71.877 93.4558 71.775C93.4438 71.667 93.4348 71.514 93.4288 71.316C93.4288 71.112 93.4258 70.953 93.4198 70.839V70.497L93.4288 69.561ZM102.991 66.321C102.793 66.255 102.553 66.222 102.271 66.222C101.995 66.222 101.746 66.294 101.524 66.438C101.302 66.576 101.191 66.777 101.191 67.041C101.191 67.299 101.269 67.524 101.425 67.716C101.581 67.908 101.77 68.085 101.992 68.247C102.214 68.403 102.433 68.571 102.649 68.751C102.871 68.925 103.06 69.144 103.216 69.408C103.372 69.672 103.45 69.969 103.45 70.299C103.45 70.629 103.312 70.962 103.036 71.298C102.586 71.838 101.842 72.108 100.804 72.108C100.66 72.108 100.531 72.099 100.417 72.081C100.309 72.069 100.225 72.06 100.165 72.054C100.105 72.048 100.042 72.039 99.9756 72.027C99.8316 72.003 99.7596 71.967 99.7596 71.919C99.7596 71.601 99.8166 71.406 99.9306 71.334C100.177 71.412 100.429 71.451 100.687 71.451C101.935 71.451 102.559 71.094 102.559 70.38C102.559 70.008 102.295 69.627 101.767 69.237C101.545 69.075 101.323 68.907 101.101 68.733C100.885 68.559 100.699 68.343 100.543 68.085C100.387 67.821 100.309 67.533 100.309 67.221C100.309 66.747 100.513 66.357 100.921 66.051C101.335 65.745 101.818 65.592 102.37 65.592C102.49 65.592 102.649 65.607 102.847 65.637C103.051 65.661 103.159 65.694 103.171 65.736C103.189 65.778 103.198 65.826 103.198 65.88C103.198 65.934 103.18 66.015 103.144 66.123C103.108 66.225 103.057 66.291 102.991 66.321ZM106.62 69.822L106.638 68.895C106.638 68.817 106.629 68.763 106.611 68.733C106.593 68.703 106.581 68.682 106.575 68.67C106.572 68.663 106.566 68.655 106.558 68.646C106.553 68.6395 106.547 68.6325 106.539 68.625C106.534 68.6179 106.53 68.6113 106.525 68.6051C106.518 68.5956 106.51 68.5873 106.503 68.58C106.497 68.568 106.482 68.553 106.458 68.535C106.44 68.511 106.425 68.496 106.413 68.49C106.377 68.46 106.185 68.28 105.837 67.95C105.489 67.62 105.297 67.437 105.261 67.401C105.225 67.359 105.138 67.272 105 67.14C104.862 67.008 104.751 66.903 104.667 66.825C104.583 66.741 104.49 66.642 104.388 66.528C104.172 66.306 104.064 66.159 104.064 66.087C104.058 66.081 104.055 66.075 104.055 66.069C104.055 66.021 104.133 65.934 104.289 65.808C104.445 65.676 104.562 65.604 104.64 65.592C104.73 65.592 104.859 65.694 105.027 65.898C105.075 65.952 105.39 66.279 105.972 66.879C106.56 67.473 106.869 67.788 106.899 67.824C106.935 67.86 106.98 67.911 107.034 67.977C107.142 68.109 107.214 68.175 107.25 68.175C107.286 68.175 107.478 67.986 107.826 67.608C108.174 67.23 108.417 66.954 108.555 66.78C108.699 66.606 108.912 66.366 109.194 66.06C109.476 65.748 109.641 65.592 109.689 65.592C109.743 65.592 109.821 65.637 109.923 65.727C110.025 65.817 110.076 65.877 110.076 65.907C110.082 65.937 110.073 65.97 110.049 66.006C110.025 66.036 109.989 66.075 109.941 66.123C109.899 66.165 109.854 66.216 109.806 66.276C109.668 66.444 109.374 66.768 108.924 67.248C108 68.214 107.538 68.748 107.538 68.85V70.533L107.556 71.325C107.556 71.565 107.544 71.712 107.52 71.766C107.502 71.82 107.472 71.868 107.43 71.91C107.37 71.97 107.259 72 107.097 72H106.782C106.734 71.994 106.686 71.976 106.638 71.946C106.596 71.91 106.575 71.856 106.575 71.784L106.602 71.226L106.62 69.822ZM113.247 66.321C113.049 66.255 112.809 66.222 112.527 66.222C112.251 66.222 112.002 66.294 111.78 66.438C111.558 66.576 111.447 66.777 111.447 67.041C111.447 67.299 111.525 67.524 111.681 67.716C111.837 67.908 112.026 68.085 112.248 68.247C112.47 68.403 112.689 68.571 112.905 68.751C113.127 68.925 113.316 69.144 113.472 69.408C113.628 69.672 113.706 69.969 113.706 70.299C113.706 70.629 113.568 70.962 113.292 71.298C112.842 71.838 112.098 72.108 111.06 72.108C110.916 72.108 110.787 72.099 110.673 72.081C110.565 72.069 110.481 72.06 110.421 72.054C110.361 72.048 110.298 72.039 110.232 72.027C110.088 72.003 110.016 71.967 110.016 71.919C110.016 71.601 110.073 71.406 110.187 71.334C110.433 71.412 110.685 71.451 110.943 71.451C112.191 71.451 112.815 71.094 112.815 70.38C112.815 70.008 112.551 69.627 112.023 69.237C111.801 69.075 111.579 68.907 111.357 68.733C111.141 68.559 110.955 68.343 110.799 68.085C110.643 67.821 110.565 67.533 110.565 67.221C110.565 66.747 110.769 66.357 111.177 66.051C111.591 65.745 112.074 65.592 112.626 65.592C112.746 65.592 112.905 65.607 113.103 65.637C113.307 65.661 113.415 65.694 113.427 65.736C113.445 65.778 113.454 65.826 113.454 65.88C113.454 65.934 113.436 66.015 113.4 66.123C113.364 66.225 113.313 66.291 113.247 66.321ZM116.913 69.561L116.931 68.031V67.365C116.931 67.209 116.937 67.026 116.949 66.816C116.967 66.606 116.97 66.477 116.958 66.429C116.934 66.393 116.703 66.378 116.265 66.384L115.005 66.393C114.987 66.393 114.945 66.396 114.879 66.402C114.813 66.408 114.756 66.411 114.708 66.411C114.666 66.405 114.621 66.396 114.573 66.384C114.459 66.366 114.402 66.303 114.402 66.195C114.402 66.081 114.411 65.994 114.429 65.934C114.447 65.868 114.471 65.82 114.501 65.79C114.537 65.76 114.582 65.742 114.636 65.736C114.696 65.73 114.765 65.73 114.843 65.736C114.927 65.736 115.047 65.73 115.203 65.718C115.365 65.706 115.812 65.7 116.544 65.7L118.353 65.709L120.054 65.7L120.432 65.691H120.567C120.681 65.691 120.753 65.727 120.783 65.799C120.789 65.823 120.792 65.856 120.792 65.898C120.792 66.108 120.762 66.237 120.702 66.285C120.66 66.327 120.51 66.348 120.252 66.348H119.829C119.547 66.348 119.295 66.357 119.073 66.375C118.857 66.387 118.515 66.393 118.047 66.393C117.957 66.393 117.903 66.411 117.885 66.447C117.867 66.477 117.858 66.543 117.858 66.645L117.849 68.274V69.588C117.849 70.392 117.84 70.914 117.822 71.154C117.81 71.388 117.801 71.541 117.795 71.613C117.795 71.679 117.792 71.721 117.786 71.739C117.786 71.751 117.78 71.778 117.768 71.82C117.762 71.862 117.75 71.889 117.732 71.901C117.728 71.9032 117.723 71.9065 117.717 71.9109C117.706 71.9189 117.693 71.9306 117.678 71.946C117.654 71.964 117.621 71.976 117.579 71.982C117.543 71.982 117.498 71.985 117.444 71.991C117.39 71.997 117.312 72 117.21 72C117.108 72 117.042 71.988 117.012 71.964C116.982 71.94 116.958 71.877 116.94 71.775C116.928 71.667 116.919 71.514 116.913 71.316C116.913 71.112 116.91 70.953 116.904 70.839V70.497L116.913 69.561ZM125.017 66.366L123.91 66.348C123.298 66.348 122.872 66.369 122.632 66.411C122.62 66.819 122.614 67.449 122.614 68.301L124.153 68.292H124.306C124.882 68.292 125.17 68.34 125.17 68.436C125.17 68.526 125.149 68.628 125.107 68.742C125.065 68.85 125.017 68.913 124.963 68.931C124.909 68.949 124.795 68.958 124.621 68.958L122.632 68.949C122.626 69.123 122.623 69.261 122.623 69.363L122.614 70.092V70.596C122.614 70.992 122.623 71.208 122.641 71.244C122.677 71.316 123.235 71.352 124.315 71.352C124.687 71.352 124.954 71.343 125.116 71.325L125.494 71.253C125.584 71.253 125.629 71.283 125.629 71.343C125.629 71.397 125.602 71.487 125.548 71.613C125.488 71.817 125.446 71.928 125.422 71.946C125.356 71.982 124.876 72 123.982 72H122.335C122.011 72 121.822 71.979 121.768 71.937C121.72 71.889 121.696 71.502 121.696 70.776L121.723 67.563L121.732 66.834L121.723 66.159C121.723 65.955 121.741 65.835 121.777 65.799C121.825 65.745 121.999 65.718 122.299 65.718L123.568 65.7L124.756 65.709C125.038 65.709 125.194 65.727 125.224 65.763C125.254 65.793 125.269 65.823 125.269 65.853L125.233 66.069C125.232 66.0739 125.231 66.079 125.23 66.0842C125.229 66.0904 125.228 66.0968 125.228 66.1035C125.227 66.1105 125.226 66.1177 125.226 66.1252C125.225 66.1413 125.224 66.1586 125.224 66.177C125.224 66.1824 125.224 66.1876 125.224 66.1926C125.224 66.1988 125.223 66.2047 125.223 66.2103C125.222 66.2254 125.22 66.2382 125.218 66.2487C125.217 66.2521 125.216 66.2551 125.215 66.258C125.215 66.276 125.209 66.294 125.197 66.312C125.179 66.348 125.119 66.366 125.017 66.366ZM127.954 65.655L128.044 65.664C128.05 65.664 128.059 65.67 128.071 65.682L128.098 65.709C128.104 65.709 128.113 65.718 128.125 65.736C128.137 65.754 128.143 65.769 128.143 65.781C128.146 65.7843 128.151 65.7904 128.156 65.7992C128.16 65.8063 128.165 65.8152 128.17 65.826C128.29 66.042 128.644 66.717 129.232 67.851C129.43 68.199 129.583 68.49 129.691 68.724C129.799 68.952 129.904 69.171 130.006 69.381C130.108 69.591 130.198 69.771 130.276 69.921C130.354 70.071 130.405 70.146 130.429 70.146C130.453 70.146 130.477 70.134 130.501 70.11C130.531 70.08 130.561 70.044 130.591 70.002C130.627 69.954 130.657 69.912 130.681 69.876C130.705 69.834 130.732 69.786 130.762 69.732C130.792 69.678 130.87 69.546 130.996 69.336C131.122 69.126 131.398 68.643 131.824 67.887C132.256 67.125 132.571 66.576 132.769 66.24L133.039 65.745C133.093 65.709 133.189 65.691 133.327 65.691C133.465 65.685 133.552 65.703 133.588 65.745C133.63 65.889 133.663 66.129 133.687 66.465L133.713 66.833C133.722 66.9651 133.729 67.0584 133.732 67.113C133.744 67.203 133.816 67.872 133.948 69.12C134.11 70.704 134.191 71.565 134.191 71.703C134.191 71.835 134.167 71.919 134.119 71.955C134.071 71.991 133.882 72.012 133.552 72.018C133.372 72.018 133.276 71.799 133.264 71.361C133.264 71.283 133.213 70.611 133.111 69.345C133.015 68.079 132.958 67.368 132.94 67.212C132.838 67.38 132.583 67.818 132.175 68.526C131.773 69.228 131.515 69.666 131.401 69.84C131.293 70.014 131.152 70.251 130.978 70.551C130.804 70.845 130.657 71.082 130.537 71.262C130.417 71.436 130.333 71.523 130.285 71.523C130.237 71.523 130.168 71.457 130.078 71.325C129.994 71.187 129.928 71.061 129.88 70.947C129.832 70.833 129.661 70.488 129.367 69.912C129.079 69.33 128.77 68.718 128.44 68.076C128.11 67.434 127.93 67.08 127.9 67.014C127.9 67.044 127.855 67.476 127.765 68.31C127.681 69.138 127.624 69.723 127.594 70.065L127.468 71.505C127.45 71.733 127.411 71.874 127.351 71.928C127.297 71.976 127.195 72.003 127.045 72.009C126.895 72.015 126.805 72.009 126.775 71.991C126.745 71.973 126.727 71.931 126.721 71.865C126.721 71.799 126.73 71.703 126.748 71.577C126.772 71.451 126.796 71.238 126.82 70.938C126.85 70.632 126.928 69.963 127.054 68.931C127.18 67.893 127.255 67.26 127.279 67.032C127.303 66.798 127.336 66.567 127.378 66.339C127.42 66.105 127.441 65.955 127.441 65.889C127.447 65.817 127.501 65.76 127.603 65.718C127.705 65.676 127.822 65.655 127.954 65.655Z" fill="#50566C" fill-opacity="0.99"/>
<path d="M135.008 29.1375C134.94 29.102 116.75 29.8157 116.75 29.8157L117.672 31.1558C117.672 31.1558 133.379 29.4646 134.303 29.2968C135.227 29.1291 135.077 29.173 135.008 29.1375Z" fill="#EBEBEB"/>
<path d="M116.75 29.8157H111.725L111.893 31.9933L117.672 31.1558L116.75 29.8157Z" fill="#395A61" fill-opacity="0.7"/>
<path d="M116.75 29.8157H111.725L111.893 31.9933L117.672 31.1558L116.75 29.8157Z" fill="url(#paint0_linear)" fill-opacity="0.7"/>
<path d="M64.4263 28.8873C64.4955 28.8529 82.6712 29.8549 82.6712 29.8549L81.7288 31.1802C81.7288 31.1802 66.0502 29.2402 65.129 29.0578C64.2077 28.8754 64.3571 28.9218 64.4263 28.8873Z" fill="#EBEBEB"/>
<path fill-rule="evenodd" clip-rule="evenodd" d="M121.791 30.8343C121.791 30.8343 145.248 28.5866 145.318 28.6197C145.341 28.6305 145.371 28.6327 145.372 28.6374C145.373 28.6473 145.24 28.668 144.618 28.801C143.7 28.9976 130.158 30.2871 130.158 30.2871L121.791 30.8343ZM77.3879 30.5693C77.3879 30.5693 53.8986 28.6815 53.8293 28.7159C53.807 28.727 53.7763 28.7297 53.7759 28.7344C53.7753 28.7442 53.9082 28.7629 54.532 28.8864C55.4533 29.0688 69.0127 30.1506 69.0127 30.1506L77.3879 30.5693Z" fill="#EBEBEB" fill-opacity="0.8"/>
<path d="M82.671 29.8549L87.6891 29.8993C87.6891 29.8993 87.6225 30.562 87.6054 30.9881C87.5873 31.4457 87.6054 32.1606 87.6054 32.1606L81.7286 31.1802L82.671 29.8549Z" fill="#395A61" fill-opacity="0.7"/>
<path d="M82.671 29.8549L87.6891 29.8993C87.6891 29.8993 87.6225 30.562 87.6054 30.9881C87.5873 31.4457 87.6054 32.1606 87.6054 32.1606L81.7286 31.1802L82.671 29.8549Z" fill="url(#paint1_linear)" fill-opacity="0.7"/>
<path fill-rule="evenodd" clip-rule="evenodd" d="M103.737 31.3733C101.566 33.4532 98.1201 33.3792 96.0402 31.208C93.9605 29.0368 94.0345 25.5908 96.2057 23.5109C98.3769 21.4311 101.823 21.5052 103.903 23.6764C105.983 25.8476 105.909 29.2936 103.737 31.3733ZM103.322 30.7243C101.329 32.6331 98.1918 32.5916 96.3142 30.6315C94.4365 28.6713 94.53 25.535 96.5226 23.6261C98.5154 21.7172 101.653 21.7588 103.53 23.7189C105.408 25.679 105.315 28.8154 103.322 30.7243ZM66.3317 37.6884C66.3317 41.0188 63.5943 43.7186 60.2178 43.7186C56.8412 43.7186 54.1039 41.0188 54.1039 37.6884C54.1039 34.3581 56.8412 31.6583 60.2178 31.6583C63.5943 31.6583 66.3317 34.3581 66.3317 37.6884ZM65.6617 37.4372C65.6617 40.4437 63.1494 42.8811 60.0503 42.8811C56.9511 42.8811 54.4389 40.4437 54.4389 37.4372C54.4389 34.4307 56.9511 31.9933 60.0503 31.9933C63.1494 31.9933 65.6617 34.4307 65.6617 37.4372ZM133.393 39.3193C134.259 42.5352 137.604 44.4306 140.864 43.5531C144.125 42.6755 146.066 39.3571 145.201 36.1412C144.335 32.9253 140.99 31.0296 137.73 31.9072C134.469 32.7849 132.527 36.1033 133.393 39.3193ZM133.975 38.9025C134.756 41.8057 137.816 43.5064 140.808 42.7008C143.801 41.8953 145.593 38.8889 144.812 35.9856C144.03 33.0824 140.971 31.3817 137.978 32.1873C134.986 32.9926 133.193 35.9992 133.975 38.9025ZM99.6049 27.9631C99.6523 27.9502 99.6945 27.9276 99.73 27.8981C99.7103 28.0241 99.6188 28.1332 99.4878 28.1692C99.3094 28.2182 99.125 28.1134 99.0759 27.935C99.0399 27.804 99.087 27.6697 99.1851 27.5883C99.1779 27.6338 99.1801 27.6816 99.193 27.729C99.2421 27.9074 99.4265 28.0122 99.6049 27.9631Z" fill="#E8E6E6"/>
<path fill-rule="evenodd" clip-rule="evenodd" d="M111.031 31.5847C109.441 33.935 103.814 35.4786 99.9407 35.6323C96.1906 35.6323 90.3201 33.8734 88.6561 31.7511C89.7122 34.2956 94.4982 37.8084 99.5809 37.8084C106.316 37.8916 109.914 34.2248 111.031 31.5847Z" fill="#2A464B"/>
<path fill-rule="evenodd" clip-rule="evenodd" d="M87.6766 30.0023C87.7482 29.3212 87.8918 29.8321 87.8918 29.8321C87.8918 29.8321 88.234 31.029 88.6097 31.6971C89.0404 32.4633 89.6148 33.2372 89.6148 33.2372C89.6148 33.2372 89.0498 33.3213 88.6588 33.4926C88.2824 33.6576 87.6766 34.0033 87.6766 34.0033C87.6766 34.0033 87.6035 32.7588 87.6047 31.9603L87.6048 31.9001V31.8999C87.6059 31.1677 87.6066 30.6653 87.6766 30.0023ZM111.037 31.565C108.603 32.8744 103.731 33.6684 99.8782 33.6684C95.9064 33.6684 90.9816 32.9786 88.6134 31.6792C90.4697 34.2295 96.2327 35.4737 99.9189 35.6784C104.953 35.6784 109.491 33.9364 111.037 31.565ZM111.606 29.9996C111.606 29.9996 111.749 29.4888 111.821 30.1698C111.891 30.833 111.892 31.3355 111.893 32.068V32.1278C111.894 32.9263 111.821 34.1708 111.821 34.1708C111.821 34.1708 111.215 33.8251 110.839 33.6601C110.448 33.4888 109.883 33.4047 109.883 33.4047C109.883 33.4047 110.457 32.6308 110.888 31.8646C111.263 31.1965 111.606 29.9996 111.606 29.9996Z" fill="#83A689"/>
<path d="M99.9162 0H100.084L100.167 2.93132L100.251 5.86265H99.665L99.7487 2.93132L99.8325 0H99.9162Z" fill="#90B396"/>
<path opacity="0.8" fill-rule="evenodd" clip-rule="evenodd" d="M33.1365 25.7076C33.3663 25.7603 33.6019 25.8143 33.8402 25.8687C33.8414 25.8851 33.8419 25.9015 33.8417 25.9183C33.8384 26.1958 33.6482 26.4186 33.4171 26.4159C33.1858 26.4133 33.001 26.1861 33.0042 25.9086C33.005 25.829 33.0213 25.7541 33.0496 25.6876L33.1365 25.7076ZM166.513 26.02C166.506 26.057 166.502 26.0953 166.503 26.1349C166.506 26.4124 166.696 26.6352 166.928 26.6325C167.159 26.6298 167.344 26.4027 167.34 26.1251C167.339 26.0213 167.312 25.9251 167.266 25.8456C167.021 25.9024 166.768 25.9608 166.513 26.02ZM47.725 28.4827C47.7034 28.4784 47.6813 28.476 47.6587 28.4757L47.725 28.4827ZM47.8253 28.9469L48.0736 28.9938C48.0667 29.2642 47.8819 29.4807 47.655 29.4807C47.4236 29.4807 47.2362 29.2558 47.2362 28.9782C47.2362 28.9298 47.2419 28.8829 47.2526 28.8385C47.4397 28.874 47.6312 28.9102 47.8253 28.9469ZM152.291 29.1258L152.996 28.9837C153.06 29.072 153.099 29.1871 153.099 29.3132C153.099 29.5908 152.911 29.8157 152.68 29.8157C152.449 29.8157 152.261 29.5908 152.261 29.3132C152.261 29.2469 152.272 29.1837 152.291 29.1258ZM131.843 32.9673L132.663 32.8363C132.658 33.1087 132.473 33.3278 132.245 33.3278C132.054 33.3278 131.894 33.1757 131.843 32.9673ZM67.342 32.5685C67.6092 32.6129 67.8884 32.6588 68.1738 32.7052C68.1651 33.071 67.9812 33.3633 67.7554 33.3633C67.5241 33.3633 67.3367 33.0566 67.3367 32.6782C67.3367 32.6408 67.3385 32.6042 67.342 32.5685Z" fill="#E8E8E8"/>
<path fill-rule="evenodd" clip-rule="evenodd" d="M74.2881 28.5595C74.2881 28.5595 70.7553 28.2727 70.6868 28.3082C70.6631 28.3205 70.6256 28.3243 70.6251 28.3309C70.6242 28.3435 70.7547 28.3662 71.3568 28.4757C72.2781 28.6432 73.9531 28.9112 73.9531 28.9112L74.2881 28.5595ZM124.791 28.8107C124.791 28.8107 129.495 28.4162 129.564 28.4518C129.588 28.464 129.626 28.4677 129.626 28.4743C129.627 28.4869 129.495 28.5098 128.887 28.6199C127.957 28.7886 125.209 29.2295 125.209 29.2295L124.791 28.8107Z" fill="#83A689"/>
<path d="M87.6852 33.9705C87.6852 33.9705 88.1877 33.6355 88.6065 33.468C89.0252 33.3005 89.6115 33.2 89.6115 33.2C89.6115 33.2 90.0777 33.7541 90.7003 34.3055C91.2028 34.7506 94.1341 37.0694 95.0554 37.5719C95.4346 37.7787 96.3994 38.2921 97.4004 38.6607C98.5188 39.0724 98.7408 39.1709 99.6617 39.1632C100.665 39.1548 102.091 38.4932 102.091 38.4932C102.091 38.4932 103.488 37.9205 104.352 37.4881C105.571 36.8784 106.267 36.5339 107.367 35.7293C107.911 35.3313 108.298 35.0171 108.791 34.5568C109.281 34.0987 109.879 33.3843 109.879 33.3843C109.879 33.3843 110.306 33.4042 110.717 33.5518C111.13 33.7002 111.806 34.138 111.806 34.138C111.806 34.138 111.806 34.4558 111.806 34.8081C111.806 35.4781 111.672 36.0643 111.487 36.8181C111.32 37.5719 111.136 37.9906 110.801 38.4932C110.466 38.9957 109.712 39.7494 108.874 40.4195C108.037 41.0895 106.111 41.5082 105.776 41.5082C105.441 41.5082 102.84 41.5082 99.4942 41.5082C96.6515 41.5082 94.8197 41.5082 94.0503 41.5082C93.5192 41.5082 92.4306 41.3352 91.454 40.8382C90.4023 40.3029 89.4671 39.4236 89.109 38.9119C88.4296 37.9414 87.7725 36.7479 87.6852 35.5618C87.6286 34.792 87.6852 33.9705 87.6852 33.9705Z" fill="#2A464B"/>
</g>
<defs>
<linearGradient id="paint0_linear" x1="117.534" y1="30.135" x2="111.748" y2="30.9127" gradientUnits="userSpaceOnUse">
<stop offset="0.0989583" stop-color="#EBEBEB" stop-opacity="0.7"/>
<stop offset="0.78125" stop-color="#395A61" stop-opacity="0.7"/>
</linearGradient>
<linearGradient id="paint1_linear" x1="81.8819" y1="30.1616" x2="87.656" y2="31.0311" gradientUnits="userSpaceOnUse">
<stop offset="0.0989583" stop-color="#EBEBEB" stop-opacity="0.7"/>
<stop offset="0.78125" stop-color="#395A61" stop-opacity="0.7"/>
</linearGradient>
<clipPath id="clip0">
<rect width="200" height="75" fill="white"/>
</clipPath>
</defs>
</svg>