<svg viewBox="0 0 128 128" xmlns="http://www.w3.org/2000/svg">
<path d="M45.899 63.9146C59.2315 63.9146 70.0369 51.0824 70.0369 35.2488C70.0369 19.4154 59.2315 6.58301 45.899 6.58301C32.5663 6.58301 21.7607 19.4154 21.7607 35.2488C21.7607 51.0824 32.5663 63.9146 45.899 63.9146ZM62.7954 71.0811H59.6462C55.4599 73.3654 50.8018 74.6644 45.899 74.6644C40.9959 74.6644 36.3567 73.3654 32.1514 71.0811H29.0022C15.0096 71.0811 3.65717 84.5632 3.65717 101.18V110.497C3.65717 116.432 7.71162 121.246 12.709 121.246H64.5493C64.0966 119.723 63.9082 118.111 64.0589 116.476L65.3415 102.838L65.5675 100.352L67.0574 98.5825L81.6344 81.271C77.0143 75.0674 70.3199 71.0811 62.7954 71.0811ZM71.3381 103.621L70.0559 117.283C69.8482 119.567 71.4701 121.493 73.3747 121.224L84.8593 119.701L110.864 88.8183L97.3433 72.7608L71.3381 103.621ZM123.027 66.8037L115.88 58.3159C114.127 56.2331 111.26 56.2331 109.507 58.3159L102.378 66.7814L101.605 67.6994L115.145 83.7568L123.027 74.3956C124.781 72.2905 124.781 68.9088 123.027 66.8037Z" />
</svg>