<svg viewBox="0 0 128 128" xmlns="http://www.w3.org/2000/svg">
<path d="M64 74.6665V117.333H21.3334C21.3334 106.017 25.8286 95.1648 33.8302 87.1629C41.8319 79.1615 52.6841 74.6665 64 74.6665ZM64 69.3329C46.3199 69.3329 32.0001 55.013 32.0001 37.3329C32.0001 19.653 46.3199 5.33301 64 5.33301C81.6801 5.33301 96 19.653 96 37.3329C96 55.013 81.6801 69.3329 64 69.3329ZM77.8401 100.33C77.1639 97.4845 77.1639 94.52 77.8401 91.6744L72.5493 88.6185L77.8829 79.3809L83.1733 82.4368C85.297 80.4257 87.864 78.942 90.6668 78.1064V71.9997H101.333V78.1064C104.171 78.949 106.731 80.4528 108.827 82.4368L114.117 79.3809L119.451 88.6185L114.16 91.6744C114.835 94.5182 114.835 97.4808 114.16 100.325L119.451 103.381L114.117 112.618L108.827 109.562C106.703 111.574 104.136 113.057 101.333 113.893V120H90.6668V113.893C87.864 113.057 85.297 111.574 83.1733 109.562L77.8829 112.618L72.5493 103.381L77.8401 100.33ZM96 90.6665C94.5854 90.6665 93.229 91.2282 92.2288 92.2284C91.2285 93.2287 90.6668 94.5851 90.6668 95.9997C90.6668 97.4143 91.2285 98.7707 92.2288 99.7709C93.229 100.771 94.5854 101.333 96 101.333C97.4146 101.333 98.771 100.771 99.7713 99.7709C100.771 98.7707 101.333 97.4143 101.333 95.9997C101.333 94.5851 100.771 93.2287 99.7713 92.2284C98.771 91.2282 97.4146 90.6665 96 90.6665Z" />
</svg>