<svg viewBox="0 0 128 128" xmlns="http://www.w3.org/2000/svg">
<path d="M121.005 67.2978L99.2816 57.2198C98.5085 56.8614 96.9059 56.3911 95.0956 57.2198L73.3722 67.2978C71.3542 68.2384 70.0343 70.4331 70.0343 72.8742C70.0343 97.8679 82.989 115.157 95.0956 120.779C96.9059 121.607 98.4898 121.137 99.2816 120.779C108.955 116.299 124.343 100.757 124.343 72.8742C124.343 70.4331 123.023 68.2384 121.005 67.2978ZM97.1886 110.141V67.7904L115.197 76.1441C114.141 95.6509 103.713 106.468 97.1886 110.141ZM45.8972 63.916C59.2293 63.916 70.0343 51.0831 70.0343 35.2495C70.0343 19.4157 59.2293 6.58301 45.8972 6.58301C32.5652 6.58301 21.76 19.4157 21.76 35.2495C21.76 51.0831 32.5652 63.916 45.8972 63.916ZM64 72.8742C64 72.3143 64.1511 71.7994 64.2074 71.2618C63.736 71.2395 63.2836 71.0826 62.7932 71.0826H59.644C55.4577 73.3672 50.7999 74.6658 45.8972 74.6658C40.9944 74.6658 36.3555 73.3672 32.1503 71.0826H29.0012C15.0092 71.0826 3.65717 84.565 3.65717 101.183V110.499C3.65717 116.434 7.71144 121.249 12.7086 121.249H79.0857C80.3679 121.249 81.5938 120.913 82.7063 120.353C72.5234 110.745 64 94.2173 64 72.8742Z" />
</svg>