<svg viewBox="0 0 128 128" xmlns="http://www.w3.org/2000/svg">
<path fill-rule="evenodd" clip-rule="evenodd" d="M70.404 35.2285C70.404 51.063 59.5982 63.8963 46.2654 63.8963C32.9325 63.8963 22.1267 51.063 22.1267 35.2509C22.1267 19.4164 32.9325 6.58301 46.2654 6.58301C59.5982 6.58301 70.404 19.4164 70.404 35.2285ZM68.9371 71.0409V88.6859C68.9371 90.3729 68.8958 92.2252 68.8523 94.1767C68.7992 96.5655 68.7426 99.1032 68.7543 101.669C68.759 102.707 68.7389 103.645 68.7202 104.532C68.6625 107.222 68.6153 109.432 69.3028 112.457C69.6144 113.828 70.6092 115.041 71.439 116.053C72.0501 116.798 72.5716 117.434 72.6645 117.943C73.0141 119.854 72.1035 121.232 71.8628 121.232H13.0748C8.07736 121.232 4.02283 116.417 4.02283 110.482V101.165C4.02283 84.5463 15.3755 71.0636 29.3683 71.0409H32.5176C36.7232 73.3255 41.3623 74.6245 46.2654 74.6245C51.1685 74.6245 55.8263 73.3255 60.013 71.0409H63.1621C64.0757 71.0409 64.7844 70.9341 65.4277 70.8372C66.5508 70.6675 67.4743 70.5285 68.9371 71.0409ZM78.1004 64.0002H117.922C121.051 64.0002 123.611 66.5602 123.611 69.6892V109.511C123.611 112.64 121.051 115.2 117.922 115.2H78.1004C74.9714 115.2 72.4114 112.64 72.4114 109.511V69.6892C72.4114 66.5602 74.9714 64.0002 78.1004 64.0002ZM103.956 72.5334L100.941 75.5487L104.952 79.5876L100.941 83.5984L103.956 86.6134L107.967 82.6029L111.978 86.5852L114.993 83.5699L110.982 79.5591L114.993 75.5487L111.978 72.5334L107.967 76.5442L103.956 72.5334ZM95.8782 77.4259H81.6559V81.6927H95.8782V77.4259ZM90.9004 100.978H96.5891V96.7111H90.9004V91.0224H86.6337V96.7111H80.9446V100.978H86.6337V106.667H90.9004V100.978ZM100.856 100.267V104.533H115.078V100.267H100.856ZM100.856 93.1556V97.4224H115.078V93.1556H100.856Z" />
</svg>