<svg viewBox="0 0 128 128" xmlns="http://www.w3.org/2000/svg">
<path d="M46.2415 64.335C51.0155 64.335 55.6824 62.6537 59.6519 59.5037C63.6213 56.3536 66.7152 51.8764 68.5421 46.6381C70.3691 41.3998 70.8471 35.6357 69.9157 30.0748C68.9843 24.5138 66.6854 19.4057 63.3096 15.3965C59.9339 11.3873 55.6329 8.65699 50.9506 7.55085C46.2683 6.44471 41.4149 7.01242 37.0043 9.1822C32.5936 11.352 28.8238 15.0264 26.1715 19.7407C23.5192 24.455 22.1035 29.9976 22.1035 35.6675C22.1035 43.2706 24.6466 50.5623 29.1734 55.9385C33.7001 61.3147 39.8397 64.335 46.2415 64.335ZM64.345 78.6688C64.3586 76.2749 64.8842 73.9243 65.8725 71.8378C64.9673 71.7258 64.081 71.5019 63.1381 71.5019H59.9888C55.6784 73.8627 50.9882 75.0852 46.2415 75.0852C41.4948 75.0852 36.8046 73.8627 32.4942 71.5019H29.3449C22.6235 71.5037 16.1778 74.6756 11.425 80.3202C6.67224 85.9648 4.0015 93.62 4 101.603L4 110.92C4 113.771 4.95366 116.505 6.6512 118.521C8.34873 120.537 10.6511 121.67 13.0518 121.67H66.0233C64.9388 119.5 64.3595 117.027 64.345 114.503V78.6688ZM118.656 71.5019H112.621V53.5847C112.621 48.8328 111.032 44.2755 108.202 40.9153C105.373 37.5552 101.536 35.6675 97.5348 35.6675C93.5336 35.6675 89.6964 37.5552 86.8672 40.9153C84.0379 44.2755 82.4485 48.8328 82.4485 53.5847V71.5019H76.414C74.8136 71.5019 73.2787 72.257 72.147 73.601C71.0153 74.9451 70.3795 76.768 70.3795 78.6688V114.503C70.3795 116.404 71.0153 118.227 72.147 119.571C73.2787 120.915 74.8136 121.67 76.414 121.67H118.656C120.256 121.67 121.791 120.915 122.923 119.571C124.054 118.227 124.69 116.404 124.69 114.503V78.6688C124.69 76.768 124.054 74.9451 122.923 73.601C121.791 72.257 120.256 71.5019 118.656 71.5019ZM97.5348 103.753C96.3412 103.753 95.1745 103.332 94.1822 102.545C93.1898 101.757 92.4163 100.638 91.9596 99.3286C91.5029 98.019 91.3834 96.578 91.6162 95.1878C91.849 93.7975 92.4238 92.5205 93.2677 91.5182C94.1117 90.5159 95.1869 89.8333 96.3575 89.5568C97.5281 89.2802 98.7414 89.4222 99.8441 89.9646C100.947 90.5071 101.889 91.4256 102.552 92.6042C103.215 93.7828 103.569 95.1685 103.569 96.5859C103.569 98.4867 102.933 100.31 101.802 101.654C100.67 102.998 99.1352 103.753 97.5348 103.753ZM103.569 71.5019H91.5003V53.5847C91.5003 51.6839 92.136 49.861 93.2677 48.517C94.3994 47.1729 95.9343 46.4178 97.5348 46.4178C99.1352 46.4178 100.67 47.1729 101.802 48.517C102.933 49.861 103.569 51.6839 103.569 53.5847V71.5019Z" />
</svg>