<svg viewBox="0 0 128 128" xmlns="http://www.w3.org/2000/svg">
<path fill-rule="evenodd" clip-rule="evenodd" d="M116.937 3.65723H26.4229V124.343H116.937V3.65723ZM71.68 33.8664C79.9923 33.8664 86.7281 40.602 86.7281 48.9144C86.7281 57.2267 79.9923 63.9624 71.68 63.9624C63.3677 63.9624 56.632 57.2267 56.632 48.9144C56.632 40.602 63.3677 33.8664 71.68 33.8664ZM49.0514 94.1715V86.6287C49.0514 78.2937 55.8022 71.5429 64.1372 71.5429H79.2229C87.5579 71.5429 94.3086 78.2937 94.3086 86.6287V94.1715H49.0514ZM11.3372 11.2001H22.6514V33.8287H11.3372V11.2001ZM22.6514 41.3715H11.3372V64.0001H22.6514V41.3715ZM11.3372 71.5429H22.6514V94.1715H11.3372V71.5429ZM22.6514 101.714H11.3372V124.343H22.6514V101.714Z" />
</svg>